<?xml version="1.0" standalone="no"?>
<!DOCTYPE svg PUBLIC "-//W3C//DTD SVG 1.1//EN" "http://www.w3.org/Graphics/SVG/1.1/DTD/svg11.dtd" >
<svg xmlns="http://www.w3.org/2000/svg" width="100%" height="100%">
<metadata>
Created by FontXChange 20110222 at Fri May 10 09:23:01 2013
 By rlong
(c) Copyright (c) 2010. All rights reserved. Fakt is a design by Thomas Thiemich, published by OurType. www.ourtype.com
</metadata>
<defs>
<font id="FaktConPro-Normal" horiz-adv-x="440" >
  <font-face 
    font-family="FaktConPro"
    font-weight="400"
    font-stretch="normal"
    units-per-em="1000"
    panose-1="2 0 0 0 0 0 0 0 0 0"
    ascent="748"
    descent="-252"
    x-height="488"
    cap-height="688"
    bbox="-132 -312 914 1012"
    underline-thickness="0"
    underline-position="0"
    unicode-range="U+0020-FB04"
  />
<missing-glyph horiz-adv-x="712" 
d="M0 0v720h712v-720h-712zM232 184l126 129l126 -129l52 52l-127 130l127 130l-52 52l-126 -129l-126 129l-52 -52l126 -130l-126 -130z" />
    <glyph glyph-name="f_b" unicode="fb" horiz-adv-x="652" 
d="M284 0v664h-84q-32 0 -44 -17.5t-12 -62.5v-96h76v-64h-76v-424h-80v424h-72v64h72v100q0 76 29.5 110t94.5 34h176v-148q0 -24 -1 -64t-3 -84h4q18 36 43 50t61 14q78 0 115 -68.5t37 -187.5t-38.5 -187.5t-117.5 -68.5q-36 0 -60.5 14t-39.5 50h-4v-52h-76zM364 244
q0 -84 19.5 -136t68.5 -52t68.5 52t19.5 136t-19.5 136t-68.5 52q-47 0 -67 -47.5t-21 -124.5v-16z" />
    <glyph glyph-name="ff" unicode="ff" horiz-adv-x="444" 
d="M64 0v424h-72v64h72v100q0 76 29.5 110t94.5 34h40v-68h-28q-32 0 -44 -17.5t-12 -62.5v-96h140v100q0 76 29.5 110t94.5 34h52v-68h-40q-32 0 -44 -17.5t-12 -62.5v-96h80v-64h-80v-424h-80v424h-140v-424h-80z" />
    <glyph glyph-name="f_h" unicode="fh" horiz-adv-x="656" 
d="M284 0v664h-84q-32 0 -44 -17.5t-12 -62.5v-96h76v-64h-76v-424h-80v424h-72v64h72v100q0 76 29.5 110t94.5 34h176v-132q0 -25 -1 -71.5t-3 -92.5h4q12 31 42 47.5t66 16.5q57 0 94.5 -34.5t37.5 -121.5v-344h-80v336q0 57 -21 76.5t-51 19.5q-34 0 -61 -28t-27 -88
v-316h-80z" />
    <glyph glyph-name="fi" unicode="fi" horiz-adv-x="416" 
d="M284 0v424h-140v-424h-80v424h-72v64h72v100q0 76 29.5 110t94.5 34h40v-68h-28q-32 0 -44 -17.5t-12 -62.5v-96h220v-488h-80zM280 636v96h88v-96h-88z" />
    <glyph glyph-name="f_j" unicode="fj" horiz-adv-x="416" 
d="M224 -152h20q23 0 31.5 14.5t8.5 49.5v512h-140v-424h-80v424h-72v64h72v100q0 76 29.5 110t94.5 34h40v-68h-28q-32 0 -44 -17.5t-12 -62.5v-96h220v-588q0 -51 -24 -85.5t-88 -34.5h-28v68zM280 636v96h88v-96h-88z" />
    <glyph glyph-name="f_k" unicode="fk" horiz-adv-x="612" 
d="M284 0v664h-84q-32 0 -44 -17.5t-12 -62.5v-96h76v-64h-76v-424h-80v424h-72v64h72v100q0 76 29.5 110t94.5 34h176v-466l152 222h88l-146 -209l158 -279h-88l-118 211l-46 -66v-145h-80z" />
    <glyph glyph-name="fl" unicode="fl" horiz-adv-x="416" 
d="M64 0v424h-72v64h72v100q0 76 29.5 110t94.5 34h176v-732h-80v664h-84q-32 0 -44 -17.5t-12 -62.5v-96h76v-64h-76v-424h-80z" />
    <glyph glyph-name="f_t" unicode="ft" horiz-adv-x="468" 
d="M280 120v304h-136v-424h-80v424h-72v64h72v100q0 76 29.5 110t94.5 34h36v-68h-24q-32 0 -44 -17.5t-12 -62.5v-96h136v148h80v-148h88v-64h-88v-300q0 -33 8 -44.5t36 -11.5h52v-68h-64q-63 0 -87.5 28.5t-24.5 91.5v0z" />
    <glyph glyph-name="f_f_b" unicode="ffb" horiz-adv-x="872" 
d="M284 0v424h-140v-424h-80v424h-72v64h72v100q0 76 29.5 110t94.5 34h40v-68h-28q-32 0 -44 -17.5t-12 -62.5v-96h140v100q0 76 29.5 110t94.5 34h176v-148q0 -24 -1 -64t-3 -84h4q18 36 43 50t61 14q78 0 115 -68.5t37 -187.5t-38.5 -187.5t-117.5 -68.5q-36 0 -60.5 14
t-39.5 50h-4v-52h-76v664h-84q-32 0 -44 -17.5t-12 -62.5v-96h76v-64h-76v-424h-80zM584 244q0 -84 19.5 -136t68.5 -52t68.5 52t19.5 136t-19.5 136t-68.5 52q-47 0 -67 -47.5t-21 -124.5v-16z" />
    <glyph glyph-name="f_f_h" unicode="ffh" horiz-adv-x="876" 
d="M284 0v424h-140v-424h-80v424h-72v64h72v100q0 76 29.5 110t94.5 34h40v-68h-28q-32 0 -44 -17.5t-12 -62.5v-96h140v100q0 76 29.5 110t94.5 34h176v-132q0 -25 -1 -71.5t-3 -92.5h4q12 31 42 47.5t66 16.5q57 0 94.5 -34.5t37.5 -121.5v-344h-80v336q0 57 -21 76.5
t-51 19.5q-34 0 -61 -28t-27 -88v-316h-80v664h-84q-32 0 -44 -17.5t-12 -62.5v-96h76v-64h-76v-424h-80z" />
    <glyph glyph-name="ffi" unicode="ffi" horiz-adv-x="636" 
d="M284 0v424h-140v-424h-80v424h-72v64h72v100q0 76 29.5 110t94.5 34h40v-68h-28q-32 0 -44 -17.5t-12 -62.5v-96h140v100q0 76 29.5 110t94.5 34h40v-68h-28q-32 0 -44 -17.5t-12 -62.5v-96h220v-488h-80v424h-140v-424h-80zM500 636v96h88v-96h-88z" />
    <glyph glyph-name="f_f_j" unicode="ffj" horiz-adv-x="636" 
d="M284 0v424h-140v-424h-80v424h-72v64h72v100q0 76 29.5 110t94.5 34h40v-68h-28q-32 0 -44 -17.5t-12 -62.5v-96h140v100q0 76 29.5 110t94.5 34h40v-68h-28q-32 0 -44 -17.5t-12 -62.5v-96h220v-588q0 -51 -24 -85.5t-88 -34.5h-28v68h20q23 0 31.5 14.5t8.5 49.5v512
h-140v-424h-80zM500 636v96h88v-96h-88z" />
    <glyph glyph-name="f_f_k" unicode="ffk" horiz-adv-x="832" 
d="M284 0v424h-140v-424h-80v424h-72v64h72v100q0 76 29.5 110t94.5 34h40v-68h-28q-32 0 -44 -17.5t-12 -62.5v-96h140v100q0 76 29.5 110t94.5 34h176v-466l152 222h88l-146 -209l158 -279h-88l-118 211l-46 -66v-145h-80v664h-84q-32 0 -44 -17.5t-12 -62.5v-96h76v-64
h-76v-424h-80z" />
    <glyph glyph-name="ffl" unicode="ffl" horiz-adv-x="636" 
d="M284 0v424h-140v-424h-80v424h-72v64h72v100q0 76 29.5 110t94.5 34h40v-68h-28q-32 0 -44 -17.5t-12 -62.5v-96h140v100q0 76 29.5 110t94.5 34h176v-732h-80v664h-84q-32 0 -44 -17.5t-12 -62.5v-96h76v-64h-76v-424h-80z" />
    <glyph glyph-name="f_f_t" unicode="fft" horiz-adv-x="688" 
d="M284 0v424h-140v-424h-80v424h-72v64h72v100q0 76 29.5 110t94.5 34h40v-68h-28q-32 0 -44 -17.5t-12 -62.5v-96h140v100q0 76 29.5 110t94.5 34h44v-68h-32q-32 0 -44 -17.5t-12 -62.5v-96h136v148h80v-148h96v-64h-96v-300q0 -33 12 -44.5t40 -11.5h44v-68h-56
q-63 0 -91.5 28.5t-28.5 91.5v304h-136v-424h-80z" />
    <glyph glyph-name=".notdef" horiz-adv-x="712" 
d="M0 0v720h712v-720h-712zM232 184l126 129l126 -129l52 52l-127 130l127 130l-52 52l-126 -129l-126 129l-52 -52l126 -130l-126 -130z" />
    <glyph glyph-name="space" unicode=" " horiz-adv-x="180" 
 />
    <glyph glyph-name="at" unicode="@" horiz-adv-x="740" 
d="M208 120q0 62 34 100t102 52l48 10q28 6 38 16.5t10 45.5q0 42 -16.5 65t-51.5 23q-36 0 -55 -23.5t-21 -72.5h-76q4 79 43.5 121.5t108.5 42.5q75 0 111.5 -40.5t36.5 -115.5v-194q0 -65 13 -83.5t35 -18.5q29 0 56.5 54t27.5 170q0 197 -85.5 282.5t-194.5 85.5
q-119 0 -201.5 -104t-82.5 -304q0 -193 81.5 -296.5t194.5 -103.5q49 0 86.5 16t65.5 56h72q-38 -67 -95.5 -99.5t-128.5 -32.5q-139 0 -239.5 118t-100.5 342t101.5 346t246.5 122q134 0 239 -105t105 -323q0 -149 -50.5 -214.5t-109.5 -65.5q-31 0 -57.5 14.5t-40.5 51.5
q-23 -42 -56 -56t-70 -14q-60 0 -92 38.5t-32 93.5v0zM440 180v62q-6 -7 -15.5 -11.5t-20.5 -6.5l-48 -10q-37 -7 -52.5 -31t-15.5 -55q0 -35 18 -55.5t46 -20.5q34 0 61 29.5t27 98.5v0z" />
    <glyph glyph-name="A" unicode="A" horiz-adv-x="484" 
d="M0 0l188 688h108l188 -688h-88l-49 188h-215l-48 -188h-84zM242 600h-4l-86 -336h176z" />
    <glyph glyph-name="B" unicode="B" horiz-adv-x="488" 
d="M60 0v688h160q102 0 157 -46t55 -130q0 -49 -25.5 -90t-82.5 -58v-4q62 -11 99 -55.5t37 -104.5q0 -87 -59 -143.5t-161 -56.5h-180zM240 318h-98v-242h98q69 0 102.5 33.5t33.5 90.5q0 48 -33.5 83t-102.5 35v0zM220 612h-78v-218h78q63 0 95.5 32t32.5 86
q0 45 -29.5 72.5t-98.5 27.5v0z" />
    <glyph glyph-name="C" unicode="C" horiz-adv-x="484" 
d="M32 344q0 176 60.5 266t167.5 90q90 0 138.5 -57.5t61.5 -170.5h-80q-13 73 -40 114.5t-80 41.5q-69 0 -104.5 -73.5t-35.5 -210.5t34 -210.5t106 -73.5q56 0 81.5 41.5t38.5 114.5h80q-13 -111 -64.5 -169.5t-135.5 -58.5q-113 0 -170.5 90t-57.5 266v0z" />
    <glyph glyph-name="D" unicode="D" horiz-adv-x="516" 
d="M60 0v688h144q142 0 211 -97t69 -243t-69 -247t-211 -101h-144zM200 612h-56v-536h56q111 0 153.5 84t42.5 188t-42.5 184t-153.5 80v0z" />
    <glyph glyph-name="E" unicode="E" horiz-adv-x="444" 
d="M60 0v688h348v-76h-264v-224h212v-76h-212v-236h272v-76h-356z" />
    <glyph glyph-name="F" unicode="F" horiz-adv-x="420" 
d="M60 0v688h340v-76h-256v-240h204v-76h-204v-296h-84z" />
    <glyph glyph-name="G" unicode="G" horiz-adv-x="528" 
d="M420 0l-16 80h-3q-20 -44 -55.5 -68t-89.5 -24q-104 0 -164 90t-60 266t62.5 266t169.5 90q90 0 140.5 -56t63.5 -160h-80q-13 67 -40.5 105.5t-83.5 38.5q-72 0 -108 -73.5t-36 -210.5t36.5 -210.5t111.5 -73.5q57 0 90.5 50.5t33.5 123.5v58h-124v72h204v-364h-52z" />
    <glyph glyph-name="H" unicode="H" horiz-adv-x="540" 
d="M60 0v688h84v-300h252v300h84v-688h-84v312h-252v-312h-84z" />
    <glyph glyph-name="I" unicode="I" horiz-adv-x="204" 
d="M60 0v688h84v-688h-84z" />
    <glyph glyph-name="J" unicode="J" horiz-adv-x="388" 
d="M32 148v60h84v-60q0 -48 20 -66t48 -18q31 0 49.5 18.5t18.5 65.5v540h84v-536q0 -91 -41.5 -127.5t-110.5 -36.5q-65 0 -108.5 36t-43.5 124v0z" />
    <glyph glyph-name="K" unicode="K" horiz-adv-x="484" 
d="M60 0v688h84v-337l232 337h92l-209 -301l217 -387h-96l-173 312l-63 -90v-222h-84z" />
    <glyph glyph-name="L" unicode="L" horiz-adv-x="404" 
d="M60 0v688h84v-612h236v-76h-320z" />
    <glyph glyph-name="M" unicode="M" horiz-adv-x="696" 
d="M64 0v688h104l180 -564h4l184 564h100v-688h-84l4 500h-4l-168 -500h-72l-164 500h-4l4 -500h-84z" />
    <glyph glyph-name="N" unicode="N" horiz-adv-x="540" 
d="M60 0v688h72l268 -496h4l-8 496h84v-688h-72l-268 496h-4l8 -496h-84z" />
    <glyph glyph-name="O" unicode="O" horiz-adv-x="528" 
d="M32 344q0 179 61 267.5t171 88.5t171 -88.5t61 -267.5q0 -176 -61 -266t-171 -90t-171 88.5t-61 267.5v0zM120 344q0 -137 36 -210.5t108 -73.5t108 73.5t36 210.5t-36 210.5t-108 73.5t-108 -73.5t-36 -210.5v0z" />
    <glyph glyph-name="P" unicode="P" horiz-adv-x="472" 
d="M60 0v688h144q114 0 177 -62t63 -158q0 -102 -63 -165t-177 -63h-60v-240h-84zM200 612h-56v-296h56q78 0 119 38.5t41 113.5q0 69 -41 106.5t-119 37.5v0z" />
    <glyph glyph-name="Q" unicode="Q" horiz-adv-x="532" 
d="M32 344q0 179 61 267.5t171 88.5t171 -88.5t61 -267.5q0 -93 -17 -162t-50 -113l105 -141l-58 -50l-101 139q-24 -14 -52 -21.5t-59 -7.5q-110 0 -171 88.5t-61 267.5v0zM120 344q0 -137 36 -210.5t108 -73.5t108 73.5t36 210.5t-36 210.5t-108 73.5t-108 -73.5
t-36 -210.5v0z" />
    <glyph glyph-name="R" unicode="R" horiz-adv-x="484" 
d="M56 0v688h152q111 0 171.5 -54t60.5 -150q0 -74 -36 -125t-103 -71l159 -288h-96l-149 276h-75v-276h-84zM208 612h-68v-260h68q81 0 114.5 37.5t33.5 94.5t-35 92.5t-113 35.5v0z" />
    <glyph glyph-name="S" unicode="S" horiz-adv-x="476" 
d="M36 184h80q0 -66 36 -95t82 -29t82 28.5t36 91.5q0 140 -152 145.5t-152 190.5q0 78 53 131t141 53q82 0 134 -46.5t52 -133.5h-80q0 60 -33 84t-73 24t-75 -25.5t-35 -82.5q0 -131 152 -139t152 -197q0 -82 -54 -139t-148 -57t-146 54t-52 142v0z" />
    <glyph glyph-name="T" unicode="T" horiz-adv-x="428" 
d="M8 612v76h412v-76h-164v-612h-84v612h-164z" />
    <glyph glyph-name="U" unicode="U" horiz-adv-x="520" 
d="M52 220v468h84v-472q0 -70 31 -111t93 -41q63 0 93.5 40t30.5 112v472h84v-468q0 -120 -56 -176t-152 -56t-152 56t-56 176v0z" />
    <glyph glyph-name="V" unicode="V" horiz-adv-x="476" 
d="M184 0l-180 688h88l146 -600h4l146 600h84l-180 -688h-108z" />
    <glyph glyph-name="W" unicode="W" horiz-adv-x="708" 
d="M132 0l-128 688h88l96 -572h4l112 572h104l108 -572h4l96 572h88l-128 -688h-116l-104 572h-4l-104 -572h-116z" />
    <glyph glyph-name="X" unicode="X" horiz-adv-x="448" 
d="M4 0l171 354l-163 334h92l118 -259l118 259h88l-159 -330l175 -358h-92l-131 283l-129 -283h-88z" />
    <glyph glyph-name="Y" unicode="Y" horiz-adv-x="464" 
d="M188 0v276l-180 412h92l132 -312h4l136 312h84l-184 -409v-279h-84z" />
    <glyph glyph-name="Z" unicode="Z" horiz-adv-x="428" 
d="M36 612v76h368v-56l-278 -556h274v-76h-376v52l278 560h-266z" />
    <glyph glyph-name="ampersand" unicode="&#x26;" horiz-adv-x="528" 
d="M28 176q0 66 39.5 112t89.5 83q-32 43 -54.5 84t-22.5 89q0 68 45.5 112t118.5 44q66 0 109 -38t43 -106q0 -69 -45 -114t-99 -82l130 -183q9 31 13.5 68.5t4.5 82.5v8h72v-20q0 -35 -10 -91t-37 -108l83 -117h-80l-43 58q-27 -31 -66 -50.5t-91 -19.5q-93 0 -146.5 50.5
t-53.5 137.5v0zM232 52q39 0 68.5 14t49.5 41l-155 212q-38 -28 -64.5 -62.5t-26.5 -80.5q0 -58 39.5 -91t88.5 -33v0zM152 544q0 -37 20 -68.5t43 -63.5q44 31 76.5 64t32.5 76q0 37 -22 60.5t-58 23.5q-45 0 -68.5 -26t-23.5 -66v0z" />
    <glyph glyph-name="at.sc" horiz-adv-x="612" 
d="M168 92q0 49 27.5 77t84.5 39l40 8q22 4 29 11.5t7 36.5t-12 42.5t-36 13.5q-26 0 -40 -16t-16 -52h-72q4 65 39.5 96.5t88.5 31.5q64 0 94 -33t30 -95v-136q0 -46 10 -61t26 -15q22 0 39 39t17 125q0 139 -60.5 207.5t-155.5 68.5q-102 0 -161 -82t-59 -222
q0 -137 56.5 -218.5t155.5 -81.5q39 0 68.5 14.5t51.5 41.5h64q-31 -52 -79 -78t-105 -26q-119 0 -193.5 93t-74.5 255t75.5 259t200.5 97q116 0 194 -84.5t78 -243.5q0 -113 -39 -162.5t-89 -49.5q-27 0 -49 12t-33 42q-20 -31 -43.5 -42.5t-54.5 -11.5q-46 0 -75 28.5
t-29 71.5v0zM292 48q23 0 43.5 18t20.5 66v41q-4 -4 -10.5 -6t-13.5 -3l-36 -8q-30 -7 -41 -21t-11 -35q0 -25 14.5 -38.5t33.5 -13.5v0z" />
    <glyph glyph-name="a.sc" horiz-adv-x="400" 
d="M4 0l148 520h96l148 -520h-84l-33 128h-162l-33 -128h-80zM196 436l-61 -236h125l-60 236h-4z" />
    <glyph glyph-name="b.sc" horiz-adv-x="424" 
d="M60 0v520h152q78 0 119 -35.5t41 -96.5q0 -37 -19.5 -69t-64.5 -43v-4q47 -5 77.5 -39.5t30.5 -80.5q0 -66 -44.5 -109t-119.5 -43h-172zM224 234h-86v-164h86q46 0 69 23.5t23 62.5q0 31 -23.5 54.5t-68.5 23.5v0zM204 450h-66v-148h66q42 0 65 21t23 57
q0 31 -21.5 50.5t-66.5 19.5v0z" />
    <glyph glyph-name="c.sc" horiz-adv-x="412" 
d="M36 260q0 130 47.5 201.5t136.5 71.5q75 0 116 -44t48 -134h-80q-6 55 -26 82.5t-59 27.5q-51 0 -77 -52t-26 -153t25.5 -153t77.5 -52q41 0 60 28t25 82h80q-7 -90 -50 -134t-114 -44q-93 0 -138.5 71.5t-45.5 201.5v0z" />
    <glyph glyph-name="d.sc" 
d="M60 0v520h124q113 0 168.5 -74.5t55.5 -185.5t-55.5 -185.5t-168.5 -74.5h-124zM184 448h-44v-376h44q82 0 113 57.5t31 130.5q0 75 -31 131.5t-113 56.5v0z" />
    <glyph glyph-name="e.sc" horiz-adv-x="392" 
d="M60 0v520h292v-72h-212v-149h172v-66h-172v-161h220v-72h-300z" />
    <glyph glyph-name="f.sc" horiz-adv-x="368" 
d="M60 0v520h284v-72h-204v-165h164v-66h-164v-217h-80z" />
    <glyph glyph-name="g.sc" 
d="M228 216v64h168v-280h-52l-8 56h-2q-16 -31 -45.5 -49.5t-72.5 -18.5q-85 0 -132.5 71t-47.5 201t49.5 201t138.5 71q75 0 116 -44t52 -124h-76q-10 48 -31 74t-61 26q-53 0 -80.5 -53t-27.5 -151t28.5 -151t83.5 -53q42 0 67 38t25 90v32h-92z" />
    <glyph glyph-name="h.sc" horiz-adv-x="460" 
d="M60 0v520h80v-220h180v220h80v-520h-80v228h-180v-228h-80z" />
    <glyph glyph-name="i.sc" horiz-adv-x="200" 
d="M60 0v520h80v-520h-80z" />
    <glyph glyph-name="j.sc" horiz-adv-x="332" 
d="M28 124v36h76v-40q0 -33 13 -46.5t39 -13.5q22 0 35 13.5t13 46.5v400h80v-392q0 -74 -35.5 -105t-92.5 -31q-58 0 -93 30.5t-35 101.5v0z" />
    <glyph glyph-name="k.sc" horiz-adv-x="412" 
d="M60 0v520h80v-243l176 243h88l-171 -228l167 -292h-88l-128 226l-44 -59v-167h-80z" />
    <glyph glyph-name="l.sc" horiz-adv-x="352" 
d="M60 0v520h80v-448h188v-72h-268z" />
    <glyph glyph-name="m.sc" horiz-adv-x="592" 
d="M60 0v520h100l132 -396h4l140 396h96v-520h-80l4 364h-4l-132 -364h-56l-124 364h-4l4 -364h-80z" />
    <glyph glyph-name="n.sc" horiz-adv-x="460" 
d="M60 0v520h68l192 -352h4l-4 352h80v-520h-68l-192 352h-4l4 -352h-80z" />
    <glyph glyph-name="o.sc" 
d="M32 260q0 130 49 201t139 71t139 -71t49 -201t-49 -201t-139 -71t-139 71t-49 201v0zM112 260q0 -98 28 -151t80 -53t80 53t28 151t-28 151t-80 53t-80 -53t-28 -151v0z" />
    <glyph glyph-name="p.sc" horiz-adv-x="400" 
d="M60 0v520h135q87 0 136 -48t49 -124q0 -77 -49 -126.5t-135 -49.5h-56v-172h-80zM192 448h-52v-204h52q51 0 79.5 26.5t28.5 77.5q0 49 -28.5 74.5t-79.5 25.5v0z" />
    <glyph glyph-name="q.sc" 
d="M32 260q0 130 49 201t139 71t139 -71t49 -201q0 -65 -12.5 -116t-36.5 -85l81 -111l-56 -44l-74 108q-19 -11 -42 -17.5t-48 -6.5q-90 0 -139 71t-49 201v0zM112 260q0 -98 28 -151t80 -53t80 53t28 151t-28 151t-80 53t-80 -53t-28 -151v0z" />
    <glyph glyph-name="r.sc" horiz-adv-x="416" 
d="M60 0v520h140q81 0 130.5 -40t49.5 -116q0 -56 -28 -95.5t-77 -56.5l121 -212h-88l-112 200h-56v-200h-80zM196 448h-56v-176h56q56 0 80 25.5t24 66.5q0 40 -25 62t-79 22v0z" />
    <glyph glyph-name="s.sc" horiz-adv-x="388" 
d="M28 140h76q0 -42 24.5 -64t63.5 -22t63.5 21.5t24.5 60.5q0 95 -120 103t-120 145q0 63 42 105.5t114 42.5t112 -37.5t40 -106.5h-72q0 40 -23.5 59t-56.5 19t-56.5 -18.5t-23.5 -55.5q0 -96 120 -102t120 -146q0 -72 -43 -114t-121 -42t-121 41.5t-43 110.5v0z" />
    <glyph glyph-name="t.sc" horiz-adv-x="376" 
d="M16 448v72h344v-72h-132v-448h-80v448h-132z" />
    <glyph glyph-name="u.sc" horiz-adv-x="448" 
d="M52 176v344h80v-348q0 -60 22 -88t70 -28t70 28t22 88v348h80v-344q0 -109 -49.5 -148.5t-122.5 -39.5t-122.5 39.5t-49.5 148.5v0z" />
    <glyph glyph-name="v.sc" horiz-adv-x="392" 
d="M148 0l-144 520h84l108 -436h4l108 436h80l-144 -520h-96z" />
    <glyph glyph-name="w.sc" horiz-adv-x="604" 
d="M112 0l-96 520h80l72 -420h4l84 420h92l84 -420h4l72 420h80l-96 -520h-108l-80 408h-4l-80 -408h-108z" />
    <glyph glyph-name="x.sc" horiz-adv-x="372" 
d="M8 0l135 261l-131 259h84l88 -184l92 184h84l-131 -251l135 -269h-80l-96 196l-100 -196h-80z" />
    <glyph glyph-name="y.sc" horiz-adv-x="384" 
d="M150 0v213l-146 307h88l100 -224h4l100 224h84l-150 -308v-212h-80z" />
    <glyph glyph-name="z.sc" horiz-adv-x="360" 
d="M32 448v72h304v-52l-216 -396h212v-72h-308v48l218 400h-210z" />
    <glyph glyph-name="ampersand.sc" horiz-adv-x="452" 
d="M28 128q0 52 30.5 88t70.5 63q-25 32 -42 60.5t-17 64.5q0 52 36 88t98 36q54 0 93 -31t39 -85q0 -51 -35.5 -83t-78.5 -59l99 -128q7 21 11 46.5t4 55.5v12h68v-12q0 -30 -9 -74t-31 -84l68 -86h-80l-28 34q-22 -21 -53 -33.5t-71 -12.5q-80 0 -126 38.5t-46 101.5v0z
M200 52q26 0 47.5 7.5t37.5 23.5l-120 151q-26 -19 -43.5 -41.5t-17.5 -52.5q0 -42 28 -65t68 -23v0zM140 404q0 -25 14 -45t33 -44q34 21 57.5 43t23.5 50t-16.5 44t-47.5 16t-47.5 -18.5t-16.5 -45.5v0z" />
    <glyph glyph-name="fi.sc" horiz-adv-x="568" 
d="M60 0v520h284v-72h-204v-169h164v-66h-164v-213h-80zM428 0v520h80v-520h-80z" />
    <glyph glyph-name="fl.sc" horiz-adv-x="720" 
d="M60 0v520h284v-72h-204v-169h164v-66h-164v-213h-80zM428 0v520h80v-448h188v-72h-268z" />
    <glyph glyph-name="germandbls.sc" horiz-adv-x="776" 
d="M28 140h76q0 -42 24.5 -64t63.5 -22t63.5 21.5t24.5 60.5q0 95 -120 103t-120 145q0 63 42 105.5t114 42.5t112 -37.5t40 -106.5h-72q0 40 -23.5 59t-56.5 19t-56.5 -18.5t-23.5 -55.5q0 -96 120 -102t120 -146q0 -72 -43 -114t-121 -42t-121 41.5t-43 110.5v0zM416 140
h76q0 -42 24.5 -64t63.5 -22t63.5 21.5t24.5 60.5q0 95 -120 103t-120 145q0 63 42 105.5t114 42.5t112 -37.5t40 -106.5h-72q0 40 -23.5 59t-56.5 19t-56.5 -18.5t-23.5 -55.5q0 -96 120 -102t120 -146q0 -72 -43 -114t-121 -42t-121 41.5t-43 110.5v0z" />
    <glyph glyph-name="a" unicode="a" horiz-adv-x="392" 
d="M28 120q0 60 34 99t102 53l48 10q25 5 36.5 15t11.5 47q0 42 -16.5 65t-51.5 23q-36 0 -55 -25t-21 -71h-76q4 79 45 121.5t107 42.5q75 0 111.5 -40.5t36.5 -115.5v-344h-76v48h-4q-16 -28 -42.5 -44t-65.5 -16q-60 0 -92 38.5t-32 93.5v0zM260 200v42
q-6 -7 -15.5 -11.5t-20.5 -6.5l-48 -10q-37 -7 -52.5 -31t-15.5 -55q0 -35 18 -53.5t46 -18.5q34 0 61 31.5t27 112.5v0z" />
    <glyph glyph-name="b" unicode="b" horiz-adv-x="420" 
d="M52 0v732h80v-148q0 -24 -1 -64t-3 -84h4q18 36 43 50t61 14q78 0 115 -68.5t37 -187.5t-38.5 -187.5t-117.5 -68.5q-36 0 -60.5 14t-39.5 50h-4v-52h-76zM132 244q0 -84 19.5 -136t68.5 -52t68.5 52t19.5 136t-19.5 136t-68.5 52q-47 0 -67 -47.5t-21 -124.5v-16z" />
    <glyph glyph-name="c" unicode="c" horiz-adv-x="372" 
d="M32 244q0 113 38.5 184.5t125.5 71.5q66 0 105 -40t43 -128h-76q-3 54 -20.5 77t-51.5 23q-46 0 -65 -52t-19 -136t18.5 -136t65.5 -52q34 0 53.5 23t22.5 77h72q-4 -88 -46 -128t-102 -40q-90 0 -127 71.5t-37 184.5v0z" />
    <glyph glyph-name="d" unicode="d" horiz-adv-x="420" 
d="M32 244q0 119 38.5 187.5t117.5 68.5q36 0 60.5 -14t39.5 -50h3q-1 43 -2 82t-1 62v152h80v-732h-76v52h-4q-18 -36 -43 -50t-61 -14q-78 0 -115 68.5t-37 187.5v0zM112 244q0 -84 19.5 -136t68.5 -52t68.5 52t19.5 136t-19.5 136t-68.5 52t-68.5 -52t-19.5 -136v0z" />
    <glyph glyph-name="e" unicode="e" horiz-adv-x="396" 
d="M32 244q0 113 42.5 184.5t129.5 71.5q90 0 123 -69t33 -159v-36h-248q1 -81 23.5 -130.5t68.5 -49.5q39 0 57 23.5t27 68.5h68q-10 -83 -50 -121.5t-106 -38.5q-93 0 -130.5 71.5t-37.5 184.5v0zM204 432q-41 0 -63 -37t-27 -97h167q-1 54 -17 94t-60 40v0z" />
    <glyph glyph-name="f" unicode="f" horiz-adv-x="224" 
d="M64 0v424h-72v64h72v100q0 76 29.5 110t94.5 34h52v-68h-40q-32 0 -44 -17.5t-12 -62.5v-96h80v-64h-80v-424h-80z" />
    <glyph glyph-name="g" unicode="g" horiz-adv-x="420" 
d="M40 -68h72q1 -38 21 -65t67 -27q43 0 67.5 25.5t24.5 90.5v96h-4q-18 -36 -43 -50t-61 -14q-78 0 -115 68.5t-37 187.5t38.5 187.5t117.5 68.5q36 0 60.5 -14t39.5 -50h4v52h76v-532q0 -96 -44 -140t-124 -44q-76 0 -118 41t-42 119v0zM112 244q0 -84 19.5 -136t68.5 -52
t68.5 52t19.5 136t-19.5 136t-68.5 52t-68.5 -52t-19.5 -136v0z" />
    <glyph glyph-name="h" unicode="h" horiz-adv-x="424" 
d="M52 0v732h80v-136q0 -24 -1 -69.5t-3 -90.5h4q12 31 42 47.5t66 16.5q57 0 94.5 -34.5t37.5 -121.5v-344h-80v336q0 57 -21 76.5t-51 19.5q-34 0 -61 -27t-27 -87v-318h-80z" />
    <glyph glyph-name="i" unicode="i" horiz-adv-x="184" 
d="M48 636v96h88v-96h-88zM52 0v488h80v-488h-80z" />
    <glyph glyph-name="j" unicode="j" horiz-adv-x="184" 
d="M48 636v96h88v-96h-88zM52 -88v576h80v-588q0 -51 -24 -85.5t-88 -34.5h-28v68h20q23 0 31.5 14.5t8.5 49.5v0z" />
    <glyph glyph-name="k" unicode="k" horiz-adv-x="380" 
d="M52 0v732h80v-466l152 222h88l-146 -209l158 -279h-88l-118 211l-46 -66v-145h-80z" />
    <glyph glyph-name="l" unicode="l" horiz-adv-x="184" 
d="M52 0v732h80v-732h-80z" />
    <glyph glyph-name="m" unicode="m" horiz-adv-x="656" 
d="M52 0v488h76v-52h4q12 31 41.5 47.5t62.5 16.5q41 0 72.5 -17.5t46.5 -58.5q18 46 51.5 61t65.5 15q57 0 94.5 -34.5t37.5 -121.5v-344h-80v336q0 57 -20.5 76.5t-51.5 19.5q-36 0 -60 -29.5t-24 -86.5v-316h-80v336q0 57 -20.5 76.5t-51.5 19.5q-35 0 -59.5 -28.5
t-24.5 -85.5v-318h-80z" />
    <glyph glyph-name="n" unicode="n" horiz-adv-x="424" 
d="M52 0v488h76v-52h4q12 31 42 47.5t66 16.5q57 0 94.5 -34.5t37.5 -121.5v-344h-80v336q0 57 -21 76.5t-51 19.5q-34 0 -61 -27.5t-27 -87.5v-317h-80z" />
    <glyph glyph-name="o" unicode="o" horiz-adv-x="400" 
d="M32 244q0 113 39 184.5t129 71.5t129 -71.5t39 -184.5t-39 -184.5t-129 -71.5t-129 71.5t-39 184.5v0zM112 244q0 -84 19.5 -136t68.5 -52t68.5 52t19.5 136t-19.5 136t-68.5 52t-68.5 -52t-19.5 -136v0z" />
    <glyph glyph-name="p" unicode="p" horiz-adv-x="420" 
d="M132 -100v-120h-80v708h76v-52h4q18 36 43 50t61 14q78 0 115 -68.5t37 -187.5t-38.5 -187.5t-117.5 -68.5q-36 0 -60.5 14t-39.5 50h-4q2 -45 3 -86t1 -66v0zM308 244q0 84 -19.5 136t-68.5 52q-47 0 -67 -47.5t-21 -124.5v-16q0 -84 19.5 -136t68.5 -52t68.5 52
t19.5 136v0z" />
    <glyph glyph-name="q" unicode="q" horiz-adv-x="420" 
d="M288 -96q0 25 1 64t3 84h-4q-18 -36 -43 -50t-61 -14q-78 0 -115 68.5t-37 187.5t37.5 187.5t118.5 68.5q33 0 59 -14t41 -50h4v52h76v-708h-80v124zM112 244q0 -84 19.5 -136t68.5 -52t68.5 52t19.5 136t-19.5 136t-68.5 52t-68.5 -52t-19.5 -136v0z" />
    <glyph glyph-name="r" unicode="r" horiz-adv-x="272" 
d="M52 0v488h76v-56h4q13 37 37 52.5t51 15.5q13 0 29 -4t23 -12l-20 -72q-12 7 -23 9.5t-21 2.5q-40 0 -58 -31.5t-18 -91.5v-301h-80z" />
    <glyph glyph-name="s" unicode="s" horiz-adv-x="368" 
d="M32 132h72q0 -42 22 -63t56 -21t56 20t22 60q0 34 -20 50t-44 26l-60 24q-35 14 -64.5 43t-29.5 89q0 62 39.5 101t104.5 39q66 0 104 -32t38 -104h-72q0 39 -18.5 57.5t-51.5 18.5q-31 0 -50.5 -18.5t-19.5 -53.5q0 -31 17 -47.5t39 -24.5l60 -24q33 -13 68.5 -41.5
t35.5 -94.5q0 -72 -43.5 -110t-110.5 -38t-108.5 36t-41.5 108v0z" />
    <glyph glyph-name="t" unicode="t" horiz-adv-x="252" 
d="M64 120v304h-72v64h72v148h80v-148h88v-64h-88v-300q0 -33 12 -44.5t40 -11.5h36v-68h-48q-63 0 -91.5 28.5t-28.5 91.5v0z" />
    <glyph glyph-name="u" unicode="u" horiz-adv-x="420" 
d="M52 144v344h80v-336q0 -57 19.5 -76.5t52.5 -19.5q34 0 59 29.5t25 86.5v316h80v-488h-76v52h-4q-12 -31 -41.5 -47.5t-62.5 -16.5q-57 0 -94.5 34.5t-37.5 121.5v0z" />
    <glyph glyph-name="v" unicode="v" horiz-adv-x="360" 
d="M132 0l-128 488h84l92 -384h4l96 384h76l-132 -488h-92z" />
    <glyph glyph-name="w" unicode="w" horiz-adv-x="572" 
d="M104 0l-96 488h80l68 -380h4l84 380h88l84 -380h4l68 380h76l-96 -488h-96l-84 380h-4l-84 -380h-96z" />
    <glyph glyph-name="x" unicode="x" horiz-adv-x="336" 
d="M2 0l125 242l-125 246h84l83 -178l89 178h76l-125 -242l125 -246h-84l-84 178l-88 -178h-76z" />
    <glyph glyph-name="y" unicode="y" horiz-adv-x="360" 
d="M32 -160h26q26 0 44.5 11.5t29.5 56.5l14 57l-142 523h84l92 -388h4l96 388h76l-164 -604q-12 -44 -39.5 -78t-84.5 -34h-36v68z" />
    <glyph glyph-name="z" unicode="z" horiz-adv-x="332" 
d="M24 424v64h280v-56l-190 -368h194v-64h-284v44l194 380h-194z" />
    <glyph glyph-name="germandbls" unicode="&#xdf;" horiz-adv-x="452" 
d="M52 0v556q0 93 50 140.5t122 47.5q81 0 120.5 -43.5t39.5 -100.5q0 -76 -48 -114.5t-48 -89.5q0 -48 70 -97t70 -143q0 -77 -43.5 -116.5t-116.5 -39.5h-72v64h64q43 0 65.5 23t22.5 65q0 81 -68 118t-68 122q0 73 48 110t48 98q0 29 -20 54.5t-60 25.5q-39 0 -67.5 -28
t-28.5 -92v-560h-80z" />
    <glyph glyph-name="t_f" horiz-adv-x="444" 
d="M284 0v424h-140v-300q0 -33 12 -44.5t40 -11.5h28v-68h-40q-63 0 -91.5 28.5t-28.5 91.5v304h-72v64h72v148h80v-148h140v100q0 76 29.5 110t94.5 34h52v-68h-40q-32 0 -44 -17.5t-12 -62.5v-96h80v-64h-80v-424h-80z" />
    <glyph glyph-name="t_t" horiz-adv-x="472" 
d="M284 120v304h-140v-300q0 -33 12 -44.5t40 -11.5h28v-68h-40q-63 0 -91.5 28.5t-28.5 91.5v304h-72v64h72v148h80v-148h140v148h80v-148h88v-64h-88v-300q0 -33 12 -44.5t40 -11.5h36v-68h-48q-63 0 -91.5 28.5t-28.5 91.5v0z" />
    <glyph glyph-name="zero" unicode="0" 
d="M220 -12q-101 0 -148.5 94.5t-47.5 261.5t47.5 261.5t148.5 94.5t148.5 -96t47.5 -260t-47.5 -260t-148.5 -96v0zM220 56q55 0 85.5 69.5t30.5 218.5q0 151 -30.5 219.5t-85.5 68.5t-85.5 -69.5t-30.5 -218.5q0 -151 30.5 -219.5t85.5 -68.5v0z" />
    <glyph glyph-name="one" unicode="1" 
d="M68 496l-36 60l184 132h52v-620h140v-68h-356v68h136v513z" />
    <glyph glyph-name="two" unicode="2" 
d="M44 0q3 116 35 171.5t89 112.5l60 60q38 38 61 73.5t23 90.5q0 62 -26 93t-66 31q-46 0 -73 -37t-27 -99h-76q0 96 47.5 150t128.5 54q76 0 124 -47.5t48 -144.5q0 -77 -32.5 -123t-87.5 -101l-60 -60q-40 -40 -60 -79t-20 -77h260v-68h-348z" />
    <glyph glyph-name="three" unicode="3" 
d="M32 208h76q0 -79 29.5 -115.5t78.5 -36.5t78.5 37.5t29.5 98.5q0 62 -29.5 99t-78.5 37h-40v64h40q42 0 69 32.5t27 87.5q0 56 -27 88t-69 32t-69 -31.5t-27 -100.5h-72q0 85 41.5 142.5t126.5 57.5q88 0 130 -58.5t42 -125.5q0 -45 -19.5 -86.5t-60.5 -65.5v-4
q45 -20 70.5 -68t25.5 -108q0 -76 -46 -136t-142 -60t-140 60.5t-44 159.5v0z" />
    <glyph glyph-name="four" unicode="4" 
d="M20 176v60l264 452h68v-444h68v-68h-68v-176h-80v176h-252zM94 244h178v303z" />
    <glyph glyph-name="five" unicode="5" 
d="M40 184h76q6 -57 29.5 -92.5t74.5 -35.5q48 0 76 40.5t28 115.5q0 73 -26.5 114.5t-77.5 41.5q-34 0 -58.5 -20.5t-37.5 -55.5l-72 4l16 392h308v-72h-236l-11 -228h3q13 22 41.5 35t62.5 13q70 0 119 -55t49 -169q0 -110 -55 -167t-129 -57q-86 0 -130 54t-50 142v0z
" />
    <glyph glyph-name="six" unicode="6" 
d="M40 328q0 213 52 292.5t140 79.5q84 0 122.5 -51.5t45.5 -132.5h-76q-4 48 -23.5 82t-68.5 34q-54 0 -81.5 -61t-30.5 -208q15 34 47.5 53.5t76.5 19.5q70 0 117 -55.5t47 -168.5q0 -109 -51.5 -166.5t-128.5 -57.5q-80 0 -134 66.5t-54 273.5v0zM228 368
q-45 0 -72.5 -40t-27.5 -120q0 -66 24 -109t76 -43q46 0 73 40t27 116q0 74 -24.5 115t-75.5 41v0z" />
    <glyph glyph-name="seven" unicode="7" 
d="M112 0l212 616h-284v72h364v-60l-212 -628h-80z" />
    <glyph glyph-name="eight" unicode="8" 
d="M32 184q0 60 25.5 108t70.5 69v4q-41 23 -60.5 64.5t-19.5 86.5q0 68 42.5 126t129.5 58t129.5 -58t42.5 -126q0 -45 -19.5 -86.5t-60.5 -64.5v-4q45 -21 70.5 -69t25.5 -108q0 -76 -46 -136t-142 -60t-142 60t-46 136v0zM112 192q0 -61 29.5 -98.5t78.5 -37.5t78.5 37.5
t29.5 98.5q0 62 -29.5 99t-78.5 37t-78.5 -37t-29.5 -99v0zM220 392q42 0 69 32.5t27 87.5q0 56 -27 88t-69 32t-69 -32t-27 -88q0 -55 27 -87.5t69 -32.5v0z" />
    <glyph glyph-name="nine" unicode="9" 
d="M396 360q0 -213 -52 -292.5t-140 -79.5q-84 0 -122.5 51.5t-45.5 132.5h76q4 -48 23.5 -82t68.5 -34q54 0 81.5 61t29.5 208q-15 -34 -47.5 -53.5t-75.5 -19.5q-70 0 -117 55.5t-47 168.5q0 109 51.5 166.5t128.5 57.5q80 0 134 -66.5t54 -273.5v0zM208 320q45 0 72.5 40
t27.5 120q0 66 -24 109t-76 43q-46 0 -73 -40t-27 -116q0 -74 24.5 -115t75.5 -41v0z" />
    <glyph glyph-name="slashedzero" 
d="M220 -12q-101 0 -148.5 94.5t-47.5 261.5t47.5 261.5t148.5 94.5t148.5 -96t47.5 -260t-47.5 -260t-148.5 -96v0zM220 56q55 0 85.5 69.5t30.5 218.5q0 59 -5 105.5t-14 80.5l-167 -436q13 -19 31 -28.5t39 -9.5v0zM104 344q0 -60 4.5 -106t13.5 -80l168 435
q-14 19 -31.5 29t-38.5 10q-55 0 -85.5 -69.5t-30.5 -218.5v0z" />
    <glyph glyph-name="zero.PPF" horiz-adv-x="464" 
d="M232 -12q-101 0 -150.5 94.5t-49.5 261.5t49.5 261.5t150.5 94.5t150.5 -96t49.5 -260t-49.5 -260t-150.5 -96v0zM232 56q55 0 87.5 69.5t32.5 218.5q0 151 -32.5 219.5t-87.5 68.5t-87.5 -69.5t-32.5 -218.5q0 -151 32.5 -219.5t87.5 -68.5v0z" />
    <glyph glyph-name="one.PPF" horiz-adv-x="288" 
d="M36 520l-36 60l156 108h52v-688h-80v583z" />
    <glyph glyph-name="two.PPF" horiz-adv-x="412" 
d="M28 0q3 116 35 171.5t89 112.5l60 60q38 38 61 73.5t23 90.5q0 62 -26 93t-66 31q-46 0 -73 -40t-27 -108h-76q0 102 47.5 159t128.5 57q76 0 124 -47.5t48 -144.5q0 -77 -32.5 -123t-87.5 -101l-60 -60q-40 -40 -60 -79t-20 -77h260v-68h-348z" />
    <glyph glyph-name="three.PPF" horiz-adv-x="428" 
d="M20 208h76q0 -79 31.5 -115.5t80.5 -36.5q52 0 82 37.5t30 98.5q0 62 -31.5 99t-80.5 37h-40v64h40q45 0 72.5 32.5t27.5 87.5q0 56 -27.5 88t-72.5 32q-42 0 -71 -30t-29 -102h-72q0 85 43.5 142.5t128.5 57.5q91 0 133.5 -58t42.5 -124q0 -46 -19.5 -88t-60.5 -65v-4
q45 -21 70.5 -69t25.5 -108q0 -77 -46.5 -136.5t-145.5 -59.5q-96 0 -142 60.5t-46 159.5v0z" />
    <glyph glyph-name="four.PPF" horiz-adv-x="432" 
d="M20 176v60l252 452h68v-444h72v-68h-72v-176h-80v176h-240zM97 244h163v293z" />
    <glyph glyph-name="five.PPF" 
d="M36 184h76q6 -57 31.5 -92.5t76.5 -35.5q48 0 78 40.5t30 115.5q0 73 -28.5 114.5t-79.5 41.5q-34 0 -60.5 -20.5t-39.5 -55.5l-72 4l16 392h316v-72h-244l-11 -232h3q13 25 43.5 38.5t64.5 13.5q70 0 121 -55t51 -169q0 -110 -57 -167t-131 -57q-86 0 -132 54t-52 142v0
z" />
    <glyph glyph-name="six.PPF" 
d="M36 328q0 213 54 292.5t142 79.5q84 0 124.5 -51.5t47.5 -132.5h-76q-4 48 -25.5 82t-70.5 34q-55 0 -84.5 -63.5t-31.5 -216.5q13 40 47 62t81 22q70 0 119 -55.5t49 -168.5q0 -109 -53.5 -166.5t-130.5 -57.5q-80 0 -136 66.5t-56 273.5v0zM228 368q-45 0 -74.5 -40
t-29.5 -120q0 -66 26 -109t78 -43q46 0 75 40t29 116q0 74 -26.5 115t-77.5 41v0z" />
    <glyph glyph-name="seven.PPF" horiz-adv-x="368" 
d="M64 0l208 616h-256v72h336v-60l-212 -628h-76z" />
    <glyph glyph-name="eight.PPF" 
d="M28 184q0 60 25.5 108t70.5 69v4q-41 23 -60.5 64.5t-19.5 86.5q0 68 43 126t133 58t133 -58t43 -126q0 -45 -19.5 -86.5t-60.5 -64.5v-4q45 -21 70.5 -69t25.5 -108q0 -76 -46.5 -136t-145.5 -60t-145.5 60t-46.5 136v0zM108 192q0 -61 30 -98.5t82 -37.5t82 37.5
t30 98.5q0 62 -30.5 99t-81.5 37t-81.5 -37t-30.5 -99v0zM220 392q45 0 72.5 32.5t27.5 87.5q0 56 -27.5 88t-72.5 32t-72.5 -32t-27.5 -88q0 -55 27.5 -87.5t72.5 -32.5v0z" />
    <glyph glyph-name="nine.PPF" 
d="M404 360q0 -213 -54 -292.5t-142 -79.5q-84 0 -124.5 51.5t-47.5 132.5h76q4 -48 25.5 -82t70.5 -34q55 0 84.5 63t31.5 216q-13 -39 -49 -61t-83 -22q-70 0 -117 55.5t-47 168.5q0 109 53.5 166.5t130.5 57.5q80 0 136 -66.5t56 -273.5v0zM212 320q45 0 74.5 40
t29.5 120q0 66 -26 109t-78 43q-46 0 -75 -40t-29 -116q0 -74 26.5 -115t77.5 -41v0z" />
    <glyph glyph-name="slashedzero.PPF" horiz-adv-x="464" 
d="M232 -12q-101 0 -150.5 94.5t-49.5 261.5t49.5 261.5t150.5 94.5t150.5 -96t49.5 -260t-49.5 -260t-150.5 -96v0zM232 56q55 0 87.5 69.5t32.5 218.5q0 60 -5.5 107.5t-15.5 81.5l-170 -440q14 -19 32 -28t39 -9v0zM112 344q0 -61 5.5 -108.5t15.5 -81.5l169 440v1
q-14 19 -32 28t-38 9q-55 0 -87.5 -69.5t-32.5 -218.5v0z" />
    <glyph glyph-name="zero.sc" horiz-adv-x="392" 
d="M196 -12q-87 0 -129.5 73.5t-42.5 198.5t42.5 198.5t129.5 73.5t129.5 -73.5t42.5 -198.5t-42.5 -198.5t-129.5 -73.5v0zM196 52q46 0 69 49.5t23 158.5t-23 158.5t-69 49.5t-69 -49.5t-23 -158.5t23 -158.5t69 -49.5v0z" />
    <glyph glyph-name="one.sc" horiz-adv-x="392" 
d="M72 364l-32 56l160 100h48v-456h116v-64h-316v64h120v359z" />
    <glyph glyph-name="two.sc" horiz-adv-x="392" 
d="M40 0q2 88 28 135t76 89l48 40q31 25 55.5 52.5t24.5 67.5q0 30 -15.5 56t-58.5 26q-40 0 -60 -27t-22 -75h-72q0 87 44.5 127.5t109.5 40.5q68 0 111 -37t43 -107q0 -62 -32 -99t-80 -77l-48 -40q-35 -29 -49 -53.5t-15 -50.5h220v-68h-308z" />
    <glyph glyph-name="three.sc" horiz-adv-x="392" 
d="M36 152h76q1 -57 24 -78.5t60 -21.5q38 0 61 26t23 70q0 42 -22.5 67t-65.5 25h-32v60h32q37 0 56.5 24.5t19.5 61.5q0 40 -19 63t-53 23t-53 -24t-19 -68h-72q1 78 41.5 115t102.5 37q72 0 110 -41t38 -99q0 -46 -20.5 -77t-43.5 -39v-4q34 -13 57 -44.5t23 -83.5
q0 -72 -46.5 -114t-117.5 -42t-115.5 38.5t-44.5 125.5v0z" />
    <glyph glyph-name="four.sc" horiz-adv-x="392" 
d="M24 124v56l220 340h68v-332h56v-64h-56v-124h-80v124h-208zM101 188h131v205z" />
    <glyph glyph-name="five.sc" horiz-adv-x="392" 
d="M40 136h76q3 -32 21.5 -58t58.5 -26q37 0 58.5 30t21.5 82q0 51 -22 77.5t-58 26.5q-27 0 -45 -14.5t-27 -37.5l-72 4l16 300h264v-68h-200l-8 -156h4q11 16 35 26t49 10q59 0 101.5 -40t42.5 -128q0 -87 -47 -131.5t-113 -44.5q-72 0 -111.5 41t-44.5 107v0z" />
    <glyph glyph-name="six.sc" horiz-adv-x="392" 
d="M208 468q-42 0 -64 -43.5t-24 -148.5q11 26 38 41t62 15q58 0 101 -40.5t43 -127.5q0 -86 -48 -131t-112 -45q-71 0 -118.5 51t-47.5 205q0 159 47 223.5t123 64.5q72 0 107 -39.5t41 -100.5h-76q-3 31 -19 53.5t-53 22.5v0zM204 268q-34 0 -56.5 -26.5t-23.5 -80.5
q0 -49 20 -79t60 -30q35 0 57.5 29t22.5 83q0 51 -21 77.5t-59 26.5v0z" />
    <glyph glyph-name="seven.sc" horiz-adv-x="392" 
d="M104 0l176 448h-244v72h324v-52l-180 -468h-76z" />
    <glyph glyph-name="eight.sc" horiz-adv-x="392" 
d="M48 392q0 58 38 99t110 41t110 -41t38 -99q0 -46 -20.5 -77t-43.5 -39v-4q34 -13 57 -46.5t23 -85.5q0 -66 -43 -109t-121 -43t-121 43t-43 109q0 52 23 85.5t57 46.5v4q-23 8 -43.5 39t-20.5 77v0zM112 146q0 -43 22 -68.5t62 -25.5t62 25.5t22 68.5t-22.5 68.5
t-61.5 25.5t-61.5 -25.5t-22.5 -68.5v0zM124 386q0 -37 19 -61.5t53 -24.5t53 24.5t19 61.5q0 38 -19 62t-53 24t-53 -24t-19 -62v0z" />
    <glyph glyph-name="nine.sc" horiz-adv-x="392" 
d="M184 52q41 0 63 43t25 148q-11 -25 -38 -40t-62 -15q-58 0 -101 40.5t-43 127.5q0 86 48 131t112 45q71 0 118.5 -51t47.5 -205q0 -159 -47 -223.5t-123 -64.5q-72 0 -107 39.5t-41 100.5h76q3 -31 19 -53.5t53 -22.5v0zM188 252q34 0 57 27.5t23 84.5q0 46 -20.5 75
t-59.5 29q-35 0 -57.5 -29t-22.5 -83q0 -51 21 -77.5t59 -26.5v0z" />
    <glyph glyph-name="slashedzero.sc" horiz-adv-x="392" 
d="M196 -12q-87 0 -129.5 73.5t-42.5 198.5t42.5 198.5t129.5 73.5t129.5 -73.5t42.5 -198.5t-42.5 -198.5t-129.5 -73.5v0zM196 52q46 0 69 49.5t23 158.5q0 39 -3 70.5t-9 54.5l-134 -309q10 -13 24 -18.5t30 -5.5v0zM104 260q0 -39 3 -70t8 -54l133 309q-10 11 -23 17
t-29 6q-46 0 -69 -49.5t-23 -158.5v0z" />
    <glyph glyph-name="zero.scppf" horiz-adv-x="416" 
d="M208 -12q-90 0 -131 73.5t-41 198.5t41 198.5t131 73.5t131 -73.5t41 -198.5t-41 -198.5t-131 -73.5v0zM208 52q46 0 68 49.5t22 158.5t-22 158.5t-68 49.5t-68 -49.5t-22 -158.5t22 -158.5t68 -49.5v0z" />
    <glyph glyph-name="one.scppf" horiz-adv-x="264" 
d="M32 364l-32 56l160 100h48v-520h-80v423z" />
    <glyph glyph-name="two.scppf" horiz-adv-x="384" 
d="M40 0q2 88 26 135t74 89l48 40q31 25 55.5 52.5t24.5 67.5q0 30 -15.5 56t-58.5 26q-40 0 -60 -27t-22 -75h-72q0 87 44.5 127.5t109.5 40.5q68 0 111 -37t43 -107q0 -62 -30 -97t-78 -75l-48 -40q-35 -29 -49 -55.5t-15 -52.5h216v-68h-304z" />
    <glyph glyph-name="three.scppf" horiz-adv-x="392" 
d="M32 152h76q1 -57 24 -78.5t60 -21.5q38 0 61 26t23 70q0 42 -22.5 67t-65.5 25h-32v60h32q37 0 56.5 24.5t19.5 61.5q0 40 -19 63t-53 23t-53 -24t-19 -68h-72q1 78 41.5 115t102.5 37q72 0 110 -41t38 -99q0 -46 -20.5 -77t-43.5 -39v-4q34 -13 57 -44.5t23 -83.5
q0 -72 -46.5 -114t-117.5 -42t-115.5 38.5t-44.5 125.5v0z" />
    <glyph glyph-name="four.scppf" horiz-adv-x="384" 
d="M20 124v56l212 340h68v-332h56v-64h-56v-124h-80v124h-200zM97 188h123v203z" />
    <glyph glyph-name="five.scppf" horiz-adv-x="392" 
d="M40 136h76q3 -32 21.5 -58t58.5 -26q37 0 58.5 30t21.5 82q0 51 -22 77.5t-58 26.5q-27 0 -45 -14.5t-27 -37.5l-72 4l16 300h264v-68h-200l-8 -156h4q11 16 35 26t49 10q59 0 101.5 -40t42.5 -128q0 -87 -47 -131.5t-113 -44.5q-72 0 -111.5 41t-44.5 107v0z" />
    <glyph glyph-name="six.scppf" horiz-adv-x="396" 
d="M208 468q-42 0 -64 -43.5t-24 -148.5q11 26 38 41t62 15q58 0 101 -40.5t43 -127.5q0 -86 -48 -131t-112 -45q-71 0 -118.5 51t-47.5 205q0 159 47 223.5t123 64.5q72 0 107 -39.5t41 -100.5h-76q-3 31 -19 53.5t-53 22.5v0zM204 268q-34 0 -56.5 -26.5t-23.5 -80.5
q0 -49 20 -79t60 -30q35 0 57.5 29t22.5 83q0 51 -21 77.5t-59 26.5v0z" />
    <glyph glyph-name="seven.scppf" horiz-adv-x="336" 
d="M72 0l176 448h-244v72h324v-52l-180 -468h-76z" />
    <glyph glyph-name="eight.scppf" horiz-adv-x="392" 
d="M28 140q0 52 25 87t59 45v4q-26 8 -47 39t-21 77q0 58 40 99t112 41t112 -41t40 -99q0 -46 -21 -77t-47 -39v-4q34 -13 59 -46.5t25 -85.5q0 -66 -45 -109t-123 -43t-123 43t-45 109v0zM108 146q0 -43 23.5 -68.5t64.5 -25.5t64.5 25.5t23.5 68.5t-24 68.5t-64 25.5
t-64 -25.5t-24 -68.5v0zM120 386q0 -37 20 -61.5t56 -24.5t56 24.5t20 61.5q0 38 -20 62t-56 24t-56 -24t-20 -62v0z" />
    <glyph glyph-name="nine.scppf" horiz-adv-x="396" 
d="M188 52q41 0 63 43t25 148q-11 -25 -38 -40t-62 -15q-58 0 -101 40.5t-43 127.5q0 86 48 131t112 45q71 0 118.5 -51t47.5 -205q0 -159 -47 -223.5t-123 -64.5q-72 0 -107 39.5t-41 100.5h76q3 -31 19 -53.5t53 -22.5v0zM192 252q34 0 57 27.5t23 84.5q0 46 -20.5 75
t-59.5 29q-35 0 -57.5 -29t-22.5 -83q0 -51 21 -77.5t59 -26.5v0z" />
    <glyph glyph-name="slashedzero.scppf" horiz-adv-x="416" 
d="M208 -12q-90 0 -131 73.5t-41 198.5t41 198.5t131 73.5t131 -73.5t41 -198.5t-41 -198.5t-131 -73.5v0zM118 260q0 -38 3 -69t8 -54l132 306q-10 13 -23.5 19t-29.5 6q-46 0 -68 -49.5t-22 -158.5v0zM208 52q46 0 68 49.5t22 158.5q0 37 -3 67.5t-8 53.5l-132 -306
q10 -12 23.5 -17.5t29.5 -5.5v0z" />
    <glyph glyph-name="zero.TOSF" 
d="M32 244q0 137 56.5 196.5t131.5 59.5t131.5 -59.5t56.5 -196.5t-56.5 -196.5t-131.5 -59.5t-131.5 59.5t-56.5 196.5v0zM112 244q0 -107 34.5 -147.5t73.5 -40.5t73.5 40.5t34.5 147.5t-34.5 147.5t-73.5 40.5t-73.5 -40.5t-34.5 -147.5v0z" />
    <glyph glyph-name="one.TOSF" 
d="M68 296l-36 60l192 132h52v-420h136v-68h-360v68h144v315z" />
    <glyph glyph-name="two.TOSF" 
d="M32 0q0 82 47 136t101 84l44 24q39 21 69.5 46t30.5 62q0 29 -23 54.5t-77 25.5q-55 0 -84 -29t-32 -79h-76q0 84 54 130t138 46q91 0 135.5 -43.5t44.5 -100.5q0 -61 -37 -96.5t-95 -67.5l-44 -24q-47 -26 -73.5 -53t-26.5 -47h272v-68h-368z" />
    <glyph glyph-name="three.TOSF" 
d="M32 8h76q0 -79 29.5 -115.5t78.5 -36.5t78.5 37.5t29.5 98.5q0 62 -29.5 99t-78.5 37h-40v64h40q42 0 69 32.5t27 87.5q0 56 -27 88t-69 32t-69 -31.5t-27 -100.5h-72q0 85 41.5 142.5t126.5 57.5q88 0 130 -58.5t42 -125.5q0 -45 -19.5 -86.5t-60.5 -65.5v-4
q45 -20 70.5 -68t25.5 -108q0 -76 -46 -136t-142 -60t-140 60.5t-44 159.5v0z" />
    <glyph glyph-name="four.TOSF" 
d="M20 0v60l264 428h68v-420h68v-68h-68v-200h-80v200h-252zM96 68h176v281z" />
    <glyph glyph-name="five.TOSF" 
d="M40 -16h76q6 -57 29.5 -92.5t74.5 -35.5q48 0 76 40.5t28 115.5q0 73 -26.5 114.5t-77.5 41.5q-34 0 -58.5 -20.5t-37.5 -55.5l-72 4l16 392h308v-72h-236l-11 -232h3q13 25 41.5 38.5t62.5 13.5q70 0 119 -55t49 -169q0 -110 -55 -167t-129 -57q-86 0 -130 54t-50 142v0
z" />
    <glyph glyph-name="six.TOSF" 
d="M40 328q0 213 52 292.5t140 79.5q84 0 122.5 -51.5t45.5 -132.5h-76q-4 48 -23.5 82t-68.5 34q-55 0 -83 -63.5t-29 -216.5q13 40 45 62t79 22q70 0 117 -55.5t47 -168.5q0 -109 -51.5 -166.5t-128.5 -57.5q-80 0 -134 66.5t-54 273.5v0zM228 368q-45 0 -72.5 -40
t-27.5 -120q0 -66 24 -109t76 -43q46 0 73 40t27 116q0 74 -24.5 115t-75.5 41v0z" />
    <glyph glyph-name="seven.TOSF" 
d="M112 -200l212 616h-284v72h364v-60l-212 -628h-80z" />
    <glyph glyph-name="eight.TOSF" 
d="M32 184q0 60 25.5 108t70.5 69v4q-41 23 -60.5 64.5t-19.5 86.5q0 68 42.5 126t129.5 58t129.5 -58t42.5 -126q0 -45 -19.5 -86.5t-60.5 -64.5v-4q45 -21 70.5 -69t25.5 -108q0 -76 -46 -136t-142 -60t-142 60t-46 136v0zM112 192q0 -61 29.5 -98.5t78.5 -37.5t78.5 37.5
t29.5 98.5q0 62 -29.5 99t-78.5 37t-78.5 -37t-29.5 -99v0zM220 392q42 0 69 32.5t27 87.5q0 56 -27 88t-69 32t-69 -32t-27 -88q0 -55 27 -87.5t69 -32.5v0z" />
    <glyph glyph-name="nine.TOSF" 
d="M396 160q0 -213 -52 -292.5t-140 -79.5q-84 0 -122.5 51.5t-45.5 132.5h76q4 -48 23.5 -82t68.5 -34q55 0 82.5 63.5t29.5 215.5q-13 -39 -45 -61t-79 -22q-70 0 -117 55.5t-47 168.5q0 109 51.5 166.5t128.5 57.5q80 0 134 -66.5t54 -273.5v0zM208 120q45 0 72.5 40
t27.5 120q0 66 -24 109t-76 43q-46 0 -73 -40t-27 -116q0 -74 24.5 -115t75.5 -41v0z" />
    <glyph glyph-name="slashedzero.TOSF" 
d="M32 244q0 137 56.5 196.5t131.5 59.5t131.5 -59.5t56.5 -196.5t-56.5 -196.5t-131.5 -59.5t-131.5 59.5t-56.5 196.5v0zM112 244q0 -42 5.5 -72.5t15.5 -52.5l139 295q-12 10 -25.5 14t-26.5 4q-39 0 -73.5 -40.5t-34.5 -147.5v0zM328 244q0 41 -6 72t-16 53l-138 -296
q12 -9 25.5 -13t26.5 -4q39 0 73.5 40.5t34.5 147.5v0z" />
    <glyph glyph-name="zero.oldstyle" horiz-adv-x="448" 
d="M36 244q0 137 56.5 196.5t131.5 59.5t131.5 -59.5t56.5 -196.5t-56.5 -196.5t-131.5 -59.5t-131.5 59.5t-56.5 196.5v0zM116 244q0 -107 34.5 -147.5t73.5 -40.5t73.5 40.5t34.5 147.5t-34.5 147.5t-73.5 40.5t-73.5 -40.5t-34.5 -147.5v0z" />
    <glyph glyph-name="one.oldstyle" horiz-adv-x="280" 
d="M44 332l-36 60l144 96h52v-488h-80v384z" />
    <glyph glyph-name="two.oldstyle" horiz-adv-x="424" 
d="M36 0q0 82 39 136t93 84l44 24q39 21 65.5 46t26.5 62q0 29 -19 54.5t-69 25.5q-51 0 -76 -27.5t-28 -80.5h-76q0 87 50 131.5t130 44.5q87 0 127.5 -43.5t40.5 -100.5q0 -61 -33 -96.5t-91 -67.5l-44 -24q-47 -26 -67.5 -53t-20.5 -47h252v-68h-344z" />
    <glyph glyph-name="three.oldstyle" horiz-adv-x="428" 
d="M20 8h76q0 -79 31.5 -115.5t80.5 -36.5q52 0 82 37.5t30 98.5q0 62 -31.5 99t-80.5 37h-40v64h40q45 0 72.5 32.5t27.5 87.5q0 56 -27.5 88t-72.5 32q-42 0 -71 -30t-29 -102h-72q0 85 43.5 142.5t128.5 57.5q91 0 133.5 -58t42.5 -124q0 -46 -19.5 -88t-60.5 -65v-4
q45 -21 70.5 -69t25.5 -108q0 -77 -46.5 -136.5t-145.5 -59.5q-96 0 -142 60.5t-46 159.5v0z" />
    <glyph glyph-name="four.oldstyle" horiz-adv-x="428" 
d="M16 0v60l252 428h68v-420h72v-68h-72v-200h-80v200h-240zM95 68h161v272z" />
    <glyph glyph-name="five.oldstyle" 
d="M36 -16h76q6 -57 31.5 -92.5t76.5 -35.5q48 0 78 40.5t30 115.5q0 73 -28.5 114.5t-79.5 41.5q-34 0 -60.5 -20.5t-39.5 -55.5l-72 4l16 392h316v-72h-244l-11 -228h3q13 22 43.5 35t64.5 13q70 0 121 -55t51 -169q0 -110 -57 -167t-131 -57q-86 0 -132 54t-52 142v0z
" />
    <glyph glyph-name="six.oldstyle" 
d="M36 328q0 213 54 292.5t142 79.5q84 0 124.5 -51.5t47.5 -132.5h-76q-4 48 -25.5 82t-70.5 34q-55 0 -84.5 -63.5t-31.5 -216.5q13 40 47 62t81 22q70 0 119 -55.5t49 -168.5q0 -109 -53.5 -166.5t-130.5 -57.5q-80 0 -136 66.5t-56 273.5v0zM228 368q-45 0 -74.5 -40
t-29.5 -120q0 -66 26 -109t78 -43q46 0 75 40t29 116q0 74 -26.5 115t-77.5 41v0z" />
    <glyph glyph-name="seven.oldstyle" horiz-adv-x="368" 
d="M64 -200l208 616h-256v72h336v-60l-212 -628h-76z" />
    <glyph glyph-name="eight.oldstyle" 
d="M28 184q0 60 25.5 108t70.5 69v4q-41 23 -60.5 64.5t-19.5 86.5q0 68 43 126t133 58t133 -58t43 -126q0 -45 -19.5 -86.5t-60.5 -64.5v-4q45 -21 70.5 -69t25.5 -108q0 -76 -46.5 -136t-145.5 -60t-145.5 60t-46.5 136v0zM108 192q0 -61 30 -98.5t82 -37.5t82 37.5
t30 98.5q0 62 -30.5 99t-81.5 37t-81.5 -37t-30.5 -99v0zM220 392q45 0 72.5 32.5t27.5 87.5q0 56 -27.5 88t-72.5 32t-72.5 -32t-27.5 -88q0 -55 27.5 -87.5t72.5 -32.5v0z" />
    <glyph glyph-name="nine.oldstyle" 
d="M400 160q0 -213 -54 -292.5t-142 -79.5q-84 0 -124.5 51.5t-47.5 132.5h76q4 -48 25.5 -82t70.5 -34q55 0 84.5 63.5t31.5 215.5q-13 -39 -49 -61t-83 -22q-70 0 -117 55.5t-47 168.5q0 109 53.5 166.5t130.5 57.5q80 0 136 -66.5t56 -273.5v0zM208 120q45 0 74.5 40
t29.5 120q0 66 -26 109t-78 43q-46 0 -75 -40t-29 -116q0 -74 26.5 -115t77.5 -41v0z" />
    <glyph glyph-name="slashedzero.oldstyle" horiz-adv-x="448" 
d="M36 244q0 137 56.5 196.5t131.5 59.5t131.5 -59.5t56.5 -196.5t-56.5 -196.5t-131.5 -59.5t-131.5 59.5t-56.5 196.5v0zM116 244q0 -42 6 -73t16 -53l140 294q-13 10 -27 15t-27 5q-39 0 -73.5 -40.5t-34.5 -147.5v0zM332 244q0 42 -6 73t-16 53l-141 -295
q13 -10 27 -14.5t28 -4.5q39 0 73.5 40.5t34.5 147.5v0z" />
    <glyph glyph-name="percent" unicode="%" horiz-adv-x="648" 
d="M140 336q-60 0 -93 45t-33 135q0 84 33 132t93 48t93 -45t33 -135q0 -84 -33 -132t-93 -48v0zM140 392q25 0 41.5 26.5t16.5 97.5q0 72 -16.5 98t-41.5 26t-41.5 -26.5t-16.5 -97.5q0 -72 16.5 -98t41.5 -26v0zM148 -12l296 712h56l-296 -712h-56zM508 -8q-60 0 -93 45
t-33 135q0 84 33 132t93 48t93 -45t33 -135q0 -84 -33 -132t-93 -48v0zM508 48q25 0 41.5 26.5t16.5 97.5q0 72 -16.5 98t-41.5 26t-41.5 -26.5t-16.5 -97.5q0 -72 16.5 -98t41.5 -26v0z" />
    <glyph glyph-name="perthousand" unicode="&#x2030;" horiz-adv-x="928" 
d="M140 336q-60 0 -93 45t-33 135q0 84 33 132t93 48t93 -45t33 -135q0 -84 -33 -132t-93 -48v0zM140 392q25 0 41.5 26.5t16.5 97.5q0 72 -16.5 98t-41.5 26t-41.5 -26.5t-16.5 -97.5q0 -72 16.5 -98t41.5 -26v0zM148 -12l296 712h56l-296 -712h-56zM508 -8q-60 0 -93 45
t-33 135q0 84 33 132t93 48t93 -45t33 -135q0 -84 -33 -132t-93 -48v0zM508 48q25 0 41.5 26.5t16.5 97.5q0 72 -16.5 98t-41.5 26t-41.5 -26.5t-16.5 -97.5q0 -72 16.5 -98t41.5 -26v0zM788 -8q-60 0 -93 45t-33 135q0 84 33 132t93 48t93 -45t33 -135q0 -84 -33 -132
t-93 -48v0zM788 48q25 0 41.5 26.5t16.5 97.5q0 72 -16.5 98t-41.5 26t-41.5 -26.5t-16.5 -97.5q0 -72 16.5 -98t41.5 -26v0z" />
    <glyph glyph-name="onehalf" unicode="&#xbd;" horiz-adv-x="648" 
d="M396 0q1 60 18.5 94.5t53.5 61.5l32 24q19 14 35.5 30.5t16.5 41.5q0 15 -9.5 29.5t-34.5 14.5t-36 -18t-12 -50h-64q0 60 31 92t81 32q52 0 82 -26.5t30 -73.5q0 -40 -19.5 -63.5t-52.5 -48.5l-32 -24q-19 -13 -31 -26.5t-13 -29.5h148v-60h-224zM164 -12l296 712h56
l-296 -712h-56zM52 568l-28 48l120 72h40v-284h76v-60h-224v60h80v201z" />
    <glyph glyph-name="uni2153" unicode="&#x2153;" horiz-adv-x="648" 
d="M388 100h66q0 -28 16 -42t38 -14t38 14t16 42q0 27 -16.5 41.5t-41.5 14.5h-20v48h20q25 0 38.5 13t13.5 35t-13 35t-35 13t-35 -13t-13 -35h-60q0 42 28 71t80 29q55 0 83.5 -27.5t28.5 -68.5q0 -30 -12 -48.5t-28 -26.5v-2q19 -8 35.5 -27.5t16.5 -59.5q0 -42 -32 -71
t-92 -29q-57 0 -88.5 28.5t-31.5 79.5v0zM164 -12l296 712h56l-296 -712h-56zM52 568l-28 48l120 72h40v-284h76v-60h-224v60h80v201z" />
    <glyph glyph-name="uni2154" unicode="&#x2154;" horiz-adv-x="648" 
d="M28 344q1 60 18.5 94.5t53.5 61.5l32 24q19 14 35.5 30.5t16.5 41.5q0 15 -9.5 29.5t-34.5 14.5t-36 -18t-12 -50h-64q0 60 31 92t81 32q52 0 82 -26.5t30 -73.5q0 -40 -19.5 -63.5t-52.5 -48.5l-32 -24q-19 -13 -31 -26.5t-13 -29.5h148v-60h-224zM388 100h66
q0 -28 16 -42t38 -14t38 14t16 42q0 27 -16.5 41.5t-41.5 14.5h-20v48h20q25 0 38.5 13t13.5 35t-13 35t-35 13t-35 -13t-13 -35h-60q0 42 28 71t80 29q55 0 83.5 -27.5t28.5 -68.5q0 -30 -12 -48.5t-28 -26.5v-2q19 -8 35.5 -27.5t16.5 -59.5q0 -42 -32 -71t-92 -29
q-57 0 -88.5 28.5t-31.5 79.5v0zM164 -12l296 712h56l-296 -712h-56z" />
    <glyph glyph-name="onequarter" unicode="&#xbc;" horiz-adv-x="648" 
d="M384 68v52l156 224h60v-216h32v-60h-32v-68h-68v68h-148zM184 -12l296 712h56l-296 -712h-56zM52 568l-28 48l120 72h40v-284h76v-60h-224v60h80v201zM446 128h86v123z" />
    <glyph glyph-name="threequarters" unicode="&#xbe;" horiz-adv-x="648" 
d="M384 68v52l156 224h60v-216h32v-60h-32v-68h-68v68h-148zM20 444h66q0 -28 16 -42t38 -14t38 14t16 42q0 27 -16.5 41.5t-41.5 14.5h-20v48h20q25 0 38.5 13t13.5 35t-13 35t-35 13t-35 -13t-13 -35h-60q0 42 28 71t80 29q55 0 83.5 -27.5t28.5 -68.5q0 -30 -12 -48.5
t-28 -26.5v-2q19 -8 35.5 -27.5t16.5 -59.5q0 -42 -32 -71t-92 -29q-57 0 -88.5 28.5t-31.5 79.5v0zM168 -12l296 712h56l-296 -712h-56zM446 128h86v123z" />
    <glyph glyph-name="uni2155" unicode="&#x2155;" horiz-adv-x="648" 
d="M400 92h61q0 -20 12.5 -34t34.5 -14q21 0 34.5 16t13.5 46q0 33 -13 47.5t-35 14.5q-18 0 -29 -10t-15 -24l-60 10l10 200h194v-60h-136l-4 -88h3q9 11 23.5 17.5t33.5 6.5q41 0 68.5 -27t27.5 -81q0 -60 -33 -90t-83 -30q-54 0 -81 29.5t-27 70.5v0zM160 -12l296 712h56
l-296 -712h-56zM52 568l-28 48l120 72h40v-284h76v-60h-224v60h80v201z" />
    <glyph glyph-name="uni2156" unicode="&#x2156;" horiz-adv-x="648" 
d="M400 92h61q0 -20 12.5 -34t34.5 -14q21 0 34.5 16t13.5 46q0 33 -13 47.5t-35 14.5q-18 0 -29 -10t-15 -24l-60 10l10 200h194v-60h-136l-4 -88h3q9 11 23.5 17.5t33.5 6.5q41 0 68.5 -27t27.5 -81q0 -60 -33 -90t-83 -30q-54 0 -81 29.5t-27 70.5v0zM28 344
q1 60 18.5 94.5t53.5 61.5l32 24q19 14 35.5 30.5t16.5 41.5q0 15 -9.5 29.5t-34.5 14.5t-36 -18t-12 -50h-64q0 60 31 92t81 32q52 0 82 -26.5t30 -73.5q0 -40 -19.5 -63.5t-52.5 -48.5l-32 -24q-19 -13 -31 -26.5t-13 -29.5h148v-60h-224zM156 -12l296 712h56l-296 -712
h-56z" />
    <glyph glyph-name="uni2157" unicode="&#x2157;" horiz-adv-x="648" 
d="M400 92h61q0 -20 12.5 -34t34.5 -14q21 0 34.5 16t13.5 46q0 33 -13 47.5t-35 14.5q-18 0 -29 -10t-15 -24l-60 10l10 200h194v-60h-136l-4 -88h3q9 11 23.5 17.5t33.5 6.5q41 0 68.5 -27t27.5 -81q0 -60 -33 -90t-83 -30q-54 0 -81 29.5t-27 70.5v0zM20 444h66
q0 -28 16 -42t38 -14t38 14t16 42q0 27 -16.5 41.5t-41.5 14.5h-20v48h20q25 0 38.5 13t13.5 35t-13 35t-35 13t-35 -13t-13 -35h-60q0 42 28 71t80 29q55 0 83.5 -27.5t28.5 -68.5q0 -30 -12 -48.5t-28 -26.5v-2q19 -8 35.5 -27.5t16.5 -59.5q0 -42 -32 -71t-92 -29
q-57 0 -88.5 28.5t-31.5 79.5v0zM148 -12l296 712h56l-296 -712h-56z" />
    <glyph glyph-name="uni2158" unicode="&#x2158;" horiz-adv-x="648" 
d="M16 412v52l156 224h60v-216h32v-60h-32v-68h-68v68h-148zM400 92h61q0 -20 12.5 -34t34.5 -14q21 0 34.5 16t13.5 46q0 33 -13 47.5t-35 14.5q-18 0 -29 -10t-15 -24l-60 10l10 200h194v-60h-136l-4 -88h3q9 11 23.5 17.5t33.5 6.5q41 0 68.5 -27t27.5 -81q0 -60 -33 -90
t-83 -30q-54 0 -81 29.5t-27 70.5v0zM152 -12l296 712h56l-296 -712h-56zM78 472h86v123z" />
    <glyph glyph-name="uni2159" unicode="&#x2159;" horiz-adv-x="648" 
d="M624 256h-64q0 18 -11 29t-29 11q-26 0 -40 -23t-16 -85h4q8 16 25 24t39 8q41 0 68.5 -27t27.5 -81q0 -60 -33 -90t-83 -30q-54 0 -87 34.5t-33 133.5q0 98 33 145t95 47q51 0 77.5 -25.5t26.5 -70.5v0zM168 -12l296 712h56l-296 -712h-56zM52 568l-28 48l120 72h40
v-284h76v-60h-224v60h80v201zM512 168q-19 0 -33 -14t-15 -48q0 -31 13 -46.5t35 -15.5q20 0 34 14.5t14 47.5t-13 47.5t-35 14.5v0z" />
    <glyph glyph-name="uni215A" unicode="&#x215a;" horiz-adv-x="648" 
d="M624 256h-64q0 18 -11 29t-29 11q-26 0 -40 -23t-16 -85h4q8 16 25 24t39 8q41 0 68.5 -27t27.5 -81q0 -60 -33 -90t-83 -30q-54 0 -87 34.5t-33 133.5q0 98 33 145t95 47q51 0 77.5 -25.5t26.5 -70.5v0zM32 436h61q0 -20 12.5 -34t34.5 -14q21 0 34.5 16t13.5 46
q0 33 -13 47.5t-35 14.5q-18 0 -29 -10t-15 -24l-60 10l10 200h194v-60h-136l-4 -88h3q9 11 23.5 17.5t33.5 6.5q41 0 68.5 -27t27.5 -81q0 -60 -33 -90t-83 -30q-54 0 -81 29.5t-27 70.5v0zM148 -12l296 712h56l-296 -712h-56zM512 168q-19 0 -33 -14t-15 -48
q0 -31 13 -46.5t35 -15.5q20 0 34 14.5t14 47.5t-13 47.5t-35 14.5v0z" />
    <glyph glyph-name="uni215B" unicode="&#x215b;" horiz-adv-x="648" 
d="M384 92q0 40 16.5 59.5t35.5 27.5v2q-16 8 -28 26.5t-12 48.5q0 38 28.5 67t83.5 29t83.5 -29t28.5 -67q0 -30 -12 -48.5t-28 -26.5v-2q19 -8 35.5 -27.5t16.5 -59.5q0 -42 -32 -71t-92 -29t-92 29t-32 71v0zM168 -12l296 712h56l-296 -712h-56zM52 568l-28 48l120 72h40
v-284h76v-60h-224v60h80v201zM454 100q0 -28 16 -42t38 -14t38 14t16 42q0 27 -16 41.5t-38 14.5t-38 -14.5t-16 -41.5v0zM460 252q0 -22 13 -35t35 -13t35 13t13 35t-13 35t-35 13t-35 -13t-13 -35v0z" />
    <glyph glyph-name="uni215C" unicode="&#x215c;" horiz-adv-x="648" 
d="M384 92q0 40 16.5 59.5t35.5 27.5v2q-16 8 -28 26.5t-12 48.5q0 38 28.5 67t83.5 29t83.5 -29t28.5 -67q0 -30 -12 -48.5t-28 -26.5v-2q19 -8 35.5 -27.5t16.5 -59.5q0 -42 -32 -71t-92 -29t-92 29t-32 71v0zM20 444h66q0 -28 16 -42t38 -14t38 14t16 42q0 27 -16.5 41.5
t-41.5 14.5h-20v48h20q25 0 38.5 13t13.5 35t-13 35t-35 13t-35 -13t-13 -35h-60q0 42 28 71t80 29q55 0 83.5 -27.5t28.5 -68.5q0 -30 -12 -48.5t-28 -26.5v-2q19 -8 35.5 -27.5t16.5 -59.5q0 -42 -32 -71t-92 -29q-57 0 -88.5 28.5t-31.5 79.5v0zM148 -12l296 712h56
l-296 -712h-56zM454 100q0 -28 16 -42t38 -14t38 14t16 42q0 27 -16 41.5t-38 14.5t-38 -14.5t-16 -41.5v0zM460 252q0 -22 13 -35t35 -13t35 13t13 35t-13 35t-35 13t-35 -13t-13 -35v0z" />
    <glyph glyph-name="uni215D" unicode="&#x215d;" horiz-adv-x="648" 
d="M384 92q0 40 16.5 59.5t35.5 27.5v2q-16 8 -28 26.5t-12 48.5q0 38 28.5 67t83.5 29t83.5 -29t28.5 -67q0 -30 -12 -48.5t-28 -26.5v-2q19 -8 35.5 -27.5t16.5 -59.5q0 -42 -32 -71t-92 -29t-92 29t-32 71v0zM32 436h61q0 -20 12.5 -34t34.5 -14q21 0 34.5 16t13.5 46
q0 33 -13 47.5t-35 14.5q-18 0 -29 -10t-15 -24l-60 10l10 200h194v-60h-136l-4 -88h3q9 11 23.5 17.5t33.5 6.5q41 0 68.5 -27t27.5 -81q0 -60 -33 -90t-83 -30q-54 0 -81 29.5t-27 70.5v0zM148 -12l296 712h56l-296 -712h-56zM454 100q0 -28 16 -42t38 -14t38 14t16 42
q0 27 -16 41.5t-38 14.5t-38 -14.5t-16 -41.5v0zM460 252q0 -22 13 -35t35 -13t35 13t13 35t-13 35t-35 13t-35 -13t-13 -35v0z" />
    <glyph glyph-name="uni215E" unicode="&#x215e;" horiz-adv-x="648" 
d="M384 92q0 40 16.5 59.5t35.5 27.5v2q-16 8 -28 26.5t-12 48.5q0 38 28.5 67t83.5 29t83.5 -29t28.5 -67q0 -30 -12 -48.5t-28 -26.5v-2q19 -8 35.5 -27.5t16.5 -59.5q0 -42 -32 -71t-92 -29t-92 29t-32 71v0zM128 -12l296 712h56l-296 -712h-56zM68 344l112 280h-156v64
h232v-44l-116 -300h-72zM454 100q0 -28 16 -42t38 -14t38 14t16 42q0 27 -16 41.5t-38 14.5t-38 -14.5t-16 -41.5v0zM460 252q0 -22 13 -35t35 -13t35 13t13 35t-13 35t-35 13t-35 -13t-13 -35v0z" />
    <glyph glyph-name="fraction" unicode="&#x2044;" horiz-adv-x="88" 
d="M-132 -12l296 712h56l-296 -712h-56z" />
    <glyph glyph-name="percent.sc" horiz-adv-x="490" 
d="M106 254q-46 0 -70.5 34t-24.5 102q0 64 24.5 100t70.5 36t70.5 -33.5t24.5 -102.5q0 -63 -24.5 -99.5t-70.5 -36.5v0zM106 300q17 0 28.5 19t11.5 71q0 53 -11.5 71.5t-28.5 18.5t-28.5 -19t-11.5 -71t11.5 -71t28.5 -19v0zM112 -9l220 538h46l-220 -538h-46zM384 -6
q-46 0 -70.5 34t-24.5 102q0 63 24.5 99.5t70.5 36.5t70.5 -33.5t24.5 -102.5q0 -63 -24.5 -99.5t-70.5 -36.5v0zM384 40q17 0 28.5 19t11.5 71q0 53 -11.5 71.5t-28.5 18.5t-28.5 -19t-11.5 -71q0 -53 11.5 -71.5t28.5 -18.5v0z" />
    <glyph glyph-name="perthousand.sc" horiz-adv-x="730" 
d="M106 254q-46 0 -70.5 34t-24.5 102q0 64 24.5 100t70.5 36t70.5 -33.5t24.5 -102.5q0 -63 -24.5 -99.5t-70.5 -36.5v0zM106 300q17 0 28.5 19t11.5 71q0 53 -11.5 71.5t-28.5 18.5t-28.5 -19t-11.5 -71t11.5 -71t28.5 -19v0zM112 -9l220 538h46l-220 -538h-46zM384 -6
q-46 0 -70.5 34t-24.5 102q0 63 24.5 99.5t70.5 36.5t70.5 -33.5t24.5 -102.5q0 -63 -24.5 -99.5t-70.5 -36.5v0zM384 40q17 0 28.5 19t11.5 71q0 53 -11.5 71.5t-28.5 18.5t-28.5 -19t-11.5 -71q0 -53 11.5 -71.5t28.5 -18.5v0zM624 -6q-46 0 -70.5 34t-24.5 102
q0 63 24.5 99.5t70.5 36.5t70.5 -33.5t24.5 -102.5q0 -63 -24.5 -99.5t-70.5 -36.5v0zM624 40q17 0 28.5 19t11.5 71q0 53 -11.5 71.5t-28.5 18.5t-28.5 -19t-11.5 -71q0 -53 11.5 -71.5t28.5 -18.5v0z" />
    <glyph glyph-name="a.inferior" horiz-adv-x="288" 
d="M20 -70q0 45 24 71.5t72 38.5l32 8q19 4 27.5 11t8.5 29q0 34 -11 47t-33 13q-20 0 -33.5 -14.5t-14.5 -49.5h-64q3 60 34.5 88t77.5 28q60 0 86 -28t26 -84v-240h-64v32h-4q-11 -22 -31 -31t-45 -9q-42 0 -65 25.5t-23 64.5v0zM128 -108q21 0 38.5 16.5t17.5 63.5v42
q-3 -4 -8 -6.5t-12 -3.5l-32 -8q-24 -6 -34 -21t-10 -35q0 -22 11.5 -35t28.5 -13v0z" />
    <glyph glyph-name="b.inferior" horiz-adv-x="304" 
d="M36 -152v516h68v-108q0 -16 -1 -42.5t-2 -57.5h3q11 25 28.5 34.5t43.5 9.5q41 0 72.5 -41t31.5 -139q0 -99 -30.5 -139.5t-73.5 -40.5q-25 0 -43.5 9.5t-28.5 34.5h-4v-36h-64zM104 20q0 -72 16 -100t40 -28q25 0 38.5 28t13.5 100t-14.5 100t-37.5 28q-25 0 -40.5 -28
t-15.5 -100v0z" />
    <glyph glyph-name="c.inferior" horiz-adv-x="276" 
d="M24 20q0 96 34.5 138t89.5 42q47 0 75 -28.5t33 -91.5h-60q-4 37 -16.5 52.5t-31.5 15.5q-25 0 -40.5 -28t-15.5 -100t15.5 -100t40.5 -28q19 0 31.5 15.5t16.5 52.5h60q-5 -63 -33 -91.5t-75 -28.5q-55 0 -89.5 42t-34.5 138v0z" />
    <glyph glyph-name="d.inferior" horiz-adv-x="304" 
d="M24 20q0 99 30.5 139.5t73.5 40.5q25 0 43.5 -9.5t28.5 -34.5h3q-2 31 -2.5 57.5t-0.5 42.5v108h68v-516h-64v36h-4q-11 -25 -28.5 -34.5t-43.5 -9.5q-41 0 -72.5 41t-31.5 139v0zM92 20q0 -72 14.5 -100t37.5 -28q25 0 40.5 28t15.5 100t-16 100t-40 28q-25 0 -38.5 -28
t-13.5 -100v0z" />
    <glyph glyph-name="e.inferior" horiz-adv-x="292" 
d="M24 20q0 95 35 137.5t89 42.5q55 0 87.5 -39.5t32.5 -124.5v-24h-176q1 -69 16.5 -94.5t43.5 -25.5q22 0 35.5 15.5t16.5 44.5h60q-3 -54 -34.5 -83t-81.5 -29q-58 0 -91 42t-33 138v0zM148 148q-20 0 -35.5 -20.5t-19.5 -71.5h106q-2 50 -15 71t-36 21v0z" />
    <glyph glyph-name="f.inferior" horiz-adv-x="188" 
d="M56 -152v292h-52v52h52v68q0 54 22.5 79t73.5 25h36v-52h-24q-22 0 -31 -12.5t-9 -43.5v-64h56v-52h-56v-292h-68z" />
    <glyph glyph-name="g.inferior" horiz-adv-x="304" 
d="M28 -200h60q1 -31 17.5 -47.5t38.5 -16.5q28 0 44 17.5t16 62.5v68h-4q-11 -25 -28.5 -34.5t-43.5 -9.5q-41 0 -72.5 41t-31.5 139q0 99 30.5 139.5t73.5 40.5q25 0 43.5 -9.5t28.5 -34.5h4v36h64v-364q0 -80 -32.5 -110t-91.5 -30q-52 0 -83.5 27.5t-32.5 84.5v0zM92 20
q0 -72 14.5 -100t37.5 -28q25 0 40.5 28t15.5 100v14q-1 64 -17.5 89t-38.5 25q-25 0 -38.5 -28t-13.5 -100v0z" />
    <glyph glyph-name="h.inferior" horiz-adv-x="308" 
d="M36 -152v516h68v-108q0 -16 -1 -42.5t-2 -57.5h3q11 23 31 33.5t45 10.5q38 0 65 -23.5t27 -80.5v-248h-68v232q0 39 -13 51.5t-31 12.5q-22 0 -39 -18.5t-17 -57.5v-220h-68z" />
    <glyph glyph-name="i.inferior" horiz-adv-x="140" 
d="M32 292v72h72v-72h-72zM36 -152v344h68v-344h-68z" />
    <glyph glyph-name="j.inferior" horiz-adv-x="140" 
d="M32 292v72h72v-72h-72zM36 -204v396h68v-408q0 -41 -19.5 -66.5t-72.5 -25.5h-24v56h16q17 0 24.5 11.5t7.5 36.5v0z" />
    <glyph glyph-name="k.inferior" horiz-adv-x="280" 
d="M36 -152v516h68v-312l96 140h68l-96 -139l108 -205h-76l-73 146l-27 -40v-106h-68z" />
    <glyph glyph-name="l.inferior" horiz-adv-x="140" 
d="M36 -152v516h68v-516h-68z" />
    <glyph glyph-name="m.inferior" horiz-adv-x="468" 
d="M36 -152v344h64v-36h4q11 23 30 33.5t44 10.5q28 0 49.5 -12t31.5 -40q15 28 35.5 40t47.5 12q38 0 64 -23.5t26 -80.5v-248h-68v232q0 39 -12.5 51.5t-31.5 12.5q-20 0 -36 -17.5t-16 -56.5v-222h-68v232q0 39 -12.5 51.5t-31.5 12.5q-20 0 -36 -17.5t-16 -56.5v-222
h-68z" />
    <glyph glyph-name="n.inferior" horiz-adv-x="308" 
d="M36 -152v344h64v-36h4q11 23 31 33.5t45 10.5q38 0 65 -23.5t27 -80.5v-248h-68v232q0 39 -13 51.5t-31 12.5q-22 0 -39 -18t-17 -58v-220h-68z" />
    <glyph glyph-name="o.inferior" horiz-adv-x="296" 
d="M24 20q0 96 34.5 138t89.5 42t89.5 -42t34.5 -138t-34.5 -138t-89.5 -42t-89.5 42t-34.5 138v0zM92 20q0 -72 15.5 -100t40.5 -28t40.5 28t15.5 100t-15.5 100t-40.5 28t-40.5 -28t-15.5 -100v0z" />
    <glyph glyph-name="p.inferior" horiz-adv-x="304" 
d="M104 -216v-92h-68v500h64v-36h4q11 25 28.5 34.5t43.5 9.5q41 0 72.5 -41t31.5 -139q0 -99 -30.5 -139.5t-73.5 -40.5q-25 0 -43.5 9.5t-28.5 34.5h-3q1 -31 2 -57.5t1 -42.5v0zM212 20q0 72 -14.5 100t-37.5 28q-25 0 -40 -25.5t-16 -88.5v-14q0 -72 16 -100t40 -28
q25 0 38.5 28t13.5 100v0z" />
    <glyph glyph-name="q.inferior" horiz-adv-x="304" 
d="M200 -216q0 16 0.5 42.5t2.5 57.5h-3q-11 -25 -28.5 -34.5t-43.5 -9.5q-41 0 -72.5 41t-31.5 139q0 99 30.5 139.5t73.5 40.5q25 0 43.5 -9.5t28.5 -34.5h4v36h64v-500h-68v92zM92 20q0 -72 14.5 -100t37.5 -28q24 0 39.5 25.5t16.5 88.5v28q-1 64 -17.5 89t-38.5 25
q-25 0 -38.5 -28t-13.5 -100v0z" />
    <glyph glyph-name="r.inferior" horiz-adv-x="204" 
d="M36 -152v344h64v-40h2q10 26 26.5 37t35.5 11q9 0 19 -3t17 -9l-12 -58q-8 5 -16.5 7.5t-15.5 2.5q-26 0 -39 -19.5t-13 -61.5v-211h-68z" />
    <glyph glyph-name="s.inferior" horiz-adv-x="268" 
d="M20 -52h60q1 -31 15.5 -45.5t36.5 -14.5q20 0 34 13.5t14 38.5q0 22 -11.5 32t-28.5 16l-44 16q-28 10 -51 32t-23 64q0 45 29.5 72.5t80.5 27.5q48 0 78 -25t30 -75h-60q-3 27 -15 39.5t-33 12.5q-19 0 -31.5 -11.5t-12.5 -32.5t12 -31.5t28 -16.5l44 -16
q27 -10 51.5 -30t24.5 -66q0 -53 -33.5 -80.5t-82.5 -27.5q-53 0 -81 28t-31 80v0z" />
    <glyph glyph-name="t.inferior" horiz-adv-x="192" 
d="M52 -64v204h-48v52h48v104h68v-104h56v-52h-56v-196q0 -27 7.5 -35.5t28.5 -8.5h20v-52h-32q-51 0 -71.5 20t-20.5 68v0z" />
    <glyph glyph-name="u.inferior" horiz-adv-x="304" 
d="M36 -56v248h68v-232q0 -39 12.5 -51.5t31.5 -12.5q21 0 36.5 18.5t15.5 57.5v220h68v-344h-64v36h-3q-11 -23 -30.5 -33.5t-44.5 -10.5q-38 0 -64 23.5t-26 80.5v0z" />
    <glyph glyph-name="v.inferior" horiz-adv-x="272" 
d="M96 -152l-88 344h72l58 -277l58 277h68l-88 -344h-80z" />
    <glyph glyph-name="w.inferior" horiz-adv-x="404" 
d="M76 -152l-68 344h68l46 -264l46 264h72l46 -264l46 264h64l-68 -344h-80l-46 263l-46 -263h-80z" />
    <glyph glyph-name="x.inferior" horiz-adv-x="260" 
d="M8 -152l87 174l-83 170h72l47 -109l49 109h68l-83 -166l87 -178h-72l-52 117l-52 -117h-68z" />
    <glyph glyph-name="y.inferior" horiz-adv-x="272" 
d="M36 -252h16q19 0 34 8t22 40l-100 396h72l58 -279l58 279h68l-104 -412q-11 -43 -32 -65.5t-64 -22.5h-28v56z" />
    <glyph glyph-name="z.inferior" horiz-adv-x="244" 
d="M16 140v52h208v-44l-133 -248h137v-52h-212v36l137 256h-137z" />
    <glyph glyph-name="uni2080" unicode="&#x2080;" horiz-adv-x="280" 
d="M140 -160q-60 0 -93 45t-33 135q0 84 33 132t93 48t93 -45t33 -135q0 -84 -33 -132t-93 -48v0zM140 -104q25 0 41.5 26.5t16.5 97.5q0 72 -16.5 98t-41.5 26t-41.5 -26.5t-16.5 -97.5q0 -72 16.5 -98t41.5 -26v0z" />
    <glyph glyph-name="uni2081" unicode="&#x2081;" horiz-adv-x="280" 
d="M52 72l-28 48l120 72h40v-284h76v-60h-224v60h80v201z" />
    <glyph glyph-name="uni2082" unicode="&#x2082;" horiz-adv-x="280" 
d="M28 -152q1 60 18.5 94.5t53.5 61.5l32 24q19 14 35.5 30.5t16.5 41.5q0 15 -9.5 29.5t-34.5 14.5t-36 -18t-12 -50h-64q0 60 31 92t81 32q52 0 82 -26.5t30 -73.5q0 -40 -19.5 -63.5t-52.5 -48.5l-32 -24q-19 -13 -31 -26.5t-13 -29.5h148v-60h-224z" />
    <glyph glyph-name="uni2083" unicode="&#x2083;" horiz-adv-x="280" 
d="M20 -52h66q0 -28 16 -42t38 -14t38 14t16 42q0 27 -16.5 41.5t-41.5 14.5h-20v48h20q25 0 38.5 13t13.5 35t-13 35t-35 13t-35 -13t-13 -35h-60q0 42 28 71t80 29q55 0 83.5 -27.5t28.5 -68.5q0 -30 -12 -48.5t-28 -26.5v-2q19 -8 35.5 -27.5t16.5 -59.5q0 -42 -32 -71
t-92 -29q-57 0 -88.5 28.5t-31.5 79.5v0z" />
    <glyph glyph-name="uni2084" unicode="&#x2084;" horiz-adv-x="280" 
d="M16 -84v52l156 224h60v-216h32v-60h-32v-68h-68v68h-148zM78 -24h86v123z" />
    <glyph glyph-name="uni2085" unicode="&#x2085;" horiz-adv-x="280" 
d="M32 -60h61q0 -20 12.5 -34t34.5 -14q21 0 34.5 16t13.5 46q0 33 -13 47.5t-35 14.5q-18 0 -29 -10t-15 -24l-60 10l10 200h194v-60h-136l-4 -88h3q9 11 23.5 17.5t33.5 6.5q41 0 68.5 -27t27.5 -81q0 -60 -33 -90t-83 -30q-54 0 -81 29.5t-27 70.5v0z" />
    <glyph glyph-name="uni2086" unicode="&#x2086;" horiz-adv-x="280" 
d="M256 104h-64q0 18 -11 29t-29 11q-26 0 -40 -23t-16 -85h4q8 16 25 24t39 8q41 0 68.5 -27t27.5 -81q0 -60 -33 -90t-83 -30q-54 0 -87 34.5t-33 133.5q0 98 33 145t95 47q51 0 77.5 -25.5t26.5 -70.5v0zM144 16q-19 0 -33 -14t-15 -48q0 -31 13 -46.5t35 -15.5
q20 0 34 14.5t14 47.5t-13 47.5t-35 14.5v0z" />
    <glyph glyph-name="uni2087" unicode="&#x2087;" horiz-adv-x="280" 
d="M68 -152l112 280h-156v64h232v-44l-116 -300h-72z" />
    <glyph glyph-name="uni2088" unicode="&#x2088;" horiz-adv-x="280" 
d="M16 -60q0 40 16.5 59.5t35.5 27.5v2q-16 8 -28 26.5t-12 48.5q0 38 28.5 67t83.5 29t83.5 -29t28.5 -67q0 -30 -12 -48.5t-28 -26.5v-2q19 -8 35.5 -27.5t16.5 -59.5q0 -42 -32 -71t-92 -29t-92 29t-32 71v0zM86 -52q0 -28 16 -42t38 -14t38 14t16 42q0 27 -16 41.5
t-38 14.5t-38 -14.5t-16 -41.5v0zM92 100q0 -22 13 -35t35 -13t35 13t13 35t-13 35t-35 13t-35 -13t-13 -35v0z" />
    <glyph glyph-name="uni2089" unicode="&#x2089;" horiz-adv-x="280" 
d="M24 -64h64q0 -18 13 -29t31 -11q26 0 38.5 22.5t13.5 85.5h-4q-8 -16 -25 -24t-39 -8q-41 0 -68.5 27t-27.5 81q0 60 33 90t83 30q54 0 87 -34.5t33 -133.5q0 -98 -31 -145t-93 -47q-51 0 -79.5 25.5t-28.5 70.5v0zM136 24q19 0 33 14t15 48q0 31 -13 46.5t-35 15.5
q-20 0 -34 -14.5t-14 -47.5t13 -47.5t35 -14.5v0z" />
    <glyph glyph-name="dollar.inferior" horiz-adv-x="280" 
d="M24 -52h68q1 -26 13.5 -39t34.5 -13t33 13t11 31q0 57 -80 57.5t-80 98.5q0 37 24 65.5t64 35.5v71h52v-70q39 -7 63 -32t25 -62h-68q-1 22 -14.5 31t-29.5 9q-22 0 -34 -10.5t-12 -29.5q0 -54 81 -56.5t81 -99.5q0 -39 -25.5 -68.5t-66.5 -36.5v-71h-52v70
q-43 6 -65 34.5t-23 71.5v0z" />
    <glyph glyph-name="cent.inferior" horiz-adv-x="280" 
d="M28 20q0 57 26 89t66 40v51h52v-50q32 -6 54 -28.5t26 -61.5h-64q-2 20 -14 28t-26 8q-19 0 -33.5 -15t-14.5 -61t14.5 -61t33.5 -15q14 0 26 8t14 28h64q-4 -40 -26 -62.5t-54 -27.5v-50h-52v51q-40 7 -66 39.5t-26 89.5v0z" />
    <glyph glyph-name="euro.inferior" horiz-adv-x="280" 
d="M12 -28l8 32h28v32h-32l8 32h26q7 64 37 98t81 34q44 0 68.5 -26t27.5 -74h-64q0 18 -9.5 29t-22.5 11q-20 0 -31 -15.5t-15 -56.5h82l-8 -32h-76v-32h72l-8 -32h-62q4 -41 15 -56.5t31 -15.5q13 0 22.5 11t9.5 29h64q-3 -48 -29.5 -74t-70.5 -26q-51 0 -79 34t-35 98
h-38z" />
    <glyph glyph-name="plus.inferior" horiz-adv-x="280" 
d="M28 -4v52h84v84h56v-84h84v-52h-84v-84h-56v84h-84z" />
    <glyph glyph-name="minus.inferior" horiz-adv-x="280" 
d="M28 -4v52h224v-52h-224z" />
    <glyph glyph-name="equal.inferior" horiz-adv-x="280" 
d="M28 48v52h224v-52h-224zM28 -60v52h224v-52h-224z" />
    <glyph glyph-name="comma.inferior" horiz-adv-x="156" 
d="M36 -152v88h84v-84l-30 -116h-38l20 112h-36z" />
    <glyph glyph-name="period.inferior" horiz-adv-x="156" 
d="M36 -152v88h84v-88h-84z" />
    <glyph glyph-name="hyphen.inferior" horiz-adv-x="196" 
d="M24 -8v60h148v-60h-148z" />
    <glyph glyph-name="parenleft.inferior" horiz-adv-x="172" 
d="M104 -224q-20 34 -40 99t-20 145t20 145t40 99h64q-15 -28 -37.5 -96t-22.5 -148t22.5 -148t37.5 -96h-64z" />
    <glyph glyph-name="parenright.inferior" horiz-adv-x="172" 
d="M4 -224q15 28 37.5 96t22.5 148t-22.5 148t-37.5 96h64q20 -34 40 -99t20 -145t-20 -145t-40 -99h-64z" />
    <glyph glyph-name="a.denominator" horiz-adv-x="288" 
d="M20 82q0 45 24 71.5t72 38.5l32 8q19 4 27.5 11t8.5 29q0 34 -11 47t-33 13q-20 0 -33.5 -14.5t-14.5 -49.5h-64q3 60 34.5 88t77.5 28q60 0 86 -28t26 -84v-240h-64v32h-4q-11 -22 -31 -31t-45 -9q-42 0 -65 25.5t-23 64.5v0zM128 44q21 0 38.5 16.5t17.5 63.5v42
q-3 -4 -8 -6.5t-12 -3.5l-32 -8q-24 -6 -34 -21t-10 -35q0 -22 11.5 -35t28.5 -13v0z" />
    <glyph glyph-name="b.denominator" horiz-adv-x="304" 
d="M36 0v516h68v-108q0 -16 -1 -42.5t-2 -57.5h3q11 25 28.5 34.5t43.5 9.5q41 0 72.5 -41t31.5 -139q0 -99 -30.5 -139.5t-73.5 -40.5q-25 0 -43.5 9.5t-28.5 34.5h-4v-36h-64zM104 172q0 -72 16 -100t40 -28q25 0 38.5 28t13.5 100t-14.5 100t-37.5 28q-25 0 -40.5 -28
t-15.5 -100v0z" />
    <glyph glyph-name="c.denominator" horiz-adv-x="276" 
d="M24 172q0 96 34.5 138t89.5 42q47 0 75 -28.5t33 -91.5h-60q-4 37 -16.5 52.5t-31.5 15.5q-25 0 -40.5 -28t-15.5 -100t15.5 -100t40.5 -28q19 0 31.5 15.5t16.5 52.5h60q-5 -63 -33 -91.5t-75 -28.5q-55 0 -89.5 42t-34.5 138v0z" />
    <glyph glyph-name="d.denominator" horiz-adv-x="304" 
d="M24 172q0 99 30.5 139.5t73.5 40.5q25 0 43.5 -9.5t28.5 -34.5h3q-2 31 -2.5 57.5t-0.5 42.5v108h68v-516h-64v36h-4q-11 -25 -28.5 -34.5t-43.5 -9.5q-41 0 -72.5 41t-31.5 139v0zM92 172q0 -72 14.5 -100t37.5 -28q25 0 40.5 28t15.5 100t-16 100t-40 28
q-25 0 -38.5 -28t-13.5 -100v0z" />
    <glyph glyph-name="e.denominator" horiz-adv-x="292" 
d="M24 172q0 95 35 137.5t89 42.5q55 0 87.5 -39.5t32.5 -124.5v-24h-176q1 -69 16.5 -94.5t43.5 -25.5q22 0 35.5 15.5t16.5 44.5h60q-3 -54 -34.5 -83t-81.5 -29q-58 0 -91 42t-33 138v0zM148 300q-20 0 -35.5 -20.5t-19.5 -71.5h106q-2 50 -15 71t-36 21v0z" />
    <glyph glyph-name="f.denominator" horiz-adv-x="188" 
d="M56 0v292h-52v52h52v68q0 54 22.5 79t73.5 25h36v-52h-24q-22 0 -31 -12.5t-9 -43.5v-64h56v-52h-56v-292h-68z" />
    <glyph glyph-name="g.denominator" horiz-adv-x="304" 
d="M28 -48h60q1 -31 17.5 -47.5t38.5 -16.5q28 0 44 17.5t16 62.5v68h-4q-11 -25 -28.5 -34.5t-43.5 -9.5q-41 0 -72.5 41t-31.5 139q0 99 30.5 139.5t73.5 40.5q25 0 43.5 -9.5t28.5 -34.5h4v36h64v-364q0 -80 -32.5 -110t-91.5 -30q-52 0 -83.5 27.5t-32.5 84.5v0zM92 172
q0 -72 14.5 -100t37.5 -28q25 0 40.5 28t15.5 100v14q-1 64 -17.5 89t-38.5 25q-25 0 -38.5 -28t-13.5 -100v0z" />
    <glyph glyph-name="h.denominator" horiz-adv-x="308" 
d="M36 0v516h68v-108q0 -16 -1 -42.5t-2 -57.5h3q11 23 31 33.5t45 10.5q38 0 65 -23.5t27 -80.5v-248h-68v232q0 39 -13 51.5t-31 12.5q-22 0 -39 -18.5t-17 -57.5v-220h-68z" />
    <glyph glyph-name="i.denominator" horiz-adv-x="140" 
d="M32 444v72h72v-72h-72zM36 0v344h68v-344h-68z" />
    <glyph glyph-name="j.denominator" horiz-adv-x="140" 
d="M32 444v72h72v-72h-72zM36 -52v396h68v-408q0 -41 -19.5 -66.5t-72.5 -25.5h-24v56h16q17 0 24.5 11.5t7.5 36.5v0z" />
    <glyph glyph-name="k.denominator" horiz-adv-x="280" 
d="M36 0v516h68v-312l96 140h68l-96 -139l108 -205h-76l-73 146l-27 -40v-106h-68z" />
    <glyph glyph-name="l.denominator" horiz-adv-x="140" 
d="M36 0v516h68v-516h-68z" />
    <glyph glyph-name="m.denominator" horiz-adv-x="468" 
d="M36 0v344h64v-36h4q11 23 30 33.5t44 10.5q28 0 49.5 -12t31.5 -40q15 28 35.5 40t47.5 12q38 0 64 -23.5t26 -80.5v-248h-68v232q0 39 -12.5 51.5t-31.5 12.5q-20 0 -36 -17.5t-16 -56.5v-222h-68v232q0 39 -12.5 51.5t-31.5 12.5q-20 0 -36 -17.5t-16 -56.5v-222h-68z
" />
    <glyph glyph-name="n.denominator" horiz-adv-x="308" 
d="M36 0v344h64v-36h4q11 23 31 33.5t45 10.5q38 0 65 -23.5t27 -80.5v-248h-68v232q0 39 -13 51.5t-31 12.5q-22 0 -39 -18t-17 -58v-220h-68z" />
    <glyph glyph-name="o.denominator" horiz-adv-x="296" 
d="M24 172q0 96 34.5 138t89.5 42t89.5 -42t34.5 -138t-34.5 -138t-89.5 -42t-89.5 42t-34.5 138v0zM92 172q0 -72 15.5 -100t40.5 -28t40.5 28t15.5 100t-15.5 100t-40.5 28t-40.5 -28t-15.5 -100v0z" />
    <glyph glyph-name="p.denominator" horiz-adv-x="304" 
d="M104 -64v-92h-68v500h64v-36h4q11 25 28.5 34.5t43.5 9.5q41 0 72.5 -41t31.5 -139q0 -99 -30.5 -139.5t-73.5 -40.5q-25 0 -43.5 9.5t-28.5 34.5h-3q1 -31 2 -57.5t1 -42.5v0zM212 172q0 72 -14.5 100t-37.5 28q-25 0 -40 -25.5t-16 -88.5v-14q0 -72 16 -100t40 -28
q25 0 38.5 28t13.5 100v0z" />
    <glyph glyph-name="q.denominator" horiz-adv-x="304" 
d="M200 -64q0 16 0.5 42.5t2.5 57.5h-3q-11 -25 -28.5 -34.5t-43.5 -9.5q-41 0 -72.5 41t-31.5 139q0 99 30.5 139.5t73.5 40.5q25 0 43.5 -9.5t28.5 -34.5h4v36h64v-500h-68v92zM92 172q0 -72 14.5 -100t37.5 -28q24 0 39.5 25.5t16.5 88.5v28q-1 64 -17.5 89t-38.5 25
q-25 0 -38.5 -28t-13.5 -100v0z" />
    <glyph glyph-name="r.denominator" horiz-adv-x="204" 
d="M36 0v344h64v-40h2q10 26 26.5 37t35.5 11q9 0 19 -3t17 -9l-12 -58q-8 5 -16.5 7.5t-15.5 2.5q-26 0 -39 -19.5t-13 -61.5v-211h-68z" />
    <glyph glyph-name="s.denominator" horiz-adv-x="268" 
d="M20 100h60q1 -31 15.5 -45.5t36.5 -14.5q20 0 34 13.5t14 38.5q0 22 -11.5 32t-28.5 16l-44 16q-28 10 -51 32t-23 64q0 45 29.5 72.5t80.5 27.5q48 0 78 -25t30 -75h-60q-3 27 -15 39.5t-33 12.5q-19 0 -31.5 -11.5t-12.5 -32.5t12 -31.5t28 -16.5l44 -16
q27 -10 51.5 -30t24.5 -66q0 -53 -33.5 -80.5t-82.5 -27.5q-53 0 -81 28t-31 80v0z" />
    <glyph glyph-name="t.denominator" horiz-adv-x="192" 
d="M52 88v204h-48v52h48v104h68v-104h56v-52h-56v-196q0 -27 7.5 -35.5t28.5 -8.5h20v-52h-32q-51 0 -71.5 20t-20.5 68v0z" />
    <glyph glyph-name="u.denominator" horiz-adv-x="304" 
d="M36 96v248h68v-232q0 -39 12.5 -51.5t31.5 -12.5q21 0 36.5 18.5t15.5 57.5v220h68v-344h-64v36h-3q-11 -23 -30.5 -33.5t-44.5 -10.5q-38 0 -64 23.5t-26 80.5v0z" />
    <glyph glyph-name="v.denominator" horiz-adv-x="272" 
d="M96 0l-88 344h72l58 -277l58 277h68l-88 -344h-80z" />
    <glyph glyph-name="w.denominator" horiz-adv-x="404" 
d="M76 0l-68 344h68l46 -264l46 264h72l46 -264l46 264h64l-68 -344h-80l-46 263l-46 -263h-80z" />
    <glyph glyph-name="x.denominator" horiz-adv-x="260" 
d="M8 0l87 174l-83 170h72l47 -109l49 109h68l-83 -166l87 -178h-72l-52 117l-52 -117h-68z" />
    <glyph glyph-name="y.denominator" horiz-adv-x="272" 
d="M36 -100h16q19 0 34 8t22 40l-100 396h72l58 -279l58 279h68l-104 -412q-11 -43 -32 -65.5t-64 -22.5h-28v56z" />
    <glyph glyph-name="z.denominator" horiz-adv-x="244" 
d="M16 292v52h208v-44l-133 -248h137v-52h-212v36l137 256h-137z" />
    <glyph glyph-name="zero.denominator" horiz-adv-x="280" 
d="M140 -8q-60 0 -93 45t-33 135q0 84 33 132t93 48t93 -45t33 -135q0 -84 -33 -132t-93 -48v0zM140 48q25 0 41.5 26.5t16.5 97.5q0 72 -16.5 98t-41.5 26t-41.5 -26.5t-16.5 -97.5q0 -72 16.5 -98t41.5 -26v0z" />
    <glyph glyph-name="one.denominator" horiz-adv-x="280" 
d="M52 224l-28 48l120 72h40v-284h76v-60h-224v60h80v201z" />
    <glyph glyph-name="two.denominator" horiz-adv-x="280" 
d="M28 0q1 60 18.5 94.5t53.5 61.5l32 24q19 14 35.5 30.5t16.5 41.5q0 15 -9.5 29.5t-34.5 14.5t-36 -18t-12 -50h-64q0 60 31 92t81 32q52 0 82 -26.5t30 -73.5q0 -40 -19.5 -63.5t-52.5 -48.5l-32 -24q-19 -13 -31 -26.5t-13 -29.5h148v-60h-224z" />
    <glyph glyph-name="three.denominator" horiz-adv-x="280" 
d="M20 100h66q0 -28 16 -42t38 -14t38 14t16 42q0 27 -16.5 41.5t-41.5 14.5h-20v48h20q25 0 38.5 13t13.5 35t-13 35t-35 13t-35 -13t-13 -35h-60q0 42 28 71t80 29q55 0 83.5 -27.5t28.5 -68.5q0 -30 -12 -48.5t-28 -26.5v-2q19 -8 35.5 -27.5t16.5 -59.5q0 -42 -32 -71
t-92 -29q-57 0 -88.5 28.5t-31.5 79.5v0z" />
    <glyph glyph-name="four.denominator" horiz-adv-x="280" 
d="M16 68v52l156 224h60v-216h32v-60h-32v-68h-68v68h-148zM78 128h86v123z" />
    <glyph glyph-name="five.denominator" horiz-adv-x="280" 
d="M32 92h61q0 -20 12.5 -34t34.5 -14q21 0 34.5 16t13.5 46q0 33 -13 47.5t-35 14.5q-18 0 -29 -10t-15 -24l-60 10l10 200h194v-60h-136l-4 -88h3q9 11 23.5 17.5t33.5 6.5q41 0 68.5 -27t27.5 -81q0 -60 -33 -90t-83 -30q-54 0 -81 29.5t-27 70.5v0z" />
    <glyph glyph-name="six.denominator" horiz-adv-x="280" 
d="M256 256h-64q0 18 -11 29t-29 11q-26 0 -40 -23t-16 -85h4q8 16 25 24t39 8q41 0 68.5 -27t27.5 -81q0 -60 -33 -90t-83 -30q-54 0 -87 34.5t-33 133.5q0 98 33 145t95 47q51 0 77.5 -25.5t26.5 -70.5v0zM144 168q-19 0 -33 -14t-15 -48q0 -31 13 -46.5t35 -15.5
q20 0 34 14.5t14 47.5t-13 47.5t-35 14.5v0z" />
    <glyph glyph-name="seven.denominator" horiz-adv-x="280" 
d="M68 0l112 280h-156v64h232v-44l-116 -300h-72z" />
    <glyph glyph-name="eight.denominator" horiz-adv-x="280" 
d="M16 92q0 40 16.5 59.5t35.5 27.5v2q-16 8 -28 26.5t-12 48.5q0 38 28.5 67t83.5 29t83.5 -29t28.5 -67q0 -30 -12 -48.5t-28 -26.5v-2q19 -8 35.5 -27.5t16.5 -59.5q0 -42 -32 -71t-92 -29t-92 29t-32 71v0zM86 100q0 -28 16 -42t38 -14t38 14t16 42q0 27 -16 41.5
t-38 14.5t-38 -14.5t-16 -41.5v0zM92 252q0 -22 13 -35t35 -13t35 13t13 35t-13 35t-35 13t-35 -13t-13 -35v0z" />
    <glyph glyph-name="nine.denominator" horiz-adv-x="280" 
d="M24 88h64q0 -18 13 -29t31 -11q26 0 38.5 22.5t13.5 85.5h-4q-8 -16 -25 -24t-39 -8q-41 0 -68.5 27t-27.5 81q0 60 33 90t83 30q54 0 87 -34.5t33 -133.5q0 -98 -31 -145t-93 -47q-51 0 -79.5 25.5t-28.5 70.5v0zM136 176q19 0 33 14t15 48q0 31 -13 46.5t-35 15.5
q-20 0 -34 -14.5t-14 -47.5t13 -47.5t35 -14.5v0z" />
    <glyph glyph-name="dollar.denominator" horiz-adv-x="280" 
d="M24 100h68q1 -26 13.5 -39t34.5 -13t33 13t11 31q0 57 -80 57.5t-80 98.5q0 37 24 65.5t64 35.5v71h52v-70q39 -7 63 -32t25 -62h-68q-1 22 -14.5 31t-29.5 9q-22 0 -34 -10.5t-12 -29.5q0 -54 81 -56.5t81 -99.5q0 -39 -25.5 -68.5t-66.5 -36.5v-71h-52v70
q-43 6 -65 34.5t-23 71.5v0z" />
    <glyph glyph-name="cent.denominator" horiz-adv-x="280" 
d="M28 172q0 57 26 89t66 40v51h52v-50q32 -6 54 -28.5t26 -61.5h-64q-2 20 -14 28t-26 8q-19 0 -33.5 -15t-14.5 -61t14.5 -61t33.5 -15q14 0 26 8t14 28h64q-4 -40 -26 -62.5t-54 -27.5v-50h-52v51q-40 7 -66 39.5t-26 89.5v0z" />
    <glyph glyph-name="euro.denominator" horiz-adv-x="280" 
d="M12 124l8 32h28v32h-32l8 32h26q7 64 37 98t81 34q44 0 68.5 -26t27.5 -74h-64q0 18 -9.5 29t-22.5 11q-20 0 -31 -15.5t-15 -56.5h82l-8 -32h-76v-32h72l-8 -32h-62q4 -41 15 -56.5t31 -15.5q13 0 22.5 11t9.5 29h64q-3 -48 -29.5 -74t-70.5 -26q-51 0 -79 34t-35 98
h-38z" />
    <glyph glyph-name="plus.denominator" horiz-adv-x="280" 
d="M28 148v52h84v84h56v-84h84v-52h-84v-84h-56v84h-84z" />
    <glyph glyph-name="minus.denominator" horiz-adv-x="280" 
d="M28 148v52h224v-52h-224z" />
    <glyph glyph-name="equal.denominator" horiz-adv-x="280" 
d="M28 200v52h224v-52h-224zM28 92v52h224v-52h-224z" />
    <glyph glyph-name="comma.denominator" horiz-adv-x="156" 
d="M36 0v88h84v-84l-30 -116h-38l20 112h-36z" />
    <glyph glyph-name="period.denominator" horiz-adv-x="156" 
d="M36 0v88h84v-88h-84z" />
    <glyph glyph-name="hyphen.denominator" horiz-adv-x="196" 
d="M24 144v60h148v-60h-148z" />
    <glyph glyph-name="parenleft.denominator" horiz-adv-x="172" 
d="M104 -72q-20 34 -40 99t-20 145t20 145t40 99h64q-15 -28 -37.5 -96t-22.5 -148t22.5 -148t37.5 -96h-64z" />
    <glyph glyph-name="parenright.denominator" horiz-adv-x="172" 
d="M4 -72q15 28 37.5 96t22.5 148t-22.5 148t-37.5 96h64q20 -34 40 -99t20 -145t-20 -145t-40 -99h-64z" />
    <glyph glyph-name="a.numerator" horiz-adv-x="288" 
d="M20 426q0 45 24 71.5t72 38.5l32 8q19 4 27.5 11t8.5 29q0 34 -11 47t-33 13q-20 0 -33.5 -14.5t-14.5 -49.5h-64q3 60 34.5 88t77.5 28q60 0 86 -28t26 -84v-240h-64v32h-4q-11 -22 -31 -31t-45 -9q-42 0 -65 25.5t-23 64.5v0zM128 388q21 0 38.5 16.5t17.5 63.5v42
q-3 -4 -8 -6.5t-12 -3.5l-32 -8q-24 -6 -34 -21t-10 -35q0 -22 11.5 -35t28.5 -13v0z" />
    <glyph glyph-name="b.numerator" horiz-adv-x="304" 
d="M36 344v516h68v-108q0 -16 -1 -42.5t-2 -57.5h3q11 25 28.5 34.5t43.5 9.5q41 0 72.5 -41t31.5 -139q0 -99 -30.5 -139.5t-73.5 -40.5q-25 0 -43.5 9.5t-28.5 34.5h-4v-36h-64zM104 516q0 -72 16 -100t40 -28q25 0 38.5 28t13.5 100t-14.5 100t-37.5 28q-25 0 -40.5 -28
t-15.5 -100v0z" />
    <glyph glyph-name="c.numerator" horiz-adv-x="276" 
d="M24 516q0 96 34.5 138t89.5 42q47 0 75 -28.5t33 -91.5h-60q-4 37 -16.5 52.5t-31.5 15.5q-25 0 -40.5 -28t-15.5 -100t15.5 -100t40.5 -28q19 0 31.5 15.5t16.5 52.5h60q-5 -63 -33 -91.5t-75 -28.5q-55 0 -89.5 42t-34.5 138v0z" />
    <glyph glyph-name="d.numerator" horiz-adv-x="304" 
d="M24 516q0 99 30.5 139.5t73.5 40.5q25 0 43.5 -9.5t28.5 -34.5h3q-2 31 -2.5 57.5t-0.5 42.5v108h68v-516h-64v36h-4q-11 -25 -28.5 -34.5t-43.5 -9.5q-41 0 -72.5 41t-31.5 139v0zM92 516q0 -72 14.5 -100t37.5 -28q25 0 40.5 28t15.5 100t-16 100t-40 28
q-25 0 -38.5 -28t-13.5 -100v0z" />
    <glyph glyph-name="e.numerator" horiz-adv-x="292" 
d="M24 516q0 95 35 137.5t89 42.5q55 0 87.5 -39.5t32.5 -124.5v-24h-176q1 -69 16.5 -94.5t43.5 -25.5q22 0 35.5 15.5t16.5 44.5h60q-3 -54 -34.5 -83t-81.5 -29q-58 0 -91 42t-33 138v0zM148 644q-20 0 -35.5 -20.5t-19.5 -71.5h106q-2 50 -15 71t-36 21v0z" />
    <glyph glyph-name="f.numerator" horiz-adv-x="188" 
d="M56 344v292h-52v52h52v68q0 54 22.5 79t73.5 25h36v-52h-24q-22 0 -31 -12.5t-9 -43.5v-64h56v-52h-56v-292h-68z" />
    <glyph glyph-name="g.numerator" horiz-adv-x="304" 
d="M28 296h60q1 -31 17.5 -47.5t38.5 -16.5q28 0 44 17.5t16 62.5v68h-4q-11 -25 -28.5 -34.5t-43.5 -9.5q-41 0 -72.5 41t-31.5 139q0 99 30.5 139.5t73.5 40.5q25 0 43.5 -9.5t28.5 -34.5h4v36h64v-364q0 -80 -32.5 -110t-91.5 -30q-52 0 -83.5 27.5t-32.5 84.5v0zM92 516
q0 -72 14.5 -100t37.5 -28q25 0 40.5 28t15.5 100v14q-1 64 -17.5 89t-38.5 25q-25 0 -38.5 -28t-13.5 -100v0z" />
    <glyph glyph-name="h.numerator" horiz-adv-x="308" 
d="M36 344v516h68v-108q0 -16 -1 -42.5t-2 -57.5h3q11 23 31 33.5t45 10.5q38 0 65 -23.5t27 -80.5v-248h-68v232q0 39 -13 51.5t-31 12.5q-22 0 -39 -18.5t-17 -57.5v-220h-68z" />
    <glyph glyph-name="i.numerator" horiz-adv-x="140" 
d="M32 788v72h72v-72h-72zM36 344v344h68v-344h-68z" />
    <glyph glyph-name="j.numerator" horiz-adv-x="140" 
d="M32 788v72h72v-72h-72zM36 292v396h68v-408q0 -41 -19.5 -66.5t-72.5 -25.5h-24v56h16q17 0 24.5 11.5t7.5 36.5v0z" />
    <glyph glyph-name="k.numerator" horiz-adv-x="280" 
d="M36 344v516h68v-312l96 140h68l-96 -139l108 -205h-76l-73 146l-27 -40v-106h-68z" />
    <glyph glyph-name="l.numerator" horiz-adv-x="140" 
d="M36 344v516h68v-516h-68z" />
    <glyph glyph-name="m.numerator" horiz-adv-x="468" 
d="M36 344v344h64v-36h4q11 23 30 33.5t44 10.5q28 0 49.5 -12t31.5 -40q15 28 35.5 40t47.5 12q38 0 64 -23.5t26 -80.5v-248h-68v232q0 39 -12.5 51.5t-31.5 12.5q-20 0 -36 -17.5t-16 -56.5v-222h-68v232q0 39 -12.5 51.5t-31.5 12.5q-20 0 -36 -17.5t-16 -56.5v-222h-68
z" />
    <glyph glyph-name="n.numerator" horiz-adv-x="308" 
d="M36 344v344h64v-36h4q11 23 31 33.5t45 10.5q38 0 65 -23.5t27 -80.5v-248h-68v232q0 39 -13 51.5t-31 12.5q-22 0 -39 -18t-17 -58v-220h-68z" />
    <glyph glyph-name="o.numerator" horiz-adv-x="296" 
d="M24 516q0 96 34.5 138t89.5 42t89.5 -42t34.5 -138t-34.5 -138t-89.5 -42t-89.5 42t-34.5 138v0zM92 516q0 -72 15.5 -100t40.5 -28t40.5 28t15.5 100t-15.5 100t-40.5 28t-40.5 -28t-15.5 -100v0z" />
    <glyph glyph-name="p.numerator" horiz-adv-x="304" 
d="M104 280v-92h-68v500h64v-36h4q11 25 28.5 34.5t43.5 9.5q41 0 72.5 -41t31.5 -139q0 -99 -30.5 -139.5t-73.5 -40.5q-25 0 -43.5 9.5t-28.5 34.5h-3q1 -31 2 -57.5t1 -42.5v0zM212 516q0 72 -14.5 100t-37.5 28q-25 0 -40 -25.5t-16 -88.5v-14q0 -72 16 -100t40 -28
q25 0 38.5 28t13.5 100v0z" />
    <glyph glyph-name="q.numerator" horiz-adv-x="304" 
d="M200 280q0 16 0.5 42.5t2.5 57.5h-3q-11 -25 -28.5 -34.5t-43.5 -9.5q-41 0 -72.5 41t-31.5 139q0 99 30.5 139.5t73.5 40.5q25 0 43.5 -9.5t28.5 -34.5h4v36h64v-500h-68v92zM92 516q0 -72 14.5 -100t37.5 -28q24 0 39.5 25.5t16.5 88.5v28q-1 64 -17.5 89t-38.5 25
q-25 0 -38.5 -28t-13.5 -100v0z" />
    <glyph glyph-name="r.numerator" horiz-adv-x="204" 
d="M36 344v344h64v-40h2q10 26 26.5 37t35.5 11q9 0 19 -3t17 -9l-12 -58q-8 5 -16.5 7.5t-15.5 2.5q-26 0 -39 -19.5t-13 -61.5v-211h-68z" />
    <glyph glyph-name="s.numerator" horiz-adv-x="268" 
d="M20 444h60q1 -31 15.5 -45.5t36.5 -14.5q20 0 34 13.5t14 38.5q0 22 -11.5 32t-28.5 16l-44 16q-28 10 -51 32t-23 64q0 45 29.5 72.5t80.5 27.5q48 0 78 -25t30 -75h-60q-3 27 -15 39.5t-33 12.5q-19 0 -31.5 -11.5t-12.5 -32.5t12 -31.5t28 -16.5l44 -16
q27 -10 51.5 -30t24.5 -66q0 -53 -33.5 -80.5t-82.5 -27.5q-53 0 -81 28t-31 80v0z" />
    <glyph glyph-name="t.numerator" horiz-adv-x="192" 
d="M52 432v204h-48v52h48v104h68v-104h56v-52h-56v-196q0 -27 7.5 -35.5t28.5 -8.5h20v-52h-32q-51 0 -71.5 20t-20.5 68v0z" />
    <glyph glyph-name="u.numerator" horiz-adv-x="304" 
d="M36 440v248h68v-232q0 -39 12.5 -51.5t31.5 -12.5q21 0 36.5 18.5t15.5 57.5v220h68v-344h-64v36h-3q-11 -23 -30.5 -33.5t-44.5 -10.5q-38 0 -64 23.5t-26 80.5v0z" />
    <glyph glyph-name="v.numerator" horiz-adv-x="272" 
d="M96 344l-88 344h72l58 -277l58 277h68l-88 -344h-80z" />
    <glyph glyph-name="w.numerator" horiz-adv-x="404" 
d="M76 344l-68 344h68l46 -264l46 264h72l46 -264l46 264h64l-68 -344h-80l-46 263l-46 -263h-80z" />
    <glyph glyph-name="x.numerator" horiz-adv-x="260" 
d="M8 344l87 174l-83 170h72l47 -109l49 109h68l-83 -166l87 -178h-72l-52 117l-52 -117h-68z" />
    <glyph glyph-name="y.numerator" horiz-adv-x="272" 
d="M36 244h16q19 0 34 8t22 40l-100 396h72l58 -279l58 279h68l-104 -412q-11 -43 -32 -65.5t-64 -22.5h-28v56z" />
    <glyph glyph-name="z.numerator" horiz-adv-x="244" 
d="M16 636v52h208v-44l-133 -248h137v-52h-212v36l137 256h-137z" />
    <glyph glyph-name="zero.numerator" horiz-adv-x="280" 
d="M140 336q-60 0 -93 45t-33 135q0 84 33 132t93 48t93 -45t33 -135q0 -84 -33 -132t-93 -48v0zM140 392q25 0 41.5 26.5t16.5 97.5q0 72 -16.5 98t-41.5 26t-41.5 -26.5t-16.5 -97.5q0 -72 16.5 -98t41.5 -26v0z" />
    <glyph glyph-name="one.numerator" horiz-adv-x="280" 
d="M52 568l-28 48l120 72h40v-284h76v-60h-224v60h80v201z" />
    <glyph glyph-name="two.numerator" horiz-adv-x="280" 
d="M28 344q1 60 18.5 94.5t53.5 61.5l32 24q19 14 35.5 30.5t16.5 41.5q0 15 -9.5 29.5t-34.5 14.5t-36 -18t-12 -50h-64q0 60 31 92t81 32q52 0 82 -26.5t30 -73.5q0 -40 -19.5 -63.5t-52.5 -48.5l-32 -24q-19 -13 -31 -26.5t-13 -29.5h148v-60h-224z" />
    <glyph glyph-name="three.numerator" horiz-adv-x="280" 
d="M20 444h66q0 -28 16 -42t38 -14t38 14t16 42q0 27 -16.5 41.5t-41.5 14.5h-20v48h20q25 0 38.5 13t13.5 35t-13 35t-35 13t-35 -13t-13 -35h-60q0 42 28 71t80 29q55 0 83.5 -27.5t28.5 -68.5q0 -30 -12 -48.5t-28 -26.5v-2q19 -8 35.5 -27.5t16.5 -59.5q0 -42 -32 -71
t-92 -29q-57 0 -88.5 28.5t-31.5 79.5v0z" />
    <glyph glyph-name="four.numerator" horiz-adv-x="280" 
d="M16 412v52l156 224h60v-216h32v-60h-32v-68h-68v68h-148zM78 472h86v123z" />
    <glyph glyph-name="five.numerator" horiz-adv-x="280" 
d="M32 436h61q0 -20 12.5 -34t34.5 -14q21 0 34.5 16t13.5 46q0 33 -13 47.5t-35 14.5q-18 0 -29 -10t-15 -24l-60 10l10 200h194v-60h-136l-4 -88h3q9 11 23.5 17.5t33.5 6.5q41 0 68.5 -27t27.5 -81q0 -60 -33 -90t-83 -30q-54 0 -81 29.5t-27 70.5v0z" />
    <glyph glyph-name="six.numerator" horiz-adv-x="280" 
d="M256 600h-64q0 18 -11 29t-29 11q-26 0 -40 -23t-16 -85h4q8 16 25 24t39 8q41 0 68.5 -27t27.5 -81q0 -60 -33 -90t-83 -30q-54 0 -87 34.5t-33 133.5q0 98 33 145t95 47q51 0 77.5 -25.5t26.5 -70.5v0zM144 512q-19 0 -33 -14t-15 -48q0 -31 13 -46.5t35 -15.5
q20 0 34 14.5t14 47.5t-13 47.5t-35 14.5v0z" />
    <glyph glyph-name="seven.numerator" horiz-adv-x="280" 
d="M68 344l112 280h-156v64h232v-44l-116 -300h-72z" />
    <glyph glyph-name="eight.numerator" horiz-adv-x="280" 
d="M16 436q0 40 16.5 59.5t35.5 27.5v2q-16 8 -28 26.5t-12 48.5q0 38 28.5 67t83.5 29t83.5 -29t28.5 -67q0 -30 -12 -48.5t-28 -26.5v-2q19 -8 35.5 -27.5t16.5 -59.5q0 -42 -32 -71t-92 -29t-92 29t-32 71v0zM86 444q0 -28 16 -42t38 -14t38 14t16 42q0 27 -16 41.5
t-38 14.5t-38 -14.5t-16 -41.5v0zM92 596q0 -22 13 -35t35 -13t35 13t13 35t-13 35t-35 13t-35 -13t-13 -35v0z" />
    <glyph glyph-name="nine.numerator" horiz-adv-x="280" 
d="M24 432h64q0 -18 13 -29t31 -11q26 0 38.5 22.5t13.5 85.5h-4q-8 -16 -25 -24t-39 -8q-41 0 -68.5 27t-27.5 81q0 60 33 90t83 30q54 0 87 -34.5t33 -133.5q0 -98 -31 -145t-93 -47q-51 0 -79.5 25.5t-28.5 70.5v0zM136 520q19 0 33 14t15 48q0 31 -13 46.5t-35 15.5
q-20 0 -34 -14.5t-14 -47.5t13 -47.5t35 -14.5v0z" />
    <glyph glyph-name="dollar.numerator" horiz-adv-x="280" 
d="M24 444h68q1 -26 13.5 -39t34.5 -13t33 13t11 31q0 57 -80 57.5t-80 98.5q0 37 24 65.5t64 35.5v71h52v-70q39 -7 63 -32t25 -62h-68q-1 22 -14.5 31t-29.5 9q-22 0 -34 -10.5t-12 -29.5q0 -54 81 -56.5t81 -99.5q0 -39 -25.5 -68.5t-66.5 -36.5v-71h-52v70
q-43 6 -65 34.5t-23 71.5v0z" />
    <glyph glyph-name="cent.numerator" horiz-adv-x="280" 
d="M28 516q0 57 26 89t66 40v51h52v-50q32 -6 54 -28.5t26 -61.5h-64q-2 20 -14 28t-26 8q-19 0 -33.5 -15t-14.5 -61t14.5 -61t33.5 -15q14 0 26 8t14 28h64q-4 -40 -26 -62.5t-54 -27.5v-50h-52v51q-40 7 -66 39.5t-26 89.5v0z" />
    <glyph glyph-name="euro.numerator" horiz-adv-x="280" 
d="M12 468l8 32h28v32h-32l8 32h26q7 64 37 98t81 34q44 0 68.5 -26t27.5 -74h-64q0 18 -9.5 29t-22.5 11q-20 0 -31 -15.5t-15 -56.5h82l-8 -32h-76v-32h72l-8 -32h-62q4 -41 15 -56.5t31 -15.5q13 0 22.5 11t9.5 29h64q-3 -48 -29.5 -74t-70.5 -26q-51 0 -79 34t-35 98
h-38z" />
    <glyph glyph-name="plus.numerator" horiz-adv-x="280" 
d="M28 492v52h84v84h56v-84h84v-52h-84v-84h-56v84h-84z" />
    <glyph glyph-name="minus.numerator" horiz-adv-x="280" 
d="M28 492v52h224v-52h-224z" />
    <glyph glyph-name="equal.numerator" horiz-adv-x="280" 
d="M28 544v52h224v-52h-224zM28 436v52h224v-52h-224z" />
    <glyph glyph-name="comma.numerator" horiz-adv-x="156" 
d="M36 344v88h84v-84l-30 -116h-38l20 112h-36z" />
    <glyph glyph-name="period.numerator" horiz-adv-x="156" 
d="M36 344v88h84v-88h-84z" />
    <glyph glyph-name="hyphen.numerator" horiz-adv-x="196" 
d="M24 488v60h148v-60h-148z" />
    <glyph glyph-name="parenleft.numerator" horiz-adv-x="172" 
d="M104 272q-20 34 -40 99t-20 145t20 145t40 99h64q-15 -28 -37.5 -96t-22.5 -148t22.5 -148t37.5 -96h-64z" />
    <glyph glyph-name="parenright.numerator" horiz-adv-x="172" 
d="M4 272q15 28 37.5 96t22.5 148t-22.5 148t-37.5 96h64q20 -34 40 -99t20 -145t-20 -145t-40 -99h-64z" />
    <glyph glyph-name="a.superior" horiz-adv-x="288" 
d="M20 578q0 45 24 71.5t72 38.5l32 8q19 4 27.5 11t8.5 29q0 34 -11 47t-33 13q-20 0 -33.5 -14.5t-14.5 -49.5h-64q3 60 34.5 88t77.5 28q60 0 86 -28t26 -84v-240h-64v32h-4q-11 -22 -31 -31t-45 -9q-42 0 -65 25.5t-23 64.5v0zM128 540q21 0 38.5 16.5t17.5 63.5v42
q-3 -4 -8 -6.5t-12 -3.5l-32 -8q-24 -6 -34 -21t-10 -35q0 -22 11.5 -35t28.5 -13v0z" />
    <glyph glyph-name="b.superior" horiz-adv-x="304" 
d="M36 496v516h68v-108q0 -16 -1 -42.5t-2 -57.5h3q11 25 28.5 34.5t43.5 9.5q41 0 72.5 -41t31.5 -139q0 -99 -30.5 -139.5t-73.5 -40.5q-25 0 -43.5 9.5t-28.5 34.5h-4v-36h-64zM104 668q0 -72 16 -100t40 -28q25 0 38.5 28t13.5 100t-14.5 100t-37.5 28q-25 0 -40.5 -28
t-15.5 -100v0z" />
    <glyph glyph-name="c.superior" horiz-adv-x="276" 
d="M24 668q0 96 34.5 138t89.5 42q47 0 75 -28.5t33 -91.5h-60q-4 37 -16.5 52.5t-31.5 15.5q-25 0 -40.5 -28t-15.5 -100t15.5 -100t40.5 -28q19 0 31.5 15.5t16.5 52.5h60q-5 -63 -33 -91.5t-75 -28.5q-55 0 -89.5 42t-34.5 138v0z" />
    <glyph glyph-name="d.superior" horiz-adv-x="304" 
d="M24 668q0 99 30.5 139.5t73.5 40.5q25 0 43.5 -9.5t28.5 -34.5h3q-2 31 -2.5 57.5t-0.5 42.5v108h68v-516h-64v36h-4q-11 -25 -28.5 -34.5t-43.5 -9.5q-41 0 -72.5 41t-31.5 139v0zM92 668q0 -72 14.5 -100t37.5 -28q25 0 40.5 28t15.5 100t-16 100t-40 28
q-25 0 -38.5 -28t-13.5 -100v0z" />
    <glyph glyph-name="e.superior" horiz-adv-x="292" 
d="M24 668q0 95 35 137.5t89 42.5q55 0 87.5 -39.5t32.5 -124.5v-24h-176q1 -69 16.5 -94.5t43.5 -25.5q22 0 35.5 15.5t16.5 44.5h60q-3 -54 -34.5 -83t-81.5 -29q-58 0 -91 42t-33 138v0zM148 796q-20 0 -35.5 -20.5t-19.5 -71.5h106q-2 50 -15 71t-36 21v0z" />
    <glyph glyph-name="f.superior" horiz-adv-x="188" 
d="M56 496v292h-52v52h52v68q0 54 22.5 79t73.5 25h36v-52h-24q-22 0 -31 -12.5t-9 -43.5v-64h56v-52h-56v-292h-68z" />
    <glyph glyph-name="g.superior" horiz-adv-x="304" 
d="M28 448h60q1 -31 17.5 -47.5t38.5 -16.5q28 0 44 17.5t16 62.5v68h-4q-11 -25 -28.5 -34.5t-43.5 -9.5q-41 0 -72.5 41t-31.5 139q0 99 30.5 139.5t73.5 40.5q25 0 43.5 -9.5t28.5 -34.5h4v36h64v-364q0 -80 -32.5 -110t-91.5 -30q-52 0 -83.5 27.5t-32.5 84.5v0zM92 668
q0 -72 14.5 -100t37.5 -28q25 0 40.5 28t15.5 100v14q-1 64 -17.5 89t-38.5 25q-25 0 -38.5 -28t-13.5 -100v0z" />
    <glyph glyph-name="h.superior" horiz-adv-x="308" 
d="M36 496v516h68v-108q0 -16 -1 -42.5t-2 -57.5h3q11 23 31 33.5t45 10.5q38 0 65 -23.5t27 -80.5v-248h-68v232q0 39 -13 51.5t-31 12.5q-22 0 -39 -18.5t-17 -57.5v-220h-68z" />
    <glyph glyph-name="i.superior" horiz-adv-x="140" 
d="M32 940v72h72v-72h-72zM36 496v344h68v-344h-68z" />
    <glyph glyph-name="j.superior" horiz-adv-x="140" 
d="M32 940v72h72v-72h-72zM36 444v396h68v-408q0 -41 -19.5 -66.5t-72.5 -25.5h-24v56h16q17 0 24.5 11.5t7.5 36.5v0z" />
    <glyph glyph-name="k.superior" horiz-adv-x="280" 
d="M36 496v516h68v-312l96 140h68l-96 -139l108 -205h-76l-73 146l-27 -40v-106h-68z" />
    <glyph glyph-name="l.superior" horiz-adv-x="140" 
d="M36 496v516h68v-516h-68z" />
    <glyph glyph-name="m.superior" horiz-adv-x="468" 
d="M36 496v344h64v-36h4q11 23 30 33.5t44 10.5q28 0 49.5 -12t31.5 -40q15 28 35.5 40t47.5 12q38 0 64 -23.5t26 -80.5v-248h-68v232q0 39 -12.5 51.5t-31.5 12.5q-20 0 -36 -17.5t-16 -56.5v-222h-68v232q0 39 -12.5 51.5t-31.5 12.5q-20 0 -36 -17.5t-16 -56.5v-222h-68
z" />
    <glyph glyph-name="n.superior" horiz-adv-x="308" 
d="M36 496v344h64v-36h4q11 23 31 33.5t45 10.5q38 0 65 -23.5t27 -80.5v-248h-68v232q0 39 -13 51.5t-31 12.5q-22 0 -39 -18t-17 -58v-220h-68z" />
    <glyph glyph-name="o.superior" horiz-adv-x="296" 
d="M24 668q0 96 34.5 138t89.5 42t89.5 -42t34.5 -138t-34.5 -138t-89.5 -42t-89.5 42t-34.5 138v0zM92 668q0 -72 15.5 -100t40.5 -28t40.5 28t15.5 100t-15.5 100t-40.5 28t-40.5 -28t-15.5 -100v0z" />
    <glyph glyph-name="p.superior" horiz-adv-x="304" 
d="M104 432v-92h-68v500h64v-36h4q11 25 28.5 34.5t43.5 9.5q41 0 72.5 -41t31.5 -139q0 -99 -30.5 -139.5t-73.5 -40.5q-25 0 -43.5 9.5t-28.5 34.5h-3q1 -31 2 -57.5t1 -42.5v0zM212 668q0 72 -14.5 100t-37.5 28q-25 0 -40 -25.5t-16 -88.5v-14q0 -72 16 -100t40 -28
q25 0 38.5 28t13.5 100v0z" />
    <glyph glyph-name="q.superior" horiz-adv-x="304" 
d="M200 432q0 16 0.5 42.5t2.5 57.5h-3q-11 -25 -28.5 -34.5t-43.5 -9.5q-41 0 -72.5 41t-31.5 139q0 99 30.5 139.5t73.5 40.5q25 0 43.5 -9.5t28.5 -34.5h4v36h64v-500h-68v92zM92 668q0 -72 14.5 -100t37.5 -28q24 0 39.5 25.5t16.5 88.5v28q-1 64 -17.5 89t-38.5 25
q-25 0 -38.5 -28t-13.5 -100v0z" />
    <glyph glyph-name="r.superior" horiz-adv-x="204" 
d="M36 496v344h64v-40h2q10 26 26.5 37t35.5 11q9 0 19 -3t17 -9l-12 -58q-8 5 -16.5 7.5t-15.5 2.5q-26 0 -39 -19.5t-13 -61.5v-211h-68z" />
    <glyph glyph-name="s.superior" horiz-adv-x="268" 
d="M20 596h60q1 -31 15.5 -45.5t36.5 -14.5q20 0 34 13.5t14 38.5q0 22 -11.5 32t-28.5 16l-44 16q-28 10 -51 32t-23 64q0 45 29.5 72.5t80.5 27.5q48 0 78 -25t30 -75h-60q-3 27 -15 39.5t-33 12.5q-19 0 -31.5 -11.5t-12.5 -32.5t12 -31.5t28 -16.5l44 -16
q27 -10 51.5 -30t24.5 -66q0 -53 -33.5 -80.5t-82.5 -27.5q-53 0 -81 28t-31 80v0z" />
    <glyph glyph-name="t.superior" horiz-adv-x="192" 
d="M52 584v204h-48v52h48v104h68v-104h56v-52h-56v-196q0 -27 7.5 -35.5t28.5 -8.5h20v-52h-32q-51 0 -71.5 20t-20.5 68v0z" />
    <glyph glyph-name="u.superior" horiz-adv-x="304" 
d="M36 592v248h68v-232q0 -39 12.5 -51.5t31.5 -12.5q21 0 36.5 18.5t15.5 57.5v220h68v-344h-64v36h-3q-11 -23 -30.5 -33.5t-44.5 -10.5q-38 0 -64 23.5t-26 80.5v0z" />
    <glyph glyph-name="v.superior" horiz-adv-x="272" 
d="M96 496l-88 344h72l58 -277l58 277h68l-88 -344h-80z" />
    <glyph glyph-name="w.superior" horiz-adv-x="404" 
d="M76 496l-68 344h68l46 -264l46 264h72l46 -264l46 264h64l-68 -344h-80l-46 263l-46 -263h-80z" />
    <glyph glyph-name="x.superior" horiz-adv-x="260" 
d="M8 496l87 174l-83 170h72l47 -109l49 109h68l-83 -166l87 -178h-72l-52 117l-52 -117h-68z" />
    <glyph glyph-name="y.superior" horiz-adv-x="272" 
d="M36 396h16q19 0 34 8t22 40l-100 396h72l58 -279l58 279h68l-104 -412q-11 -43 -32 -65.5t-64 -22.5h-28v56z" />
    <glyph glyph-name="z.superior" horiz-adv-x="244" 
d="M16 788v52h208v-44l-133 -248h137v-52h-212v36l137 256h-137z" />
    <glyph glyph-name="uni2070" unicode="&#x2070;" horiz-adv-x="280" 
d="M140 488q-60 0 -93 45t-33 135q0 84 33 132t93 48t93 -45t33 -135q0 -84 -33 -132t-93 -48v0zM140 544q25 0 41.5 26.5t16.5 97.5q0 72 -16.5 98t-41.5 26t-41.5 -26.5t-16.5 -97.5q0 -72 16.5 -98t41.5 -26v0z" />
    <glyph glyph-name="onesuperior" unicode="&#xb9;" horiz-adv-x="280" 
d="M52 720l-28 48l120 72h40v-284h76v-60h-224v60h80v201z" />
    <glyph glyph-name="twosuperior" unicode="&#xb2;" horiz-adv-x="280" 
d="M28 496q1 60 18.5 94.5t53.5 61.5l32 24q19 14 35.5 30.5t16.5 41.5q0 15 -9.5 29.5t-34.5 14.5t-36 -18t-12 -50h-64q0 60 31 92t81 32q52 0 82 -26.5t30 -73.5q0 -40 -19.5 -63.5t-52.5 -48.5l-32 -24q-19 -13 -31 -26.5t-13 -29.5h148v-60h-224z" />
    <glyph glyph-name="threesuperior" unicode="&#xb3;" horiz-adv-x="280" 
d="M20 596h66q0 -28 16 -42t38 -14t38 14t16 42q0 27 -16.5 41.5t-41.5 14.5h-20v48h20q25 0 38.5 13t13.5 35t-13 35t-35 13t-35 -13t-13 -35h-60q0 42 28 71t80 29q55 0 83.5 -27.5t28.5 -68.5q0 -30 -12 -48.5t-28 -26.5v-2q19 -8 35.5 -27.5t16.5 -59.5q0 -42 -32 -71
t-92 -29q-57 0 -88.5 28.5t-31.5 79.5v0z" />
    <glyph glyph-name="uni2074" unicode="&#x2074;" horiz-adv-x="280" 
d="M16 564v52l156 224h60v-216h32v-60h-32v-68h-68v68h-148zM78 624h86v123z" />
    <glyph glyph-name="uni2075" unicode="&#x2075;" horiz-adv-x="280" 
d="M32 588h61q0 -20 12.5 -34t34.5 -14q21 0 34.5 16t13.5 46q0 33 -13 47.5t-35 14.5q-18 0 -29 -10t-15 -24l-60 10l10 200h194v-60h-136l-4 -88h3q9 11 23.5 17.5t33.5 6.5q41 0 68.5 -27t27.5 -81q0 -60 -33 -90t-83 -30q-54 0 -81 29.5t-27 70.5v0z" />
    <glyph glyph-name="uni2076" unicode="&#x2076;" horiz-adv-x="280" 
d="M256 752h-64q0 18 -11 29t-29 11q-26 0 -40 -23t-16 -85h4q8 16 25 24t39 8q41 0 68.5 -27t27.5 -81q0 -60 -33 -90t-83 -30q-54 0 -87 34.5t-33 133.5q0 98 33 145t95 47q51 0 77.5 -25.5t26.5 -70.5v0zM144 664q-19 0 -33 -14t-15 -48q0 -31 13 -46.5t35 -15.5
q20 0 34 14.5t14 47.5t-13 47.5t-35 14.5v0z" />
    <glyph glyph-name="uni2077" unicode="&#x2077;" horiz-adv-x="280" 
d="M68 496l112 280h-156v64h232v-44l-116 -300h-72z" />
    <glyph glyph-name="uni2078" unicode="&#x2078;" horiz-adv-x="280" 
d="M16 588q0 40 16.5 59.5t35.5 27.5v2q-16 8 -28 26.5t-12 48.5q0 38 28.5 67t83.5 29t83.5 -29t28.5 -67q0 -30 -12 -48.5t-28 -26.5v-2q19 -8 35.5 -27.5t16.5 -59.5q0 -42 -32 -71t-92 -29t-92 29t-32 71v0zM86 596q0 -28 16 -42t38 -14t38 14t16 42q0 27 -16 41.5
t-38 14.5t-38 -14.5t-16 -41.5v0zM92 748q0 -22 13 -35t35 -13t35 13t13 35t-13 35t-35 13t-35 -13t-13 -35v0z" />
    <glyph glyph-name="uni2079" unicode="&#x2079;" horiz-adv-x="280" 
d="M24 584h64q0 -18 13 -29t31 -11q26 0 38.5 22.5t13.5 85.5h-4q-8 -16 -25 -24t-39 -8q-41 0 -68.5 27t-27.5 81q0 60 33 90t83 30q54 0 87 -34.5t33 -133.5q0 -98 -31 -145t-93 -47q-51 0 -79.5 25.5t-28.5 70.5v0zM136 672q19 0 33 14t15 48q0 31 -13 46.5t-35 15.5
q-20 0 -34 -14.5t-14 -47.5t13 -47.5t35 -14.5v0z" />
    <glyph glyph-name="dollar.superior" horiz-adv-x="280" 
d="M24 596h68q1 -26 13.5 -39t34.5 -13t33 13t11 31q0 57 -80 57.5t-80 98.5q0 37 24 65.5t64 35.5v71h52v-70q39 -7 63 -32t25 -62h-68q-1 22 -14.5 31t-29.5 9q-22 0 -34 -10.5t-12 -29.5q0 -54 81 -56.5t81 -99.5q0 -39 -25.5 -68.5t-66.5 -36.5v-71h-52v70
q-43 6 -65 34.5t-23 71.5v0z" />
    <glyph glyph-name="cent.superior" horiz-adv-x="280" 
d="M28 668q0 57 26 89t66 40v51h52v-50q32 -6 54 -28.5t26 -61.5h-64q-2 20 -14 28t-26 8q-19 0 -33.5 -15t-14.5 -61t14.5 -61t33.5 -15q14 0 26 8t14 28h64q-4 -40 -26 -62.5t-54 -27.5v-50h-52v51q-40 7 -66 39.5t-26 89.5v0z" />
    <glyph glyph-name="euro.superior" horiz-adv-x="280" 
d="M12 620l8 32h28v32h-32l8 32h26q7 64 37 98t81 34q44 0 68.5 -26t27.5 -74h-64q0 18 -9.5 29t-22.5 11q-20 0 -31 -15.5t-15 -56.5h82l-8 -32h-76v-32h72l-8 -32h-62q4 -41 15 -56.5t31 -15.5q13 0 22.5 11t9.5 29h64q-3 -48 -29.5 -74t-70.5 -26q-51 0 -79 34t-35 98
h-38z" />
    <glyph glyph-name="plus.superior" horiz-adv-x="280" 
d="M28 644v52h84v84h56v-84h84v-52h-84v-84h-56v84h-84z" />
    <glyph glyph-name="minus.superior" horiz-adv-x="280" 
d="M28 644v52h224v-52h-224z" />
    <glyph glyph-name="equal.superior" horiz-adv-x="280" 
d="M28 696v52h224v-52h-224zM28 588v52h224v-52h-224z" />
    <glyph glyph-name="comma.superior" horiz-adv-x="156" 
d="M36 496v88h84v-84l-30 -116h-38l20 112h-36z" />
    <glyph glyph-name="period.superior" horiz-adv-x="156" 
d="M36 496v88h84v-88h-84z" />
    <glyph glyph-name="hyphen.superior" horiz-adv-x="196" 
d="M24 640v60h148v-60h-148z" />
    <glyph glyph-name="parenleft.superior" horiz-adv-x="172" 
d="M104 424q-20 34 -40 99t-20 145t20 145t40 99h64q-15 -28 -37.5 -96t-22.5 -148t22.5 -148t37.5 -96h-64z" />
    <glyph glyph-name="parenright.superior" horiz-adv-x="172" 
d="M4 424q15 28 37.5 96t22.5 148t-22.5 148t-37.5 96h64q20 -34 40 -99t20 -145t-20 -145t-40 -99h-64z" />
    <glyph glyph-name="period" unicode="." horiz-adv-x="208" 
d="M56 0v104h96v-104h-96z" />
    <glyph glyph-name="comma" unicode="," horiz-adv-x="208" 
d="M96 0h-40v104h96v-96l-40 -160h-44z" />
    <glyph glyph-name="colon" unicode=":" horiz-adv-x="208" 
d="M56 384v104h96v-104h-96zM56 0v104h96v-104h-96z" />
    <glyph glyph-name="semicolon" unicode=";" horiz-adv-x="208" 
d="M56 384v104h96v-104h-96zM96 0h-40v104h96v-96l-40 -160h-44z" />
    <glyph glyph-name="ellipsis" unicode="&#x2026;" horiz-adv-x="624" 
d="M472 0v104h96v-104h-96zM264 0v104h96v-104h-96zM56 0v104h96v-104h-96z" />
    <glyph glyph-name="exclam" unicode="!" horiz-adv-x="212" 
d="M84 188l-20 308v192h88v-192l-20 -308h-48zM60 0v104h96v-104h-96z" />
    <glyph glyph-name="question" unicode="?" horiz-adv-x="372" 
d="M140 192v28q0 142 62 178.5t62 129.5q0 43 -17.5 71.5t-58.5 28.5q-51 0 -69.5 -40t-18.5 -96h-76q0 78 35.5 143t128.5 65q79 0 119.5 -46t40.5 -118q0 -119 -64 -160.5t-64 -139.5v-44h-80zM132 0v104h96v-104h-96z" />
    <glyph glyph-name="exclamdown" unicode="&#xa1;" horiz-adv-x="212" 
d="M60 384v104h96v-104h-96zM64 -8l20 308h48l20 -308v-192h-88v192z" />
    <glyph glyph-name="questiondown" unicode="&#xbf;" horiz-adv-x="372" 
d="M144 384v104h96v-104h-96zM24 -48q0 119 64 160.5t64 139.5v44h80v-28q0 -142 -62 -178.5t-62 -129.5q0 -43 17.5 -71.5t58.5 -28.5q51 0 69.5 40t18.5 96h76q0 -78 -35.5 -143t-128.5 -65q-79 0 -119.5 46t-40.5 118v0z" />
    <glyph glyph-name="hyphen" unicode="-" horiz-adv-x="284" 
d="M40 216v72h204v-72h-204z" />
    <glyph glyph-name="endash" unicode="&#x2013;" horiz-adv-x="400" 
d="M40 216v72h320v-72h-320z" />
    <glyph glyph-name="emdash" unicode="&#x2014;" horiz-adv-x="604" 
d="M40 216v72h524v-72h-524z" />
    <glyph glyph-name="periodcentered" unicode="&#xb7;" horiz-adv-x="208" 
d="M56 200v104h96v-104h-96z" />
    <glyph glyph-name="bullet" unicode="&#x2022;" horiz-adv-x="424" 
d="M212 80q-72 0 -122 50t-50 122t50 122t122 50t122 -50t50 -122t-50 -122t-122 -50v0z" />
    <glyph glyph-name="guilsinglleft" unicode="&#x2039;" horiz-adv-x="240" 
d="M140 48l-104 204l104 204h64l-84 -204l84 -204h-64z" />
    <glyph glyph-name="guilsinglright" unicode="&#x203a;" horiz-adv-x="240" 
d="M36 48l84 204l-84 204h64l104 -204l-104 -204h-64z" />
    <glyph glyph-name="guillemotleft" unicode="&#xab;" horiz-adv-x="388" 
d="M184 252l104 204h64l-84 -204l84 -204h-64zM140 48l-104 204l104 204h64l-84 -204l84 -204h-64z" />
    <glyph glyph-name="guillemotright" unicode="&#xbb;" horiz-adv-x="388" 
d="M184 48l84 204l-84 204h64l104 -204l-104 -204h-64zM36 48l84 204l-84 204h64l104 -204l-104 -204h-64z" />
    <glyph glyph-name="bar" unicode="|" horiz-adv-x="200" 
d="M68 -240v1000h64v-1000h-64z" />
    <glyph glyph-name="brokenbar" unicode="&#xa6;" horiz-adv-x="200" 
d="M68 336v352h64v-352h-64zM68 -164v352h64v-352h-64z" />
    <glyph glyph-name="parenleft" unicode="(" horiz-adv-x="224" 
d="M16 260q0 159 41 287t79 197h72q-31 -55 -73.5 -190t-42.5 -294t44 -296t72 -192h-72q-38 69 -79 199t-41 289v0z" />
    <glyph glyph-name="parenright" unicode=")" horiz-adv-x="224" 
d="M16 -228q28 55 72 192t44 296t-42.5 294t-73.5 190h72q38 -69 79 -197t41 -287t-41 -289t-79 -199h-72z" />
    <glyph glyph-name="bracketleft" unicode="[" horiz-adv-x="252" 
d="M128 -164h108v-64h-180v972h180v-64h-108v-844z" />
    <glyph glyph-name="bracketright" unicode="]" horiz-adv-x="252" 
d="M16 -164h108v844h-108v64h180v-972h-180v64z" />
    <glyph glyph-name="braceleft" unicode="{" horiz-adv-x="272" 
d="M92 -88v216q0 52 -15.5 78t-64.5 26v52q49 0 64.5 26t15.5 78v216q0 68 24.5 104t95.5 36h44v-60h-32q-34 0 -47 -19t-13 -61v-208q0 -54 -16 -87.5t-56 -48.5v-4q40 -15 56 -48.5t16 -87.5v-208q0 -42 13 -61t47 -19h32v-60h-44q-71 0 -95.5 36t-24.5 104v0z" />
    <glyph glyph-name="braceright" unicode="}" horiz-adv-x="272" 
d="M16 -168h32q34 0 47 19t13 61v208q0 54 16 87.5t56 48.5v4q-40 15 -56 48.5t-16 87.5v208q0 42 -13 61t-47 19h-32v60h44q71 0 95.5 -36t24.5 -104v-216q0 -52 15.5 -78t64.5 -26v-52q-49 0 -64.5 -26t-15.5 -78v-216q0 -68 -24.5 -104t-95.5 -36h-44v60z" />
    <glyph glyph-name="slash" unicode="/" horiz-adv-x="312" 
d="M12 -12l224 712h64l-224 -712h-64z" />
    <glyph glyph-name="backslash" unicode="\" horiz-adv-x="312" 
d="M236 -12l-224 712h64l224 -712h-64z" />
    <glyph glyph-name="quotesinglbase" unicode="&#x201a;" horiz-adv-x="196" 
d="M88 0h-36v100h92v-96l-36 -144h-42z" />
    <glyph glyph-name="quotedblbase" unicode="&#x201e;" horiz-adv-x="352" 
d="M88 0h-36v100h92v-96l-36 -144h-42zM244 0h-36v100h92v-96l-36 -144h-42z" />
    <glyph glyph-name="quoteleft" unicode="&#x2018;" horiz-adv-x="196" 
d="M52 448v96l36 144h42l-22 -140h36v-100h-92z" />
    <glyph glyph-name="quotedblleft" unicode="&#x201c;" horiz-adv-x="352" 
d="M52 448v96l36 144h42l-22 -140h36v-100h-92zM208 448v96l36 144h42l-22 -140h36v-100h-92z" />
    <glyph glyph-name="quoteright" unicode="&#x2019;" horiz-adv-x="196" 
d="M66 448l22 140h-36v100h92v-96l-36 -144h-42z" />
    <glyph glyph-name="quotedblright" unicode="&#x201d;" horiz-adv-x="352" 
d="M66 448l22 140h-36v100h92v-96l-36 -144h-42zM222 448l22 140h-36v100h92v-96l-36 -144h-42z" />
    <glyph glyph-name="asterisk" unicode="*" horiz-adv-x="328" 
d="M133 696h60l-14 -113l104 48l19 -58l-113 -22l79 -83l-50 -36l-55 100l-55 -100l-50 36l78 83l-112 22l19 58l103 -49z" />
    <glyph glyph-name="degree" unicode="&#xb0;" horiz-adv-x="328" 
d="M164 436q-57 0 -96.5 36.5t-39.5 95.5t39.5 95.5t96.5 36.5t96.5 -36.5t39.5 -95.5t-39.5 -95.5t-96.5 -36.5v0zM164 638q-28 0 -47 -19.5t-19 -50.5t19 -50.5t47 -19.5t47 19.5t19 50.5t-19 50.5t-47 19.5v0z" />
    <glyph glyph-name="quotesingle" unicode="'" horiz-adv-x="188" 
d="M72 448l-20 160v80h84v-80l-20 -160h-44z" />
    <glyph glyph-name="quotedbl" unicode="&#x22;" horiz-adv-x="324" 
d="M72 448l-20 160v80h84v-80l-20 -160h-44zM208 448l-20 160v80h84v-80l-20 -160h-44z" />
    <glyph glyph-name="ordfeminine" unicode="&#xaa;" horiz-adv-x="288" 
d="M112 336q-45 0 -68.5 25.5t-23.5 64.5q0 45 24 71.5t72 38.5l32 8q22 5 29 11.5t7 28.5q0 34 -11 47t-33 13q-20 0 -33.5 -14.5t-14.5 -49.5h-64q3 60 34.5 88t77.5 28q60 0 86 -28t26 -84v-240h-64v36h-2q-10 -24 -29.5 -34t-44.5 -10v0zM128 388q19 0 37.5 16t18.5 66
v40q-3 -4 -8 -6.5t-12 -3.5l-32 -8q-24 -6 -34 -21t-10 -35q0 -22 11.5 -35t28.5 -13v0z" />
    <glyph glyph-name="ordmasculine" unicode="&#xba;" horiz-adv-x="296" 
d="M148 336q-55 0 -89.5 42t-34.5 138t34.5 138t89.5 42t89.5 -42t34.5 -138t-34.5 -138t-89.5 -42v0zM148 388q25 0 40.5 28t15.5 100t-15.5 100t-40.5 28t-40.5 -28t-15.5 -100t15.5 -100t40.5 -28v0z" />
    <glyph glyph-name="trademark" unicode="&#x2122;" horiz-adv-x="584" 
d="M260 344v344h84l64 -256h4l64 256h84v-344h-60l4 252h-4l-64 -252h-52l-64 252h-4l4 -252h-60zM4 632v56h224v-56h-80v-288h-60v288h-84z" />
    <glyph glyph-name="copyright" unicode="&#xa9;" horiz-adv-x="568" 
d="M24 344q0 156 72 256t188 100t188 -100t72 -256t-72 -256t-188 -100t-188 100t-72 256v0zM84 344q0 -124 53.5 -212t146.5 -88t146.5 88t53.5 212t-53.5 212t-146.5 88t-146.5 -88t-53.5 -212v0zM164 348q0 72 33 124t91 52q45 0 73 -32t35 -84h-56q-5 28 -17 44t-35 16
q-30 0 -47 -35.5t-17 -84.5t17 -84.5t47 -35.5q23 0 35 16t17 44h56q-7 -52 -35 -84t-73 -32q-58 0 -91 52t-33 124v0z" />
    <glyph glyph-name="registered" unicode="&#xae;" horiz-adv-x="568" 
d="M24 344q0 156 72 256t188 100t188 -100t72 -256t-72 -256t-188 -100t-188 100t-72 256v0zM84 344q0 -124 53.5 -212t146.5 -88t146.5 88t53.5 212t-53.5 212t-146.5 88t-146.5 -88t-53.5 -212v0zM184 176v344h94q57 0 87.5 -29t30.5 -79q0 -32 -16.5 -57t-43.5 -38
l68 -141h-64l-56 128h-40v-128h-60zM276 464h-32v-108h32q30 0 45 16t15 40q0 26 -15.5 39t-44.5 13v0z" />
    <glyph glyph-name="paragraph" unicode="&#xb6;" horiz-adv-x="464" 
d="M336 0v688h72v-688h-72zM192 0v248q-72 6 -120 66.5t-48 153.5q0 99 54 159.5t138 60.5h48v-688h-72z" />
    <glyph glyph-name="dagger" unicode="&#x2020;" horiz-adv-x="400" 
d="M32 464v56h136v168h64v-168h136v-56h-136v-464h-64v464h-136z" />
    <glyph glyph-name="daggerdbl" unicode="&#x2021;" horiz-adv-x="400" 
d="M32 456v56h136v176h64v-176h136v-56h-136v-228h136v-56h-136v-172h-64v172h-136v56h136v228h-136z" />
    <glyph glyph-name="section" unicode="&#xa7;" horiz-adv-x="408" 
d="M40 -68h76q3 -51 27 -73.5t57 -22.5q40 0 62 24.5t22 71.5q0 40 -17.5 62.5t-50.5 37.5l-60 28q-61 28 -92.5 67t-31.5 105q0 44 26.5 86.5t69.5 68.5q-37 22 -60.5 56.5t-23.5 88.5q0 75 44.5 121.5t119.5 46.5q66 0 111 -37t49 -123h-76q-3 51 -27 73.5t-57 22.5
q-40 0 -62 -24.5t-22 -71.5q0 -40 17.5 -62.5t50.5 -37.5l60 -28q61 -28 92.5 -67t31.5 -105q0 -44 -26.5 -87t-69.5 -68q36 -22 60 -57t24 -88q0 -75 -44.5 -121.5t-119.5 -46.5q-66 0 -111 37t-49 123v0zM216 344l-32 14q-35 -18 -57.5 -48t-22.5 -70q0 -48 23.5 -70.5
t64.5 -41.5l31 -15q35 18 58 48.5t23 70.5q0 48 -23.5 70.5t-64.5 41.5v0z" />
    <glyph glyph-name="underscore" unicode="_" horiz-adv-x="360" 
d="M0 -72h360v-60h-360v60z" />
    <glyph glyph-name="exclam.sc" horiz-adv-x="200" 
d="M76 148l-20 228v144h88v-144l-20 -228h-48zM56 0v100h88v-100h-88z" />
    <glyph glyph-name="question.sc" horiz-adv-x="360" 
d="M136 152v16q0 104 60 130.5t60 93.5q0 30 -20 49t-56 19q-43 0 -61.5 -29t-18.5 -67h-76q0 63 37.5 113.5t118.5 50.5q72 0 114 -37t42 -99q0 -81 -62 -114.5t-62 -101.5v-24h-76zM132 0v100h88v-100h-88z" />
    <glyph glyph-name="exclamdown.sc" horiz-adv-x="200" 
d="M56 420v100h88v-100h-88zM56 0v144l20 228h48l20 -228v-144h-88z" />
    <glyph glyph-name="questiondown.sc" horiz-adv-x="360" 
d="M224 368v-16q0 -104 -60 -130.5t-60 -93.5q0 -30 20 -49t56 -19q43 0 61.5 29t18.5 67h76q0 -63 -37.5 -113.5t-118.5 -50.5q-72 0 -114 37t-42 99q0 81 62 114.5t62 101.5v24h76zM228 520v-100h-88v100h88z" />
    <glyph glyph-name="hyphen.sc" horiz-adv-x="284" 
d="M40 228v72h204v-72h-204z" />
    <glyph glyph-name="endash.sc" horiz-adv-x="400" 
d="M40 228v72h320v-72h-320z" />
    <glyph glyph-name="emdash.sc" horiz-adv-x="604" 
d="M40 228v72h524v-72h-524z" />
    <glyph glyph-name="periodcentered.sc" horiz-adv-x="208" 
d="M56 212v104h96v-104h-96z" />
    <glyph glyph-name="bullet.sc" horiz-adv-x="408" 
d="M204 132q-54 0 -93 38.5t-39 93.5t39 93.5t93 38.5t93 -38.5t39 -93.5t-39 -93.5t-93 -38.5v0z" />
    <glyph glyph-name="guilsinglleft.sc" horiz-adv-x="212" 
d="M116 112l-80 152l80 152h60l-64 -152l64 -152h-60z" />
    <glyph glyph-name="guilsinglright.sc" horiz-adv-x="212" 
d="M36 112l64 152l-64 152h60l80 -152l-80 -152h-60z" />
    <glyph glyph-name="guillemotleft.sc" horiz-adv-x="336" 
d="M240 112l-80 152l80 152h60l-64 -152l64 -152h-60zM116 112l-80 152l80 152h60l-64 -152l64 -152h-60z" />
    <glyph glyph-name="guillemotright.sc" horiz-adv-x="336" 
d="M160 112l64 152l-64 152h60l80 -152l-80 -152h-60zM36 112l64 152l-64 152h60l80 -152l-80 -152h-60z" />
    <glyph glyph-name="parenleft.sc" horiz-adv-x="228" 
d="M212 -92h-68q-28 50 -58 143.5t-30 208.5t30 208.5t58 143.5h68q-19 -40 -49.5 -138.5t-30.5 -213.5t30.5 -213.5t49.5 -138.5v0z" />
    <glyph glyph-name="parenright.sc" horiz-adv-x="228" 
d="M16 -92q19 40 49.5 138.5t30.5 213.5t-30.5 213.5t-49.5 138.5h68q28 -50 58 -143.5t30 -208.5t-30 -208.5t-58 -143.5h-68z" />
    <glyph glyph-name="bracketleft.sc" horiz-adv-x="224" 
d="M56 -92v704h152v-60h-80v-584h80v-60h-152z" />
    <glyph glyph-name="bracketright.sc" horiz-adv-x="224" 
d="M16 -32h80v584h-80v60h152v-704h-152v60z" />
    <glyph glyph-name="braceleft.sc" horiz-adv-x="232" 
d="M76 32v120q0 43 -13.5 61.5t-50.5 18.5v56q37 0 50.5 18.5t13.5 61.5v120q0 57 22 90.5t82 33.5h36v-56h-24q-25 0 -34.5 -16.5t-9.5 -47.5v-132q0 -40 -13 -64.5t-43 -35.5v-4q30 -12 43 -36t13 -64v-128q0 -31 9.5 -47.5t34.5 -16.5h24v-56h-36q-60 0 -82 33.5
t-22 90.5v0z" />
    <glyph glyph-name="braceright.sc" horiz-adv-x="232" 
d="M16 -36h24q25 0 34.5 16.5t9.5 47.5v128q0 40 13 64t43 36v4q-30 11 -43 35.5t-13 64.5v132q0 31 -9.5 47.5t-34.5 16.5h-24v56h36q60 0 82 -33.5t22 -90.5v-120q0 -43 13.5 -61.5t50.5 -18.5v-56q-37 0 -50.5 -18.5t-13.5 -61.5v-120q0 -57 -22 -90.5t-82 -33.5h-36v56z
" />
    <glyph glyph-name="slash.sc" horiz-adv-x="260" 
d="M12 -12l172 544h64l-172 -544h-64z" />
    <glyph glyph-name="backslash.sc" horiz-adv-x="260" 
d="M184 -12l-172 544h64l172 -544h-64z" />
    <glyph glyph-name="quoteleft.sc" horiz-adv-x="204" 
d="M56 280v96l36 144h42l-22 -140h36v-100h-92z" />
    <glyph glyph-name="quotedblleft.sc" horiz-adv-x="364" 
d="M56 280v96l36 144h42l-22 -140h36v-100h-92zM216 280v96l36 144h42l-22 -140h36v-100h-92z" />
    <glyph glyph-name="quoteright.sc" horiz-adv-x="204" 
d="M70 280l22 140h-36v100h92v-96l-36 -144h-42z" />
    <glyph glyph-name="quotedblright.sc" horiz-adv-x="360" 
d="M70 280l22 140h-36v100h92v-96l-36 -144h-42zM226 280l22 140h-36v100h92v-96l-36 -144h-42z" />
    <glyph glyph-name="asterisk.sc" horiz-adv-x="328" 
d="M133 528h60l-14 -113l104 48l19 -58l-113 -22l79 -83l-50 -36l-55 100l-55 -100l-50 36l78 83l-112 22l19 58l103 -49z" />
    <glyph glyph-name="degree.sc" horiz-adv-x="328" 
d="M164 268q-57 0 -96.5 36.5t-39.5 95.5t39.5 95.5t96.5 36.5t96.5 -36.5t39.5 -95.5t-39.5 -95.5t-96.5 -36.5v0zM164 470q-28 0 -47 -19.5t-19 -50.5t19 -50.5t47 -19.5t47 19.5t19 50.5t-19 50.5t-47 19.5v0z" />
    <glyph glyph-name="quotesingle.sc" horiz-adv-x="188" 
d="M72 280l-20 160v80h84v-80l-20 -160h-44z" />
    <glyph glyph-name="quotedbl.sc" horiz-adv-x="324" 
d="M72 280l-20 160v80h84v-80l-20 -160h-44zM208 280l-20 160v80h84v-80l-20 -160h-44z" />
    <glyph glyph-name="ordfeminine.sc" horiz-adv-x="216" 
d="M79 254q-32 0 -49.5 19.5t-17.5 48.5q0 34 18 54t55 29l24 6q16 4 21.5 9t5.5 21q0 25 -8.5 35.5t-24.5 10.5q-15 0 -25 -11t-11 -38h-49q2 46 26 67t59 21q46 0 65.5 -21t19.5 -64v-181h-49v22h-3q-9 -15 -24 -21.5t-33 -6.5v0zM94 293q16 0 29 12.5t13 48.5v33
q-2 -3 -6 -5.5t-9 -3.5l-24 -6q-18 -4 -25.5 -15.5t-7.5 -26.5q0 -16 8.5 -26.5t21.5 -10.5v0z" />
    <glyph glyph-name="ordmasculine.sc" horiz-adv-x="220" 
d="M110 254q-42 0 -68 31.5t-26 104.5t26 104.5t68 31.5t68 -31.5t26 -104.5t-26 -104.5t-68 -31.5v0zM110 293q19 0 30.5 21.5t11.5 75.5t-11.5 75.5t-30.5 21.5t-30.5 -21.5t-11.5 -75.5t11.5 -75.5t30.5 -21.5v0z" />
    <glyph glyph-name="trademark.sc" horiz-adv-x="464" 
d="M204 260v260h76l40 -180h4l40 180h76v-260h-52l4 184h-4l-44 -184h-44l-44 184h-4l4 -184h-52zM4 472v48h180v-48h-64v-212h-52v212h-64z" />
    <glyph glyph-name="copyright.sc" 
d="M24 260q0 118 53 193t143 75t143 -75t53 -193t-53 -193t-143 -75t-143 75t-53 193v0zM72 260q0 -93 39.5 -158.5t108.5 -65.5t108.5 65.5t39.5 158.5t-39.5 158.5t-108.5 65.5t-108.5 -65.5t-39.5 -158.5v0zM132 264q0 61 22.5 98.5t69.5 37.5q38 0 59 -26t25 -66h-48
q-4 20 -12 32t-24 12q-20 0 -30 -23.5t-10 -64.5t10 -64.5t30 -23.5q16 0 24 12t12 32h48q-4 -40 -25 -66t-59 -26q-47 0 -69.5 37.5t-22.5 98.5v0z" />
    <glyph glyph-name="registered.sc" 
d="M24 260q0 118 53 193t143 75t143 -75t53 -193t-53 -193t-143 -75t-143 75t-53 193v0zM72 260q0 -93 39.5 -158.5t108.5 -65.5t108.5 65.5t39.5 158.5t-39.5 158.5t-108.5 65.5t-108.5 -65.5t-39.5 -158.5v0zM144 136v256h72q46 0 69 -21t23 -59q0 -25 -12 -44.5
t-33 -29.5l53 -102h-56l-45 92h-19v-92h-52zM216 344h-20v-72h20q20 0 30 9.5t10 26.5q0 18 -10.5 27t-29.5 9v0z" />
    <glyph glyph-name="paragraph.sc" horiz-adv-x="400" 
d="M276 0v520h68v-520h-68zM148 0v188q-51 7 -87.5 50t-36.5 114q0 75 43 121.5t109 46.5h40v-520h-68z" />
    <glyph glyph-name="dagger.sc" horiz-adv-x="332" 
d="M32 340v52h104v128h60v-128h104v-52h-104v-340h-60v340h-104z" />
    <glyph glyph-name="daggerdbl.sc" horiz-adv-x="332" 
d="M32 340v52h104v128h60v-128h104v-52h-104v-164h104v-52h-104v-124h-60v124h-104v52h104v164h-104z" />
    <glyph glyph-name="section.sc" horiz-adv-x="340" 
d="M32 -52h72q1 -34 19.5 -49t40.5 -15q26 0 45 16.5t19 47.5q0 28 -17 44.5t-39 27.5l-48 24q-42 21 -67 48t-25 76q0 36 21 69.5t57 51.5q-27 16 -48.5 42t-21.5 69q0 57 36.5 92.5t99.5 35.5q54 0 91.5 -29t40.5 -91h-72q-1 34 -19.5 49t-40.5 15q-26 0 -45 -16.5
t-19 -47.5q0 -28 17 -44.5t39 -27.5l48 -24q42 -21 67 -48t25 -76q0 -36 -21 -69.5t-58 -52.5q28 -16 49.5 -41.5t21.5 -68.5q0 -57 -36.5 -92.5t-99.5 -35.5q-54 0 -91.5 29t-40.5 91v0zM176 256l-18 9q-26 -14 -42 -35.5t-16 -49.5q0 -36 17.5 -50.5t46.5 -29.5l18 -9
q26 13 42 35t16 50q0 36 -17.5 50.5t-46.5 29.5v0z" />
    <glyph glyph-name="exclamdown.cap" horiz-adv-x="212" 
d="M60 584v104h96v-104h-96zM64 0v192l20 308h48l20 -308v-192h-88z" />
    <glyph glyph-name="questiondown.cap" horiz-adv-x="372" 
d="M144 584v104h96v-104h-96zM24 152q0 119 64 160.5t64 139.5v44h80v-28q0 -142 -62 -178.5t-62 -129.5q0 -43 17.5 -71.5t58.5 -28.5q51 0 69.5 40t18.5 96h76q0 -78 -35.5 -143t-128.5 -65q-79 0 -119.5 46t-40.5 118v0z" />
    <glyph glyph-name="hyphen.cap" horiz-adv-x="284" 
d="M40 312v72h204v-72h-204z" />
    <glyph glyph-name="endash.cap" horiz-adv-x="400" 
d="M40 312v72h320v-72h-320z" />
    <glyph glyph-name="emdash.cap" horiz-adv-x="604" 
d="M40 312v72h524v-72h-524z" />
    <glyph glyph-name="periodcentered.cap" horiz-adv-x="208" 
d="M56 296v104h96v-104h-96z" />
    <glyph glyph-name="bullet.cap" horiz-adv-x="424" 
d="M212 176q-72 0 -122 50t-50 122t50 122t122 50t122 -50t50 -122t-50 -122t-122 -50v0z" />
    <glyph glyph-name="guilsinglleft.cap" horiz-adv-x="240" 
d="M140 144l-104 204l104 204h64l-84 -204l84 -204h-64z" />
    <glyph glyph-name="guilsinglright.cap" horiz-adv-x="240" 
d="M36 144l84 204l-84 204h64l104 -204l-104 -204h-64z" />
    <glyph glyph-name="guillemotleft.cap" horiz-adv-x="388" 
d="M288 144l-104 204l104 204h64l-84 -204l84 -204h-64zM140 144l-104 204l104 204h64l-84 -204l84 -204h-64z" />
    <glyph glyph-name="guillemotright.cap" horiz-adv-x="388" 
d="M184 144l84 204l-84 204h64l104 -204l-104 -204h-64zM36 144l84 204l-84 204h64l104 -204l-104 -204h-64z" />
    <glyph glyph-name="parenleft.cap" horiz-adv-x="228" 
d="M136 -56q-31 75 -55.5 177.5t-24.5 222.5t24.5 222.5t55.5 177.5h76q-28 -73 -54 -178t-26 -222t26 -222t54 -178h-76z" />
    <glyph glyph-name="parenright.cap" horiz-adv-x="228" 
d="M16 -56q28 73 54 178t26 222t-26 222t-54 178h76q31 -75 55.5 -177.5t24.5 -222.5t-24.5 -222.5t-55.5 -177.5h-76z" />
    <glyph glyph-name="bracketleft.cap" horiz-adv-x="252" 
d="M56 -56v800h180v-64h-108v-672h108v-64h-180z" />
    <glyph glyph-name="bracketright.cap" horiz-adv-x="252" 
d="M16 8h108v672h-108v64h180v-800h-180v64z" />
    <glyph glyph-name="braceleft.cap" horiz-adv-x="272" 
d="M92 84v132q0 52 -15.5 78t-64.5 26v52q49 0 64.5 26t15.5 78v128q0 68 24.5 104t95.5 36h44v-60h-32q-34 0 -47 -19t-13 -61v-120q0 -54 -16 -87.5t-56 -48.5v-4q40 -15 56 -48.5t16 -87.5v-124q0 -42 13 -61t47 -19h32v-60h-44q-71 0 -95.5 36t-24.5 104v0z" />
    <glyph glyph-name="braceright.cap" horiz-adv-x="272" 
d="M16 4h32q34 0 47 19t13 61v124q0 54 16 87.5t56 48.5v4q-40 15 -56 48.5t-16 87.5v120q0 42 -13 61t-47 19h-32v60h44q71 0 95.5 -36t24.5 -104v-128q0 -52 15.5 -78t64.5 -26v-52q-49 0 -64.5 -26t-15.5 -78v-132q0 -68 -24.5 -104t-95.5 -36h-44v60z" />
    <glyph glyph-name="plus" unicode="+" 
d="M36 220v68h148v156h72v-156h148v-68h-148v-156h-72v156h-148z" />
    <glyph glyph-name="minus" unicode="&#x2212;" 
d="M36 220v68h368v-68h-368z" />
    <glyph glyph-name="multiply" unicode="&#xd7;" 
d="M40 396l48 48l134 -139l134 139l48 -48l-135 -140l135 -140l-48 -48l-134 139l-134 -139l-48 48l135 140z" />
    <glyph glyph-name="divide" unicode="&#xf7;" 
d="M180 360v84h80v-84h-80zM40 220v68h360v-68h-360zM180 64v84h80v-84h-80z" />
    <glyph glyph-name="equal" unicode="=" 
d="M40 320v68h360v-68h-360zM40 120v68h360v-68h-360z" />
    <glyph glyph-name="less" unicode="&#x3c;" 
d="M52 220v68l336 164v-76l-258 -122l258 -122v-76z" />
    <glyph glyph-name="greater" unicode="&#x3e;" 
d="M388 288v-68l-336 -164v76l258 122l-258 122v76z" />
    <glyph glyph-name="plusminus" unicode="&#xb1;" 
d="M40 280v68h144v156h72v-156h144v-68h-144v-156h-72v156h-144zM40 0v68h360v-68h-360z" />
    <glyph glyph-name="lessequal" unicode="&#x2264;" 
d="M52 280v68l336 164v-76l-258 -122l258 -122v-76zM52 0v68h336v-68h-336z" />
    <glyph glyph-name="greaterequal" unicode="&#x2265;" 
d="M388 348v-68l-336 -164v76l258 122l-258 122v76zM52 0v68h336v-68h-336z" />
    <glyph glyph-name="notequal" unicode="&#x2260;" 
d="M40 320v68h201l55 140l52 -24l-46 -116h98v-68h-125l-52 -132h177v-68h-204l-56 -144l-52 24l47 120h-95v68h122l52 132h-174z" />
    <glyph glyph-name="logicalnot" unicode="&#xac;" 
d="M40 220v68h360v-224h-72v156h-288z" />
    <glyph glyph-name="asciicircum" unicode="^" 
d="M36 352l148 336h72l148 -336h-78l-106 254l-108 -254h-76z" />
    <glyph glyph-name="asciitilde" unicode="~" 
d="M52 180q0 73 29 106.5t67 33.5q48 0 81 -34t59 -34q17 0 26.5 15.5t9.5 52.5h64q0 -73 -29 -106.5t-67 -33.5q-46 0 -80.5 34t-59.5 34q-17 0 -26.5 -15.5t-9.5 -52.5h-64z" />
    <glyph glyph-name="approxequal" unicode="&#x2248;" 
d="M52 284q0 73 29 106.5t67 33.5q48 0 81 -34t59 -34q17 0 26.5 15.5t9.5 52.5h64q0 -73 -29 -106.5t-67 -33.5q-46 0 -80.5 34t-59.5 34q-17 0 -26.5 -15.5t-9.5 -52.5h-64zM52 84q0 73 29 106.5t67 33.5q48 0 81 -34t59 -34q17 0 26.5 15.5t9.5 52.5h64q0 -73 -29 -106.5
t-67 -33.5q-46 0 -80.5 34t-59.5 34q-17 0 -26.5 -15.5t-9.5 -52.5h-64z" />
    <glyph glyph-name="infinity" unicode="&#x221e;" horiz-adv-x="520" 
d="M148 92q-53 0 -84.5 44.5t-31.5 115.5t31.5 115.5t84.5 44.5q40 0 66.5 -27.5t45.5 -67.5q18 40 45 67.5t67 27.5q53 0 84.5 -44.5t31.5 -115.5t-31.5 -115.5t-84.5 -44.5q-40 0 -67 27t-45 67q-19 -40 -45.5 -67t-66.5 -27v0zM152 156q33 0 50 29.5t30 66.5
q-13 37 -30 66.5t-50 29.5q-28 0 -42 -29.5t-14 -66.5t14 -66.5t42 -29.5v0zM288 252q13 -37 30 -66.5t50 -29.5q28 0 42 29.5t14 66.5t-14 66.5t-42 29.5q-33 0 -50 -29.5t-30 -66.5v0z" />
    <glyph glyph-name="numbersign" unicode="#" horiz-adv-x="520" 
d="M60 464v60h103l29 164h68l-29 -164h124l29 164h68l-29 -164h77v-60h-87l-41 -236h88v-60h-99l-29 -168h-68l29 168h-124l-29 -168h-68l29 168h-81v60h92l41 236h-93zM221 464l-41 -236h124l41 236h-124z" />
    <glyph glyph-name="plus.sc" horiz-adv-x="392" 
d="M36 232v64h124v132h68v-132h124v-64h-124v-132h-68v132h-124z" />
    <glyph glyph-name="minus.sc" horiz-adv-x="392" 
d="M36 232v64h316v-64h-316z" />
    <glyph glyph-name="multiply.sc" horiz-adv-x="392" 
d="M76 104l-44 44l114 116l-114 116l44 44l114 -116l114 116l44 -44l-115 -116l115 -116l-44 -44l-114 116z" />
    <glyph glyph-name="divide.sc" horiz-adv-x="392" 
d="M160 360v76h72v-76h-72zM36 232v64h316v-64h-316zM160 92v76h72v-76h-72z" />
    <glyph glyph-name="equal.sc" horiz-adv-x="392" 
d="M36 312v64h316v-64h-316zM36 152v64h316v-64h-316z" />
    <glyph glyph-name="less.sc" horiz-adv-x="392" 
d="M340 156v-72l-292 148v64l292 148v-72l-226 -108z" />
    <glyph glyph-name="greater.sc" horiz-adv-x="392" 
d="M52 372v72l292 -148v-64l-292 -148v72l225 108z" />
    <glyph glyph-name="plusminus.sc" horiz-adv-x="392" 
d="M56 232v64h104v112h68v-112h108v-64h-108v-112h-68v112h-104zM56 0v64h280v-64h-280z" />
    <glyph glyph-name="lessequal.sc" horiz-adv-x="392" 
d="M336 344l-202 -80l202 -80v-64l-280 112v64l280 112v-64zM56 0v64h280v-64h-280z" />
    <glyph glyph-name="greaterequal.sc" horiz-adv-x="392" 
d="M56 344v64l280 -112v-64l-280 -112v64l201 80zM56 64h280v-64h-280v64z" />
    <glyph glyph-name="notequal.sc" horiz-adv-x="392" 
d="M36 312v64h182l46 100l44 -20l-37 -80h81v-64h-110l-44 -96h154v-64h-183l-45 -100l-44 20l36 80h-80v64h109l44 96h-153z" />
    <glyph glyph-name="logicalnot.sc" horiz-adv-x="392" 
d="M36 232v64h316v-200h-68v136h-248z" />
    <glyph glyph-name="asciitilde.sc" horiz-adv-x="392" 
d="M36 212q0 60 29 84t59 24q42 0 75.5 -24t60.5 -24q15 0 25.5 10.5t10.5 37.5h56q0 -60 -29 -84t-59 -24q-42 0 -75.5 24t-60.5 24q-15 0 -25.5 -10.5t-10.5 -37.5h-56z" />
    <glyph glyph-name="approxequal.sc" horiz-adv-x="392" 
d="M36 132q0 60 29 84t59 24q42 0 75.5 -24t60.5 -24q15 0 25.5 10.5t10.5 37.5h56q0 -60 -29 -84t-59 -24q-42 0 -75.5 24t-60.5 24q-15 0 -25.5 -10.5t-10.5 -37.5h-56zM36 288q0 60 29 84t59 24q42 0 75.5 -24t60.5 -24q15 0 25.5 10.5t10.5 37.5h56q0 -60 -29 -84
t-59 -24q-42 0 -75.5 24t-60.5 24q-15 0 -25.5 -10.5t-10.5 -37.5h-56z" />
    <glyph glyph-name="infinity.sc" horiz-adv-x="392" 
d="M108 144q-46 0 -71 33t-25 87t25 87t71 33q30 0 51.5 -19t36.5 -48q14 29 35.5 48t52.5 19q46 0 71 -33t25 -87t-25 -87t-71 -33q-31 0 -52.5 19t-35.5 48q-15 -29 -36.5 -48t-51.5 -19v0zM224 264q9 -27 22 -45.5t34 -18.5q23 0 33.5 19t10.5 45t-10.5 45t-33.5 19
q-21 0 -34 -18t-22 -46v0zM112 200q21 0 34 18.5t22 45.5q-9 28 -22 46t-34 18q-23 0 -33.5 -19t-10.5 -45t10.5 -45t33.5 -19v0z" />
    <glyph glyph-name="numbersign.sc" horiz-adv-x="424" 
d="M36 348v56h87l21 116h64l-21 -116h104l21 116h64l-21 -116h65v-56h-75l-29 -164h76v-56h-86l-22 -128h-64l22 128h-104l-22 -128h-64l22 128h-66v56h76l29 164h-77zM177 348l-29 -164h104l29 164h-104z" />
    <glyph glyph-name="radical" unicode="&#x221a;" horiz-adv-x="448" 
d="M28 312v68l112 40l84 -340h4l144 608h68l-168 -688h-92l-88 335z" />
    <glyph glyph-name="lozenge" unicode="&#x25ca;" horiz-adv-x="484" 
d="M204 0l-172 344l168 344h76l176 -344l-172 -344h-76zM240 624h-4l-132 -276l136 -284h4l136 276z" />
    <glyph glyph-name="Delta" unicode="&#x2206;" horiz-adv-x="488" 
d="M24 0l172 688h92l176 -688h-440zM244 608h-4l-121 -540h246z" />
    <glyph glyph-name="Omega" unicode="&#x2126;" horiz-adv-x="544" 
d="M312 0v240q41 15 78.5 60.5t37.5 135.5q0 86 -42 141t-114 55t-114 -55t-42 -141q0 -90 37.5 -135.5t78.5 -60.5v-240h-172v68h100v137q-54 30 -89 88.5t-35 142.5q0 111 61.5 187.5t174.5 76.5t174.5 -76.5t61.5 -187.5q0 -86 -35 -144t-89 -88v-136h100v-68h-172z" />
    <glyph glyph-name="summation" unicode="&#x2211;" horiz-adv-x="416" 
d="M20 0v52l160 288l-152 288v60h356v-68h-265l141 -268l-152 -284h284v-68h-372z" />
    <glyph glyph-name="partialdiff" unicode="&#x2202;" horiz-adv-x="424" 
d="M20 172q0 135 57 199.5t127 64.5q40 0 68 -19.5t39 -54.5q3 31 4 59t1 51q0 87 -21.5 123.5t-62.5 36.5q-46 0 -66.5 -34t-29.5 -82h-76q15 81 57 132.5t123 51.5q71 0 113.5 -52t42.5 -176q0 -129 -38 -306.5t-190 -177.5q-66 0 -107 48t-41 136v0zM176 56q66 0 91 68.5
t25 123.5q0 59 -22 89.5t-58 30.5q-52 0 -82 -51.5t-30 -144.5q0 -57 19.5 -86.5t56.5 -29.5v0z" />
    <glyph glyph-name="integral" unicode="&#x222b;" horiz-adv-x="276" 
d="M28 -116h20q51 0 63.5 26t8.5 86l-40 632q-7 104 19.5 150t120.5 46h28v-68h-20q-51 0 -63.5 -26t-8.5 -86l40 -632q7 -104 -19.5 -150t-120.5 -46h-28v68z" />
    <glyph glyph-name="product" unicode="&#x220f;" horiz-adv-x="516" 
d="M60 0v688h396v-688h-80v620h-236v-620h-80z" />
    <glyph glyph-name="pi" unicode="&#x3c0;" horiz-adv-x="436" 
d="M60 0v488h316v-488h-80v420h-156v-420h-80z" />
    <glyph glyph-name="mu" unicode="&#xb5;" horiz-adv-x="436" 
d="M300 0v52h-4q-12 -31 -41.5 -47.5t-62.5 -16.5q-16 0 -31.5 3t-28.5 9q4 -48 6 -79t2 -79v-62h-80v708h80v-336q0 -57 19.5 -76.5t52.5 -19.5q34 0 59 29.5t25 86.5v316h80v-488h-76z" />
    <glyph glyph-name="afii61352" unicode="&#x2116;" horiz-adv-x="880" 
d="M60 0v688h76l260 -496h4l-4 496h84v-688h-76l-260 496h-4l4 -496h-84zM588 517q0 96 34.5 138t89.5 42t89.5 -42t34.5 -138t-34.5 -138t-89.5 -42t-89.5 42t-34.5 138v0zM656 517q0 -72 15.5 -100t40.5 -28t40.5 28t15.5 100t-15.5 100t-40.5 28t-40.5 -28t-15.5 -100v0z
M588 0v56h248v-56h-248zM588 184v56h248v-56h-248z" />
    <glyph glyph-name="estimated" unicode="&#x212e;" horiz-adv-x="850" 
d="M184 113q45 -47 108 -75t135 -28q76 0 142.5 31.5t112.5 85.5h58q-54 -63 -136.5 -101t-177.5 -38q-163 0 -280 104t-117 252q0 147 117 251.5t280 104.5t279.5 -104.5t116.5 -251.5v-10h-641q-3 0 -5 -1t-2 -3v-194q0 -6 3 -12t7 -11v0zM181 355h492q1 0 2.5 1.5
t1.5 4.5v193q0 7 -2.5 13t-7.5 11q-46 46 -108.5 73t-131.5 27q-72 0 -134.5 -28.5t-107.5 -74.5q-5 -5 -8 -12t-3 -14v-188q0 -3 2 -4.5t5 -1.5v0z" />
    <glyph glyph-name="afii61289" unicode="&#x2113;" horiz-adv-x="412" 
d="M129 26q-21 22 -29.5 57.5t-8.5 81.5v74l-2 1l-59 -41l-12 24q19 15 37 30t36 31v136q0 107 19.5 161t53.5 85q20 18 41 25.5t44 7.5q47 0 74 -34.5t27 -93.5q0 -99 -66 -168.5t-115 -108.5v-109q0 -81 27 -109.5t64 -28.5q35 0 63.5 21t54.5 59l22 -16
q-24 -57 -67.5 -90t-101.5 -33q-34 0 -59.5 10t-42.5 28v0zM171 342q46 40 83.5 99t37.5 131q0 46 -15 68.5t-40 22.5q-32 0 -50 -40.5t-18 -138.5v-141z" />
    <glyph glyph-name="currency" unicode="&#xa4;" 
d="M84 164l-44 44l52 52q-11 18 -17.5 38.5t-6.5 45.5t6.5 45.5t17.5 38.5l-52 52l44 44l52 -52q18 12 38.5 18t45.5 6t45.5 -6t38.5 -18l52 52l44 -44l-52 -52q11 -18 17.5 -38.5t6.5 -45.5t-6.5 -45.5t-17.5 -38.5l52 -52l-44 -44l-52 52q-18 -12 -38.5 -18t-45.5 -6
t-45.5 6t-38.5 18zM220 248q38 0 65 26.5t27 69.5t-27 69.5t-65 26.5t-65 -26.5t-27 -69.5t27 -69.5t65 -26.5v0z" />
    <glyph glyph-name="dollar" unicode="$" 
d="M32 192h76q3 -65 29 -100.5t75 -35.5q54 0 79 32.5t25 83.5q0 60 -31.5 85.5t-68.5 44.5l-56 28q-42 21 -81 61t-39 121q0 73 37.5 122.5t98.5 61.5v108h72v-107q60 -11 96 -58.5t40 -122.5h-76q-4 61 -29 88.5t-67 27.5q-37 0 -64.5 -29t-27.5 -83t26 -78t66 -44l56 -28
q55 -28 91.5 -73t36.5 -117q0 -76 -41 -127t-107 -62v-111h-72v111q-70 11 -106.5 64t-37.5 137v0z" />
    <glyph glyph-name="cent" unicode="&#xa2;" 
d="M192 -12v107q-60 13 -98 73t-38 180q0 122 39 182.5t101 70.5v99h72v-100q47 -11 78 -51t38 -113h-76q-6 55 -27.5 77.5t-52.5 22.5q-39 0 -65.5 -40.5t-26.5 -147.5t26.5 -147.5t65.5 -40.5q31 0 52.5 22.5t27.5 77.5h76q-7 -75 -39 -115t-81 -50v-107h-72z" />
    <glyph glyph-name="Euro" unicode="&#x20ac;" 
d="M8 400l16 52h45q13 118 57.5 183t125.5 65q66 0 102.5 -40t49.5 -112h-72q-9 41 -29.5 62.5t-50.5 21.5q-42 0 -68.5 -43.5t-35.5 -136.5h160l-16 -52h-147q-1 -13 -1 -27v-29v-44h144l-16 -52h-124q9 -100 37 -146t71 -46q30 0 48.5 21.5t27.5 62.5h72
q-13 -72 -49.5 -112t-102.5 -40q-83 0 -128 68.5t-56 191.5h-80l16 52h61q-1 10 -1 21.5v22.5v28.5t1 27.5h-57z" />
    <glyph glyph-name="yen" unicode="&#xa5;" 
d="M76 248v52h101l-165 388h92l116 -308h4l124 308h80l-168 -388h104v-52h-104v-72h104v-52h-104v-124h-80v124h-104v52h104v72h-104z" />
    <glyph glyph-name="sterling" unicode="&#xa3;" 
d="M40 326v58h64q-11 31 -19.5 65t-8.5 79q0 80 41 126t111 46t109 -44t43 -132h-76q-4 56 -23.5 82t-52.5 26q-32 0 -52 -26t-20 -74q0 -35 9.5 -72.5t21.5 -75.5h133v-58h-115q8 -28 13.5 -55.5t5.5 -54.5q0 -28 -3.5 -55t-10.5 -51q25 -20 47 -37t43 -17q26 0 39 25
t17 83h64q1 -69 -25 -122.5t-91 -53.5q-34 0 -63 20.5t-54 45.5q-16 -30 -40 -48t-55 -18q-39 0 -63.5 23t-24.5 65q0 41 25.5 66.5t62.5 25.5q15 0 29 -4t27 -11v11q0 52 -7 91.5t-17 70.5h-84zM96 36q13 0 25.5 14.5t19.5 45.5q-11 9 -22.5 14.5t-22.5 5.5q-16 0 -26 -11
t-10 -29q0 -17 9 -28.5t27 -11.5v0z" />
    <glyph glyph-name="florin" unicode="&#x192;" 
d="M49 296v60h112l20 184q9 87 42 123.5t94 36.5q57 0 85.5 -33.5t22.5 -114.5l-3 -40h-72l3 40q4 46 -5 65t-35 19t-37 -25t-15 -71l-20 -184h128v-60h-134l-34 -324q-9 -87 -42 -123.5t-94 -36.5q-57 0 -85.5 33.5t-22.5 114.5l3 40h72l-3 -40q-4 -46 5 -65t35 -19t37 25
t15 71l34 324h-106z" />
    <glyph glyph-name="currency.PPF" 
d="M84 164l-44 44l52 52q-11 18 -17.5 38.5t-6.5 45.5t6.5 45.5t17.5 38.5l-52 52l44 44l52 -52q18 12 38.5 18t45.5 6t45.5 -6t38.5 -18l52 52l44 -44l-52 -52q11 -18 17.5 -38.5t6.5 -45.5t-6.5 -45.5t-17.5 -38.5l52 -52l-44 -44l-52 52q-18 -12 -38.5 -18t-45.5 -6
t-45.5 6t-38.5 18zM220 248q38 0 65 26.5t27 69.5t-27 69.5t-65 26.5t-65 -26.5t-27 -69.5t27 -69.5t65 -26.5v0z" />
    <glyph glyph-name="dollar.PPF" horiz-adv-x="412" 
d="M20 192h76q3 -65 31 -100.5t77 -35.5q51 0 75.5 33t24.5 87q0 58 -31.5 82.5t-68.5 43.5l-56 28q-42 21 -81 63t-39 123q0 73 37.5 121t98.5 59v108h72v-107q60 -11 96 -58.5t40 -122.5h-76q-4 61 -29 88.5t-67 27.5q-37 0 -64.5 -28.5t-27.5 -79.5q0 -58 26 -82t66 -44
l56 -28q55 -28 91.5 -72.5t36.5 -113.5q0 -78 -39.5 -130t-104.5 -63v-111h-72v111q-70 10 -108.5 63.5t-39.5 137.5v0z" />
    <glyph glyph-name="cent.PPF" horiz-adv-x="368" 
d="M160 -12v108q-69 15 -98.5 85.5t-29.5 166.5q0 97 31.5 167.5t100.5 84.5v100h72v-100q46 -11 73.5 -51t34.5 -113h-76q-6 57 -23.5 80.5t-48.5 23.5q-46 0 -65 -54t-19 -138t18.5 -138t65.5 -54q31 0 50.5 23.5t25.5 80.5h72q-7 -75 -36.5 -114.5t-75.5 -49.5v-108h-72z
" />
    <glyph glyph-name="Euro.PPF" horiz-adv-x="456" 
d="M24 400l16 52h45q13 118 61 183t134 65q72 0 111.5 -40t52.5 -112h-72q-9 41 -32.5 62.5t-59.5 21.5q-47 0 -76 -43.5t-39 -136.5h159l-16 -52h-147q-1 -13 -1 -27v-29v-23t1 -21h143l-16 -52h-124q10 -100 40.5 -146t79.5 -46q36 0 57.5 21.5t30.5 62.5h72
q-13 -72 -52.5 -112t-111.5 -40q-88 0 -136 68.5t-60 191.5h-80l16 52h61q-1 10 -1 21.5v22.5v28.5t1 27.5h-57z" />
    <glyph glyph-name="yen.PPF" 
d="M92 688l128 -308h4l132 308h84l-179 -388h115v-52h-116v-72h116v-52h-116v-124h-80v124h-116v52h116v72h-116v52h113l-177 388h92z" />
    <glyph glyph-name="sterling.PPF" horiz-adv-x="444" 
d="M40 326v58h66q-13 32 -23.5 67t-10.5 81q0 74 42.5 121t121.5 47q73 0 112.5 -45.5t43.5 -130.5h-76q-4 56 -26 82t-58 26q-38 0 -59 -26t-21 -74q0 -31 12.5 -69t27.5 -79h140v-58h-119q10 -30 16.5 -60t6.5 -58q0 -25 -4.5 -50.5t-13.5 -49.5q26 -20 49.5 -36t44.5 -16
q26 0 39 25t17 83h64q0 -69 -25.5 -122.5t-90.5 -53.5q-35 0 -65.5 20.5t-58.5 45.5q-19 -29 -44.5 -47.5t-55.5 -18.5q-39 0 -65.5 23t-26.5 65q0 47 27.5 69.5t64.5 22.5q17 0 34 -5.5t33 -14.5q1 4 1 8v8q0 52 -8.5 91.5t-20.5 70.5h-91zM96 36q12 0 27.5 13.5t25.5 42.5
q-13 10 -26.5 17t-26.5 7q-16 0 -28 -11t-12 -29q0 -17 11 -28.5t29 -11.5v0z" />
    <glyph glyph-name="florin.PPF" horiz-adv-x="396" 
d="M25 296v60h108l20 184q9 87 42 123.5t94 36.5q51 0 80.5 -33.5t23.5 -114.5l-3 -40h-68l3 40q4 46 -5 65t-35 19t-37 -25t-15 -71l-20 -184h128v-60h-134l-34 -324q-9 -87 -42 -123.5t-94 -36.5q-51 0 -80.5 33.5t-23.5 114.5l3 40h68l-3 -40q-4 -46 5 -65t35 -19t37 25
t15 71l34 324h-102z" />
    <glyph glyph-name="currency.scppf" horiz-adv-x="412" 
d="M72 80l-44 44l52 52q-11 18 -17.5 38.5t-6.5 45.5t6.5 45.5t17.5 38.5l-52 52l44 44l52 -52q18 12 38.5 18t45.5 6t45.5 -6t38.5 -18l52 52l44 -44l-52 -52q11 -18 17.5 -38.5t6.5 -45.5t-6.5 -45.5t-17.5 -38.5l52 -52l-44 -44l-52 52q-18 -12 -38.5 -18t-45.5 -6
t-45.5 6t-38.5 18zM208 164q38 0 65 26.5t27 69.5t-27 69.5t-65 26.5t-65 -26.5t-27 -69.5t27 -69.5t65 -26.5v0z" />
    <glyph glyph-name="dollar.scppf" horiz-adv-x="400" 
d="M36 148h76q3 -44 24.5 -68t59.5 -24q40 0 60 21t20 55q0 38 -25 58.5t-55 33.5l-48 20q-33 13 -66.5 44t-33.5 96q0 54 31 93t85 48v91h68v-92q51 -9 82 -45t34 -91h-76q-3 40 -23.5 58t-52.5 18q-29 0 -48.5 -20t-19.5 -52q0 -40 20 -56.5t48 -27.5l48 -20
q48 -20 80 -53.5t32 -90.5q0 -61 -35 -101t-93 -48v-95h-68v95q-59 10 -91 50t-33 103v0z" />
    <glyph glyph-name="cent.scppf" horiz-adv-x="356" 
d="M152 -12v79q-53 11 -88.5 57.5t-35.5 135.5q0 88 35.5 135t88.5 57v80h72v-79q43 -8 73 -38.5t35 -86.5h-76q-4 37 -24.5 50.5t-43.5 13.5q-31 0 -55.5 -28.5t-24.5 -103.5t24.5 -103.5t55.5 -28.5q23 0 43.5 13.5t24.5 50.5h76q-5 -56 -35 -86.5t-73 -38.5v-79h-72z" />
    <glyph glyph-name="Euro.scppf" horiz-adv-x="388" 
d="M8 184l12 44h53q-1 7 -1 15.5v16.5v18t1 18h-49l12 44h40q11 91 51 141.5t113 50.5q60 0 93 -33.5t35 -94.5h-72q-1 32 -17 48t-39 16q-34 0 -55.5 -30.5t-28.5 -97.5h120l-12 -44h-112v-68h104l-12 -44h-89q6 -69 26 -100.5t51 -31.5q23 0 43 16t21 48h72
q-2 -61 -39 -94.5t-97 -33.5q-71 0 -109 51.5t-48 144.5h-67z" />
    <glyph glyph-name="yen.scppf" horiz-adv-x="368" 
d="M96 520l88 -216h4l88 216h88l-139 -300h83v-44h-84v-48h84v-44h-84v-84h-80v84h-84v44h84v48h-84v44h82l-138 300h92z" />
    <glyph glyph-name="sterling.scppf" horiz-adv-x="388" 
d="M40 242v50h55q-10 23 -16.5 47.5t-6.5 56.5q0 60 33.5 98t98.5 38q62 0 95.5 -34t36.5 -98h-76q-3 38 -17 55t-39 17q-26 0 -39 -20t-13 -52q0 -25 8 -52.5t18 -55.5h106v-50h-89q5 -19 9 -39t4 -39q0 -17 -3 -36t-8 -36q20 -16 37.5 -28t31.5 -12q15 0 27 16t11 56h64
q1 -57 -21 -96.5t-71 -39.5q-30 0 -54.5 16.5t-45.5 36.5q-15 -23 -36 -38t-48 -15q-34 0 -57 18.5t-23 53.5q0 40 23.5 60t56.5 20q11 0 22.5 -3t21.5 -7q-1 36 -7 63t-14 49h-75zM96 36q10 0 21 9.5t16 34.5q-10 7 -19 11.5t-18 4.5q-13 0 -20.5 -9.5t-7.5 -22.5
q0 -12 7.5 -20t20.5 -8v0z" />
    <glyph glyph-name="florin.scppf" horiz-adv-x="392" 
d="M58 216v52h90l14 132q7 71 38 101.5t86 30.5q48 0 77.5 -27t22.5 -89l-4 -36h-68l4 32q4 31 -7 45.5t-29 14.5q-22 0 -31 -15.5t-13 -56.5l-14 -132h110v-52h-116l-24 -236q-7 -71 -38 -101.5t-86 -30.5q-48 0 -77.5 27t-22.5 89l4 36h68l-4 -32q-4 -31 7 -45.5t29 -14.5
q22 0 31 15.5t13 56.5l24 236h-84z" />
    <glyph glyph-name="currency.sc" horiz-adv-x="392" 
d="M60 80l-44 44l52 52q-11 18 -17.5 38.5t-6.5 45.5t6.5 45.5t17.5 38.5l-52 52l44 44l52 -52q18 12 38.5 18t45.5 6t45.5 -6t38.5 -18l52 52l44 -44l-52 -52q11 -18 17.5 -38.5t6.5 -45.5t-6.5 -45.5t-17.5 -38.5l52 -52l-44 -44l-52 52q-18 -12 -38.5 -18t-45.5 -6
t-45.5 6t-38.5 18zM196 164q38 0 65 26.5t27 69.5t-27 69.5t-65 26.5t-65 -26.5t-27 -69.5t27 -69.5t65 -26.5v0z" />
    <glyph glyph-name="dollar.sc" horiz-adv-x="392" 
d="M32 148h76q3 -44 24.5 -68t59.5 -24q40 0 60 21t20 55q0 38 -25 58.5t-55 33.5l-48 20q-33 13 -66.5 44t-33.5 96q0 54 31 93t85 48v91h68v-92q51 -9 82 -45t34 -91h-76q-3 40 -23.5 58t-52.5 18q-29 0 -48.5 -20t-19.5 -52q0 -40 20 -56.5t48 -27.5l48 -20
q48 -20 80 -53.5t32 -90.5q0 -61 -35 -101t-93 -48v-95h-68v95q-59 10 -91 50t-33 103v0z" />
    <glyph glyph-name="cent.sc" horiz-adv-x="392" 
d="M168 -12v79q-53 11 -88.5 57.5t-35.5 135.5q0 88 35.5 135t88.5 57v80h72v-79q43 -8 73 -38.5t35 -86.5h-76q-4 37 -24.5 50.5t-43.5 13.5q-31 0 -55.5 -28.5t-24.5 -103.5t24.5 -103.5t55.5 -28.5q23 0 43.5 13.5t24.5 50.5h76q-5 -56 -35 -86.5t-73 -38.5v-79h-72z" />
    <glyph glyph-name="Euro.sc" horiz-adv-x="392" 
d="M8 184l12 44h53q-1 7 -1 15.5v16.5v18t1 18h-49l12 44h40q11 91 51 141.5t113 50.5q60 0 93 -33.5t35 -94.5h-72q-1 32 -17 48t-39 16q-34 0 -55.5 -30.5t-28.5 -97.5h120l-12 -44h-112v-68h104l-12 -44h-89q6 -69 26 -100.5t51 -31.5q23 0 43 16t21 48h72
q-2 -61 -39 -94.5t-97 -33.5q-71 0 -109 51.5t-48 144.5h-67z" />
    <glyph glyph-name="yen.sc" horiz-adv-x="392" 
d="M72 176v44h82l-138 300h92l88 -216h4l88 216h88l-139 -300h83v-44h-84v-48h84v-44h-84v-84h-80v84h-84v44h84v48h-84z" />
    <glyph glyph-name="sterling.sc" horiz-adv-x="392" 
d="M40 242v50h55q-10 23 -16.5 47.5t-6.5 56.5q0 60 33.5 98t98.5 38q62 0 95.5 -34t36.5 -98h-76q-3 38 -17 55t-39 17q-26 0 -39 -20t-13 -52q0 -25 8 -52.5t18 -55.5h106v-50h-89q5 -19 9 -39t4 -39q0 -17 -3 -36t-8 -36q20 -16 37.5 -28t31.5 -12q15 0 27 16t11 56h64
q1 -57 -21 -96.5t-71 -39.5q-30 0 -54.5 16.5t-45.5 36.5q-15 -23 -36 -38t-48 -15q-34 0 -57 18.5t-23 53.5q0 40 23.5 60t56.5 20q11 0 22.5 -3t21.5 -7q-1 36 -7 63t-14 49h-75zM96 36q10 0 21 9.5t16 34.5q-10 7 -19 11.5t-18 4.5q-13 0 -20.5 -9.5t-7.5 -22.5
q0 -12 7.5 -20t20.5 -8v0z" />
    <glyph glyph-name="florin.sc" horiz-adv-x="392" 
d="M58 216v52h90l14 132q7 71 38 101.5t86 30.5q48 0 77.5 -27t22.5 -89l-4 -36h-68l4 32q4 31 -7 45.5t-29 14.5q-22 0 -31 -15.5t-13 -56.5l-14 -132h110v-52h-116l-24 -236q-7 -71 -38 -101.5t-86 -30.5q-48 0 -77.5 27t-22.5 89l4 36h68l-4 -32q-4 -31 7 -45.5t29 -14.5
q22 0 31 15.5t13 56.5l24 236h-84z" />
    <glyph glyph-name="AE" unicode="&#xc6;" horiz-adv-x="788" 
d="M0 0l368 688h384v-76h-268v-224h216v-76h-216v-236h276v-76h-360v160h-230l-82 -160h-88zM395 596l-186 -360h191v360h-5z" />
    <glyph glyph-name="AEacute" unicode="&#x1fc;" horiz-adv-x="788" 
d="M0 0l368 688h384v-76h-268v-224h216v-76h-216v-236h276v-76h-360v160h-230l-82 -160h-88zM395 596l-186 -360h191v360h-5zM416 768l76 164h88l-108 -164h-56z" />
    <glyph glyph-name="Agrave" unicode="&#xc0;" horiz-adv-x="484" 
d="M0 0l188 688h108l188 -688h-88l-49 188h-215l-48 -188h-84zM242 600h-4l-86 -336h176zM212 768l-108 164h88l76 -164h-56z" />
    <glyph glyph-name="Aacute" unicode="&#xc1;" horiz-adv-x="484" 
d="M0 0l188 688h108l188 -688h-88l-49 188h-215l-48 -188h-84zM242 600h-4l-86 -336h176zM212 768l76 164h88l-108 -164h-56z" />
    <glyph glyph-name="Adieresis" unicode="&#xc4;" horiz-adv-x="484" 
d="M0 0l188 688h108l188 -688h-88l-49 188h-215l-48 -188h-84zM242 600h-4l-86 -336h176zM280 768v84h76v-84h-76zM124 768v84h76v-84h-76z" />
    <glyph glyph-name="Acircumflex" unicode="&#xc2;" horiz-adv-x="484" 
d="M0 0l188 688h108l188 -688h-88l-49 188h-215l-48 -188h-84zM242 600h-4l-86 -336h176zM112 768l96 164h64l96 -164h-68l-60 112l-60 -112h-68z" />
    <glyph glyph-name="Amacron" unicode="&#x100;" horiz-adv-x="484" 
d="M0 0l188 688h108l188 -688h-88l-49 188h-215l-48 -188h-84zM242 600h-4l-86 -336h176zM136 776v56h208v-56h-208z" />
    <glyph glyph-name="Atilde" unicode="&#xc3;" horiz-adv-x="484" 
d="M0 0l188 688h108l188 -688h-88l-49 188h-215l-48 -188h-84zM242 600h-4l-86 -336h176zM112 768q1 41 20 70.5t56 29.5q32 0 60 -24t48 -24q15 0 21 14t7 34h44q-1 -41 -19.5 -70.5t-56.5 -29.5q-32 0 -60 24t-48 24q-14 0 -20.5 -14t-7.5 -34h-44z" />
    <glyph glyph-name="Aring" unicode="&#xc5;" horiz-adv-x="484" 
d="M0 0l188 688h108l188 -688h-88l-49 188h-215l-48 -188h-84zM242 600h-4l-86 -336h176zM240 764q-40 0 -70 26.5t-30 69.5t30 69.5t70 26.5t70 -26.5t30 -69.5t-30 -69.5t-70 -26.5v0zM240 804q25 0 40.5 16.5t15.5 39.5t-15.5 39.5t-40.5 16.5t-40.5 -16.5t-15.5 -39.5
t15.5 -39.5t40.5 -16.5v0z" />
    <glyph glyph-name="Abreve" unicode="&#x102;" horiz-adv-x="484" 
d="M0 0l188 688h108l188 -688h-88l-49 188h-215l-48 -188h-84zM242 600h-4l-86 -336h176zM240 768q-46 0 -78 32t-34 104h48q4 -40 18 -62t46 -22t46 22t18 62h48q-2 -72 -34 -104t-78 -32v0z" />
    <glyph glyph-name="Aogonek" unicode="&#x104;" horiz-adv-x="484" 
d="M368 -132q0 33 19 65t49 67h-40l-49 188h-215l-48 -188h-84l188 688h108l188 -688h-4q-23 -34 -39.5 -64t-16.5 -52q0 -21 11 -34.5t37 -13.5h20v-56h-36q-45 0 -66.5 26t-21.5 62v0zM242 600h-4l-86 -336h176z" />
    <glyph glyph-name="Cacute" unicode="&#x106;" horiz-adv-x="484" 
d="M32 344q0 176 60.5 266t167.5 90q90 0 138.5 -57.5t61.5 -170.5h-80q-13 73 -40 114.5t-80 41.5q-69 0 -104.5 -73.5t-35.5 -210.5t34 -210.5t106 -73.5q56 0 81.5 41.5t38.5 114.5h80q-13 -111 -64.5 -169.5t-135.5 -58.5q-113 0 -170.5 90t-57.5 266v0zM232 768l76 164
h88l-108 -164h-56z" />
    <glyph glyph-name="Cdotaccent" unicode="&#x10a;" horiz-adv-x="484" 
d="M32 344q0 176 60.5 266t167.5 90q90 0 138.5 -57.5t61.5 -170.5h-80q-13 73 -40 114.5t-80 41.5q-69 0 -104.5 -73.5t-35.5 -210.5t34 -210.5t106 -73.5q56 0 81.5 41.5t38.5 114.5h80q-13 -111 -64.5 -169.5t-135.5 -58.5q-113 0 -170.5 90t-57.5 266v0zM220 768v84h80
v-84h-80z" />
    <glyph glyph-name="Ccircumflex" unicode="&#x108;" horiz-adv-x="484" 
d="M32 344q0 176 60.5 266t167.5 90q90 0 138.5 -57.5t61.5 -170.5h-80q-13 73 -40 114.5t-80 41.5q-69 0 -104.5 -73.5t-35.5 -210.5t34 -210.5t106 -73.5q56 0 81.5 41.5t38.5 114.5h80q-13 -111 -64.5 -169.5t-135.5 -58.5q-113 0 -170.5 90t-57.5 266v0zM132 768l96 164
h64l96 -164h-68l-60 112l-60 -112h-68z" />
    <glyph glyph-name="Ccaron" unicode="&#x10c;" horiz-adv-x="484" 
d="M32 344q0 176 60.5 266t167.5 90q90 0 138.5 -57.5t61.5 -170.5h-80q-13 73 -40 114.5t-80 41.5q-69 0 -104.5 -73.5t-35.5 -210.5t34 -210.5t106 -73.5q56 0 81.5 41.5t38.5 114.5h80q-13 -111 -64.5 -169.5t-135.5 -58.5q-113 0 -170.5 90t-57.5 266v0zM228 768
l-96 164h68l60 -112l60 112h68l-96 -164h-64z" />
    <glyph glyph-name="Ccedilla" unicode="&#xc7;" horiz-adv-x="484" 
d="M228 -84l17 73q-106 5 -159.5 95t-53.5 260q0 176 60.5 266t167.5 90q90 0 138.5 -57.5t61.5 -170.5h-80q-13 73 -40 114.5t-80 41.5q-69 0 -104.5 -73.5t-35.5 -210.5t34 -210.5t106 -73.5q56 0 81.5 41.5t38.5 114.5h80q-13 -106 -60 -164t-124 -63v-25
q35 -4 55.5 -28.5t20.5 -59.5q0 -43 -23 -69.5t-69 -26.5h-48v52h36q19 0 31.5 9.5t12.5 34.5q0 22 -12.5 31t-31.5 9h-20z" />
    <glyph glyph-name="Eth" unicode="&#xd0;" horiz-adv-x="516" 
d="M4 312v68h56v308h140q145 0 214.5 -97t69.5 -243t-69.5 -247t-214.5 -101h-140v312h-56zM200 612h-56v-232h108v-68h-108v-236h56q111 0 153.5 84t42.5 188t-42.5 184t-153.5 80v0z" />
    <glyph glyph-name="Dcroat" unicode="&#x110;" horiz-adv-x="516" 
d="M4 312v68h56v308h140q145 0 214.5 -97t69.5 -243t-69.5 -247t-214.5 -101h-140v312h-56zM200 612h-56v-232h108v-68h-108v-236h56q111 0 153.5 84t42.5 188t-42.5 184t-153.5 80v0z" />
    <glyph glyph-name="Dcaron" unicode="&#x10e;" horiz-adv-x="516" 
d="M60 0v688h144q142 0 211 -97t69 -243t-69 -247t-211 -101h-144zM200 612h-56v-536h56q111 0 153.5 84t42.5 188t-42.5 184t-153.5 80v0zM200 768l-96 164h68l60 -112l60 112h68l-96 -164h-64z" />
    <glyph glyph-name="Egrave" unicode="&#xc8;" horiz-adv-x="444" 
d="M60 0v688h348v-76h-264v-224h212v-76h-212v-236h272v-76h-356zM208 768l-108 164h88l76 -164h-56z" />
    <glyph glyph-name="Eacute" unicode="&#xc9;" horiz-adv-x="444" 
d="M60 0v688h348v-76h-264v-224h212v-76h-212v-236h272v-76h-356zM208 768l76 164h88l-108 -164h-56z" />
    <glyph glyph-name="Edotaccent" unicode="&#x116;" horiz-adv-x="444" 
d="M60 0v688h348v-76h-264v-224h212v-76h-212v-236h272v-76h-356zM196 768v84h80v-84h-80z" />
    <glyph glyph-name="Edieresis" unicode="&#xcb;" horiz-adv-x="444" 
d="M60 0v688h348v-76h-264v-224h212v-76h-212v-236h272v-76h-356zM276 768v84h76v-84h-76zM120 768v84h76v-84h-76z" />
    <glyph glyph-name="Ecircumflex" unicode="&#xca;" horiz-adv-x="444" 
d="M60 0v688h348v-76h-264v-224h212v-76h-212v-236h272v-76h-356zM108 768l96 164h64l96 -164h-68l-60 112l-60 -112h-68z" />
    <glyph glyph-name="Ecaron" unicode="&#x11a;" horiz-adv-x="444" 
d="M60 0v688h348v-76h-264v-224h212v-76h-212v-236h272v-76h-356zM204 768l-96 164h68l60 -112l60 112h68l-96 -164h-64z" />
    <glyph glyph-name="Emacron" unicode="&#x112;" horiz-adv-x="444" 
d="M60 0v688h348v-76h-264v-224h212v-76h-212v-236h272v-76h-356zM132 776v56h208v-56h-208z" />
    <glyph glyph-name="Ebreve" unicode="&#x114;" horiz-adv-x="444" 
d="M60 0v688h348v-76h-264v-224h212v-76h-212v-236h272v-76h-356zM236 768q-46 0 -78 32t-34 104h48q4 -40 18 -62t46 -22t46 22t18 62h48q-2 -72 -34 -104t-78 -32v0z" />
    <glyph glyph-name="Eogonek" unicode="&#x118;" horiz-adv-x="444" 
d="M60 0v688h348v-76h-264v-224h212v-76h-212v-236h272v-76q-23 -34 -39.5 -64t-16.5 -52q0 -21 11 -34.5t37 -13.5h20v-56h-36q-45 0 -66.5 26t-21.5 62q0 33 19 65t49 67h-312z" />
    <glyph glyph-name="Gdotaccent" unicode="&#x120;" horiz-adv-x="528" 
d="M420 0l-16 80h-3q-20 -44 -55.5 -68t-89.5 -24q-104 0 -164 90t-60 266t62.5 266t169.5 90q90 0 140.5 -56t63.5 -160h-80q-13 67 -40.5 105.5t-83.5 38.5q-72 0 -108 -73.5t-36 -210.5t36.5 -210.5t111.5 -73.5q57 0 90.5 50.5t33.5 123.5v58h-124v72h204v-364h-52z
M224 768v84h80v-84h-80z" />
    <glyph glyph-name="Gcircumflex" unicode="&#x11c;" horiz-adv-x="528" 
d="M420 0l-16 80h-3q-20 -44 -55.5 -68t-89.5 -24q-104 0 -164 90t-60 266t62.5 266t169.5 90q90 0 140.5 -56t63.5 -160h-80q-13 67 -40.5 105.5t-83.5 38.5q-72 0 -108 -73.5t-36 -210.5t36.5 -210.5t111.5 -73.5q57 0 90.5 50.5t33.5 123.5v58h-124v72h204v-364h-52z
M136 768l96 164h64l96 -164h-68l-60 112l-60 -112h-68z" />
    <glyph glyph-name="Gbreve" unicode="&#x11e;" horiz-adv-x="528" 
d="M420 0l-16 80h-3q-20 -44 -55.5 -68t-89.5 -24q-104 0 -164 90t-60 266t62.5 266t169.5 90q90 0 140.5 -56t63.5 -160h-80q-13 67 -40.5 105.5t-83.5 38.5q-72 0 -108 -73.5t-36 -210.5t36.5 -210.5t111.5 -73.5q57 0 90.5 50.5t33.5 123.5v58h-124v72h204v-364h-52z
M264 768q-46 0 -78 32t-34 104h48q4 -40 18 -62t46 -22t46 22t18 62h48q-2 -72 -34 -104t-78 -32v0z" />
    <glyph glyph-name="Gcommaaccent" unicode="&#x122;" horiz-adv-x="528" 
d="M420 0l-16 80h-3q-20 -44 -55.5 -68t-89.5 -24q-104 0 -164 90t-60 266t62.5 266t169.5 90q90 0 140.5 -56t63.5 -160h-80q-13 67 -40.5 105.5t-83.5 38.5q-72 0 -108 -73.5t-36 -210.5t36.5 -210.5t111.5 -73.5q57 0 90.5 50.5t33.5 123.5v58h-124v72h204v-364h-52z
M216 -68h80v-78l-37 -102h-36l26 92h-33v88z" />
    <glyph glyph-name="Hbar" unicode="&#x126;" horiz-adv-x="540" 
d="M0 504v68h60v116h84v-116h252v116h84v-116h60v-68h-60v-504h-84v312h-252v-312h-84v504h-60zM144 504v-116h252v116h-252z" />
    <glyph glyph-name="Hcircumflex" unicode="&#x124;" horiz-adv-x="540" 
d="M60 0v688h84v-300h252v300h84v-688h-84v312h-252v-312h-84zM142 768l96 164h64l96 -164h-68l-60 112l-60 -112h-68z" />
    <glyph glyph-name="Igrave" unicode="&#xcc;" horiz-adv-x="204" 
d="M60 0v688h84v-688h-84zM74 768l-108 164h88l76 -164h-56z" />
    <glyph glyph-name="Iacute" unicode="&#xcd;" horiz-adv-x="204" 
d="M60 0v688h84v-688h-84zM74 768l76 164h88l-108 -164h-56z" />
    <glyph glyph-name="Idotaccent" unicode="&#x130;" horiz-adv-x="204" 
d="M60 0v688h84v-688h-84zM62 768v84h80v-84h-80z" />
    <glyph glyph-name="Idieresis" unicode="&#xcf;" horiz-adv-x="204" 
d="M60 0v688h84v-688h-84zM142 768v84h76v-84h-76zM-14 768v84h76v-84h-76z" />
    <glyph glyph-name="Icircumflex" unicode="&#xce;" horiz-adv-x="204" 
d="M60 0v688h84v-688h-84zM-26 768l96 164h64l96 -164h-68l-60 112l-60 -112h-68z" />
    <glyph glyph-name="Imacron" unicode="&#x12a;" horiz-adv-x="204" 
d="M60 0v688h84v-688h-84zM-2 776v56h208v-56h-208z" />
    <glyph glyph-name="Itilde" unicode="&#x128;" horiz-adv-x="204" 
d="M60 0v688h84v-688h-84zM-26 768q1 41 20 70.5t56 29.5q32 0 60 -24t48 -24q15 0 21 14t7 34h44q-1 -41 -19.5 -70.5t-56.5 -29.5q-32 0 -60 24t-48 24q-14 0 -20.5 -14t-7.5 -34h-44z" />
    <glyph glyph-name="Ibreve" unicode="&#x12c;" horiz-adv-x="204" 
d="M60 0v688h84v-688h-84zM102 768q-46 0 -78 32t-34 104h48q4 -40 18 -62t46 -22t46 22t18 62h48q-2 -72 -34 -104t-78 -32v0z" />
    <glyph glyph-name="Iogonek" unicode="&#x12e;" horiz-adv-x="204" 
d="M60 0v688h84v-688h-2q-23 -34 -39.5 -64t-16.5 -52q0 -21 11 -34.5t37 -13.5h20v-56h-36q-45 0 -66.5 26t-21.5 62q0 33 19 65t49 67h-38z" />
    <glyph glyph-name="IJ" unicode="&#x132;" horiz-adv-x="596" 
d="M60 0v688h84v-688h-84zM240 152v56h84v-60q0 -48 20 -68t48 -20q31 0 49.5 20.5t18.5 67.5v540h84v-536q0 -91 -41.5 -127.5t-110.5 -36.5q-65 0 -108.5 36.5t-43.5 127.5v0z" />
    <glyph glyph-name="Jcircumflex" unicode="&#x134;" horiz-adv-x="388" 
d="M32 148v60h84v-60q0 -48 20 -66t48 -18q31 0 49.5 18.5t18.5 65.5v540h84v-536q0 -91 -41.5 -127.5t-110.5 -36.5q-65 0 -108.5 36t-43.5 124v0zM168 768l96 164h64l96 -164h-68l-60 112l-60 -112h-68z" />
    <glyph glyph-name="Kcommaaccent" unicode="&#x136;" horiz-adv-x="484" 
d="M60 0v688h84v-337l232 337h92l-209 -301l217 -387h-96l-173 312l-63 -90v-222h-84zM208 -68h80v-78l-37 -102h-36l26 92h-33v88z" />
    <glyph glyph-name="Lacute" unicode="&#x139;" horiz-adv-x="404" 
d="M60 0v688h84v-612h236v-76h-320zM76 768l76 164h88l-108 -164h-56z" />
    <glyph glyph-name="Lcommaaccent" unicode="&#x13b;" horiz-adv-x="404" 
d="M60 0v688h84v-612h236v-76h-320zM180 -68h80v-78l-37 -102h-36l26 92h-33v88z" />
    <glyph glyph-name="Lslash" unicode="&#x141;" horiz-adv-x="404" 
d="M0 172v76l60 53v387h84v-315l104 87v-76l-104 -90v-218h236v-76h-320v223z" />
    <glyph glyph-name="Ldot" unicode="&#x13f;" horiz-adv-x="404" 
d="M60 0v688h84v-612h236v-76h-320zM220 312v84h80v-84h-80z" />
    <glyph glyph-name="Lcaron" unicode="&#x13d;" horiz-adv-x="404" 
d="M60 0v688h84v-612h236v-76h-320zM243 508l26 92h-33v88h80v-78l-37 -102h-36z" />
    <glyph glyph-name="Nacute" unicode="&#x143;" horiz-adv-x="540" 
d="M60 0v688h72l268 -496h4l-8 496h84v-688h-72l-268 496h-4l8 -496h-84zM242 768l76 164h88l-108 -164h-56z" />
    <glyph glyph-name="Ncaron" unicode="&#x147;" horiz-adv-x="540" 
d="M60 0v688h72l268 -496h4l-8 496h84v-688h-72l-268 496h-4l8 -496h-84zM238 768l-96 164h68l60 -112l60 112h68l-96 -164h-64z" />
    <glyph glyph-name="Ntilde" unicode="&#xd1;" horiz-adv-x="540" 
d="M60 0v688h72l268 -496h4l-8 496h84v-688h-72l-268 496h-4l8 -496h-84zM142 768q1 41 20 70.5t56 29.5q32 0 60 -24t48 -24q15 0 21 14t7 34h44q-1 -41 -19.5 -70.5t-56.5 -29.5q-32 0 -60 24t-48 24q-14 0 -20.5 -14t-7.5 -34h-44z" />
    <glyph glyph-name="Ncommaaccent" unicode="&#x145;" horiz-adv-x="540" 
d="M60 0v688h72l268 -496h4l-8 496h84v-688h-72l-268 496h-4l8 -496h-84zM230 -68h80v-78l-37 -102h-36l26 92h-33v88z" />
    <glyph glyph-name="Eng" unicode="&#x14a;" horiz-adv-x="540" 
d="M60 0v688h76l264 -504h4l-8 504h84v-756q0 -85 -31.5 -118.5t-100.5 -33.5h-36v76h28q31 0 47.5 16.5t16.5 59.5v68l-264 504h-4l8 -504h-84z" />
    <glyph glyph-name="OE" unicode="&#x152;" horiz-adv-x="760" 
d="M312 0q-142 0 -211 97t-69 243t69 247t211 101h412v-76h-268v-224h216v-76h-216v-236h276v-76h-420zM120 340q0 -104 42.5 -184t153.5 -80h56v536h-56q-111 0 -153.5 -84t-42.5 -188v0z" />
    <glyph glyph-name="Ograve" unicode="&#xd2;" horiz-adv-x="528" 
d="M32 344q0 179 61 267.5t171 88.5t171 -88.5t61 -267.5q0 -176 -61 -266t-171 -90t-171 88.5t-61 267.5v0zM120 344q0 -137 36 -210.5t108 -73.5t108 73.5t36 210.5t-36 210.5t-108 73.5t-108 -73.5t-36 -210.5v0zM236 768l-108 164h88l76 -164h-56z" />
    <glyph glyph-name="Oacute" unicode="&#xd3;" horiz-adv-x="528" 
d="M32 344q0 179 61 267.5t171 88.5t171 -88.5t61 -267.5q0 -176 -61 -266t-171 -90t-171 88.5t-61 267.5v0zM120 344q0 -137 36 -210.5t108 -73.5t108 73.5t36 210.5t-36 210.5t-108 73.5t-108 -73.5t-36 -210.5v0zM236 768l76 164h88l-108 -164h-56z" />
    <glyph glyph-name="Ohungarumlaut" unicode="&#x150;" horiz-adv-x="528" 
d="M32 344q0 179 61 267.5t171 88.5t171 -88.5t61 -267.5q0 -176 -61 -266t-171 -90t-171 88.5t-61 267.5v0zM120 344q0 -137 36 -210.5t108 -73.5t108 73.5t36 210.5t-36 210.5t-108 73.5t-108 -73.5t-36 -210.5v0zM304 768l76 164h88l-108 -164h-56zM164 768l76 164h88
l-108 -164h-56z" />
    <glyph glyph-name="Odieresis" unicode="&#xd6;" horiz-adv-x="528" 
d="M32 344q0 179 61 267.5t171 88.5t171 -88.5t61 -267.5q0 -176 -61 -266t-171 -90t-171 88.5t-61 267.5v0zM120 344q0 -137 36 -210.5t108 -73.5t108 73.5t36 210.5t-36 210.5t-108 73.5t-108 -73.5t-36 -210.5v0zM304 768v84h76v-84h-76zM148 768v84h76v-84h-76z" />
    <glyph glyph-name="Ocircumflex" unicode="&#xd4;" horiz-adv-x="528" 
d="M32 344q0 179 61 267.5t171 88.5t171 -88.5t61 -267.5q0 -176 -61 -266t-171 -90t-171 88.5t-61 267.5v0zM120 344q0 -137 36 -210.5t108 -73.5t108 73.5t36 210.5t-36 210.5t-108 73.5t-108 -73.5t-36 -210.5v0zM136 768l96 164h64l96 -164h-68l-60 112l-60 -112h-68z
" />
    <glyph glyph-name="Omacron" unicode="&#x14c;" horiz-adv-x="528" 
d="M32 344q0 179 61 267.5t171 88.5t171 -88.5t61 -267.5q0 -176 -61 -266t-171 -90t-171 88.5t-61 267.5v0zM120 344q0 -137 36 -210.5t108 -73.5t108 73.5t36 210.5t-36 210.5t-108 73.5t-108 -73.5t-36 -210.5v0zM160 776v56h208v-56h-208z" />
    <glyph glyph-name="Obreve" unicode="&#x14e;" horiz-adv-x="528" 
d="M32 344q0 179 61 267.5t171 88.5t171 -88.5t61 -267.5q0 -176 -61 -266t-171 -90t-171 88.5t-61 267.5v0zM120 344q0 -137 36 -210.5t108 -73.5t108 73.5t36 210.5t-36 210.5t-108 73.5t-108 -73.5t-36 -210.5v0zM264 768q-46 0 -78 32t-34 104h48q4 -40 18 -62t46 -22
t46 22t18 62h48q-2 -72 -34 -104t-78 -32v0z" />
    <glyph glyph-name="Otilde" unicode="&#xd5;" horiz-adv-x="528" 
d="M32 344q0 179 61 267.5t171 88.5t171 -88.5t61 -267.5q0 -176 -61 -266t-171 -90t-171 88.5t-61 267.5v0zM120 344q0 -137 36 -210.5t108 -73.5t108 73.5t36 210.5t-36 210.5t-108 73.5t-108 -73.5t-36 -210.5v0zM136 768q1 41 20 70.5t56 29.5q32 0 60 -24t48 -24
q15 0 21 14t7 34h44q-1 -41 -19.5 -70.5t-56.5 -29.5q-32 0 -60 24t-48 24q-14 0 -20.5 -14t-7.5 -34h-44z" />
    <glyph glyph-name="Oslash" unicode="&#xd8;" horiz-adv-x="528" 
d="M28 -12l57 99q-26 44 -39.5 108.5t-13.5 148.5q0 179 61 267.5t171 88.5q43 0 79.5 -13.5t64.5 -41.5l32 55h60l-58 -99q26 -44 40 -108.5t14 -148.5q0 -176 -61 -266t-171 -90q-44 0 -80.5 13.5t-64.5 41.5l-31 -55h-60zM408 344q0 49 -4.5 90.5t-14.5 74.5l-226 -390
q18 -29 43.5 -44t57.5 -15q72 0 108 73.5t36 210.5v0zM120 344q0 -49 4.5 -91t13.5 -74l226 390q-18 28 -43 43.5t-57 15.5q-72 0 -108 -73.5t-36 -210.5v0z" />
    <glyph glyph-name="Oslashacute" unicode="&#x1fe;" horiz-adv-x="528" 
d="M28 -12l57 99q-26 44 -39.5 108.5t-13.5 148.5q0 179 61 267.5t171 88.5q43 0 79.5 -13.5t64.5 -41.5l32 55h60l-58 -99q26 -44 40 -108.5t14 -148.5q0 -176 -61 -266t-171 -90q-44 0 -80.5 13.5t-64.5 41.5l-31 -55h-60zM408 344q0 49 -4.5 90.5t-14.5 74.5l-226 -390
q18 -29 43.5 -44t57.5 -15q72 0 108 73.5t36 210.5v0zM120 344q0 -49 4.5 -91t13.5 -74l226 390q-18 28 -43 43.5t-57 15.5q-72 0 -108 -73.5t-36 -210.5v0zM236 768l76 164h88l-108 -164h-56z" />
    <glyph glyph-name="Racute" unicode="&#x154;" horiz-adv-x="484" 
d="M56 0v688h152q111 0 171.5 -54t60.5 -150q0 -74 -36 -125t-103 -71l159 -288h-96l-149 276h-75v-276h-84zM208 612h-68v-260h68q81 0 114.5 37.5t33.5 94.5t-35 92.5t-113 35.5v0zM204 768l76 164h88l-108 -164h-56z" />
    <glyph glyph-name="Rcaron" unicode="&#x158;" horiz-adv-x="484" 
d="M56 0v688h152q111 0 171.5 -54t60.5 -150q0 -74 -36 -125t-103 -71l159 -288h-96l-149 276h-75v-276h-84zM208 612h-68v-260h68q81 0 114.5 37.5t33.5 94.5t-35 92.5t-113 35.5v0zM200 768l-96 164h68l60 -112l60 112h68l-96 -164h-64z" />
    <glyph glyph-name="Rcommaaccent" unicode="&#x156;" horiz-adv-x="484" 
d="M56 0v688h152q111 0 171.5 -54t60.5 -150q0 -74 -36 -125t-103 -71l159 -288h-96l-149 276h-75v-276h-84zM208 612h-68v-260h68q81 0 114.5 37.5t33.5 94.5t-35 92.5t-113 35.5v0zM196 -68h80v-78l-37 -102h-36l26 92h-33v88z" />
    <glyph glyph-name="Sacute" unicode="&#x15a;" horiz-adv-x="476" 
d="M36 184h80q0 -66 36 -95t82 -29t82 28.5t36 91.5q0 140 -152 145.5t-152 190.5q0 78 53 131t141 53q82 0 134 -46.5t52 -133.5h-80q0 60 -33 84t-73 24t-75 -25.5t-35 -82.5q0 -131 152 -139t152 -197q0 -82 -54 -139t-148 -57t-146 54t-52 142v0zM212 768l76 164h88
l-108 -164h-56z" />
    <glyph glyph-name="Scaron" unicode="&#x160;" horiz-adv-x="476" 
d="M36 184h80q0 -66 36 -95t82 -29t82 28.5t36 91.5q0 140 -152 145.5t-152 190.5q0 78 53 131t141 53q82 0 134 -46.5t52 -133.5h-80q0 60 -33 84t-73 24t-75 -25.5t-35 -82.5q0 -131 152 -139t152 -197q0 -82 -54 -139t-148 -57t-146 54t-52 142v0zM208 768l-96 164h68
l60 -112l60 112h68l-96 -164h-64z" />
    <glyph glyph-name="Scircumflex" unicode="&#x15c;" horiz-adv-x="476" 
d="M36 184h80q0 -66 36 -95t82 -29t82 28.5t36 91.5q0 140 -152 145.5t-152 190.5q0 78 53 131t141 53q82 0 134 -46.5t52 -133.5h-80q0 60 -33 84t-73 24t-75 -25.5t-35 -82.5q0 -131 152 -139t152 -197q0 -82 -54 -139t-148 -57t-146 54t-52 142v0zM112 768l96 164h64
l96 -164h-68l-60 112l-60 -112h-68z" />
    <glyph glyph-name="Scommaaccent" unicode="&#x218;" horiz-adv-x="476" 
d="M36 184h80q0 -66 36 -95t82 -29t82 28.5t36 91.5q0 140 -152 145.5t-152 190.5q0 78 53 131t141 53q82 0 134 -46.5t52 -133.5h-80q0 60 -33 84t-73 24t-75 -25.5t-35 -82.5q0 -131 152 -139t152 -197q0 -82 -54 -139t-148 -57t-146 54t-52 142v0zM194 -68h80v-78
l-37 -102h-36l26 92h-33v88z" />
    <glyph glyph-name="Scedilla" unicode="&#x15e;" horiz-adv-x="476" 
d="M202 -84l17 73q-87 4 -135 57.5t-48 137.5h80q0 -66 36 -95t82 -29t82 28.5t36 91.5q0 140 -152 145.5t-152 190.5q0 78 53 131t141 53q82 0 134 -46.5t52 -133.5h-80q0 60 -33 84t-73 24t-75 -25.5t-35 -82.5q0 -131 152 -139t152 -197q0 -79 -49.5 -134.5t-136.5 -60.5
v-25q35 -4 55.5 -28.5t20.5 -59.5q0 -43 -23 -69.5t-69 -26.5h-48v52h36q19 0 31.5 9.5t12.5 34.5q0 22 -12.5 31t-31.5 9h-20z" />
    <glyph glyph-name="Tcaron" unicode="&#x164;" horiz-adv-x="428" 
d="M8 612v76h412v-76h-164v-612h-84v612h-164zM182 768l-96 164h68l60 -112l60 112h68l-96 -164h-64z" />
    <glyph glyph-name="uni021A" unicode="&#x21a;" horiz-adv-x="428" 
d="M8 612v76h412v-76h-164v-612h-84v612h-164zM174 -68h80v-78l-37 -102h-36l26 92h-33v88z" />
    <glyph glyph-name="Tcommaaccent" unicode="&#x162;" horiz-adv-x="428" 
d="M182 -84l20 84h-30v612h-164v76h412v-76h-164v-612h-26v-36q35 -4 55.5 -28.5t20.5 -59.5q0 -43 -23 -69.5t-69 -26.5h-48v52h36q19 0 31.5 9.5t12.5 34.5q0 22 -12.5 31t-31.5 9h-20z" />
    <glyph glyph-name="Tbar" unicode="&#x166;" horiz-adv-x="428" 
d="M8 612v76h412v-76h-164v-252h124v-72h-124v-288h-84v288h-124v72h124v252h-164z" />
    <glyph glyph-name="Thorn" unicode="&#xde;" horiz-adv-x="472" 
d="M60 0v688h84v-112h60q114 0 177 -62t63 -158q0 -102 -63 -165t-177 -63h-60v-128h-84zM200 500h-56v-296h56q78 0 119 38.5t41 113.5q0 69 -41 106.5t-119 37.5v0z" />
    <glyph glyph-name="Ugrave" unicode="&#xd9;" horiz-adv-x="520" 
d="M52 220v468h84v-472q0 -70 31 -111t93 -41q63 0 93.5 40t30.5 112v472h84v-468q0 -120 -56 -176t-152 -56t-152 56t-56 176v0zM232 768l-108 164h88l76 -164h-56z" />
    <glyph glyph-name="Uacute" unicode="&#xda;" horiz-adv-x="520" 
d="M52 220v468h84v-472q0 -70 31 -111t93 -41q63 0 93.5 40t30.5 112v472h84v-468q0 -120 -56 -176t-152 -56t-152 56t-56 176v0zM232 768l76 164h88l-108 -164h-56z" />
    <glyph glyph-name="Uhungarumlaut" unicode="&#x170;" horiz-adv-x="520" 
d="M52 220v468h84v-472q0 -70 31 -111t93 -41q63 0 93.5 40t30.5 112v472h84v-468q0 -120 -56 -176t-152 -56t-152 56t-56 176v0zM300 768l76 164h88l-108 -164h-56zM160 768l76 164h88l-108 -164h-56z" />
    <glyph glyph-name="Udieresis" unicode="&#xdc;" horiz-adv-x="520" 
d="M52 220v468h84v-472q0 -70 31 -111t93 -41q63 0 93.5 40t30.5 112v472h84v-468q0 -120 -56 -176t-152 -56t-152 56t-56 176v0zM300 768v84h76v-84h-76zM144 768v84h76v-84h-76z" />
    <glyph glyph-name="Ucircumflex" unicode="&#xdb;" horiz-adv-x="520" 
d="M52 220v468h84v-472q0 -70 31 -111t93 -41q63 0 93.5 40t30.5 112v472h84v-468q0 -120 -56 -176t-152 -56t-152 56t-56 176v0zM132 768l96 164h64l96 -164h-68l-60 112l-60 -112h-68z" />
    <glyph glyph-name="Umacron" unicode="&#x16a;" horiz-adv-x="520" 
d="M52 220v468h84v-472q0 -70 31 -111t93 -41q63 0 93.5 40t30.5 112v472h84v-468q0 -120 -56 -176t-152 -56t-152 56t-56 176v0zM156 776v56h208v-56h-208z" />
    <glyph glyph-name="Utilde" unicode="&#x168;" horiz-adv-x="520" 
d="M52 220v468h84v-472q0 -70 31 -111t93 -41q63 0 93.5 40t30.5 112v472h84v-468q0 -120 -56 -176t-152 -56t-152 56t-56 176v0zM132 768q1 41 20 70.5t56 29.5q32 0 60 -24t48 -24q15 0 21 14t7 34h44q-1 -41 -19.5 -70.5t-56.5 -29.5q-32 0 -60 24t-48 24
q-14 0 -20.5 -14t-7.5 -34h-44z" />
    <glyph glyph-name="Ubreve" unicode="&#x16c;" horiz-adv-x="520" 
d="M52 220v468h84v-472q0 -70 31 -111t93 -41q63 0 93.5 40t30.5 112v472h84v-468q0 -120 -56 -176t-152 -56t-152 56t-56 176v0zM260 768q-46 0 -78 32t-34 104h48q4 -40 18 -62t46 -22t46 22t18 62h48q-2 -72 -34 -104t-78 -32v0z" />
    <glyph glyph-name="Uring" unicode="&#x16e;" horiz-adv-x="520" 
d="M52 220v468h84v-472q0 -70 31 -111t93 -41q63 0 93.5 40t30.5 112v472h84v-468q0 -120 -56 -176t-152 -56t-152 56t-56 176v0zM260 764q-40 0 -70 26.5t-30 69.5t30 69.5t70 26.5t70 -26.5t30 -69.5t-30 -69.5t-70 -26.5v0zM260 804q25 0 40.5 16.5t15.5 39.5t-15.5 39.5
t-40.5 16.5t-40.5 -16.5t-15.5 -39.5t15.5 -39.5t40.5 -16.5v0z" />
    <glyph glyph-name="Uogonek" unicode="&#x172;" horiz-adv-x="520" 
d="M197 -132q0 36 25 66.5t58 54.5q-4 -1 -9.5 -1h-10.5q-96 0 -152 56t-56 176v468h84v-472q0 -70 31 -111t93 -41q63 0 93.5 40t30.5 112v472h84v-468q0 -75 -24 -125t-70 -81q-40 -26 -76.5 -65.5t-36.5 -68.5q0 -21 11 -32.5t37 -11.5h20v-56h-36q-45 0 -70.5 21.5
t-25.5 66.5v0z" />
    <glyph glyph-name="Wgrave" unicode="&#x1e80;" horiz-adv-x="708" 
d="M132 0l-128 688h88l96 -572h4l112 572h104l108 -572h4l96 572h88l-128 -688h-116l-104 572h-4l-104 -572h-116zM326 768l-108 164h88l76 -164h-56z" />
    <glyph glyph-name="Wacute" unicode="&#x1e82;" horiz-adv-x="708" 
d="M132 0l-128 688h88l96 -572h4l112 572h104l108 -572h4l96 572h88l-128 -688h-116l-104 572h-4l-104 -572h-116zM326 768l76 164h88l-108 -164h-56z" />
    <glyph glyph-name="Wdieresis" unicode="&#x1e84;" horiz-adv-x="708" 
d="M132 0l-128 688h88l96 -572h4l112 572h104l108 -572h4l96 572h88l-128 -688h-116l-104 572h-4l-104 -572h-116zM394 768v84h76v-84h-76zM238 768v84h76v-84h-76z" />
    <glyph glyph-name="Wcircumflex" unicode="&#x174;" horiz-adv-x="708" 
d="M132 0l-128 688h88l96 -572h4l112 572h104l108 -572h4l96 572h88l-128 -688h-116l-104 572h-4l-104 -572h-116zM226 768l96 164h64l96 -164h-68l-60 112l-60 -112h-68z" />
    <glyph glyph-name="Ygrave" unicode="&#x1ef2;" horiz-adv-x="464" 
d="M188 0v276l-180 412h92l132 -312h4l136 312h84l-184 -409v-279h-84zM204 768l-108 164h88l76 -164h-56z" />
    <glyph glyph-name="Yacute" unicode="&#xdd;" horiz-adv-x="464" 
d="M188 0v276l-180 412h92l132 -312h4l136 312h84l-184 -409v-279h-84zM204 768l76 164h88l-108 -164h-56z" />
    <glyph glyph-name="Ydieresis" unicode="&#x178;" horiz-adv-x="464" 
d="M188 0v276l-180 412h92l132 -312h4l136 312h84l-184 -409v-279h-84zM272 768v84h76v-84h-76zM116 768v84h76v-84h-76z" />
    <glyph glyph-name="Ycircumflex" unicode="&#x176;" horiz-adv-x="464" 
d="M188 0v276l-180 412h92l132 -312h4l136 312h84l-184 -409v-279h-84zM104 768l96 164h64l96 -164h-68l-60 112l-60 -112h-68z" />
    <glyph glyph-name="Zacute" unicode="&#x179;" horiz-adv-x="428" 
d="M36 612v76h368v-56l-278 -556h274v-76h-376v52l278 560h-266zM186 768l76 164h88l-108 -164h-56z" />
    <glyph glyph-name="Zdotaccent" unicode="&#x17b;" horiz-adv-x="428" 
d="M36 612v76h368v-56l-278 -556h274v-76h-376v52l278 560h-266zM174 768v84h80v-84h-80z" />
    <glyph glyph-name="Zcaron" unicode="&#x17d;" horiz-adv-x="428" 
d="M36 612v76h368v-56l-278 -556h274v-76h-376v52l278 560h-266zM182 768l-96 164h68l60 -112l60 112h68l-96 -164h-64z" />
    <glyph glyph-name="Gcedilla" horiz-adv-x="528" 
d="M420 0l-16 80h-3q-20 -44 -55.5 -68t-89.5 -24q-104 0 -164 90t-60 266t62.5 266t169.5 90q90 0 140.5 -56t63.5 -160h-80q-13 67 -40.5 105.5t-83.5 38.5q-72 0 -108 -73.5t-36 -210.5t36.5 -210.5t111.5 -73.5q57 0 90.5 50.5t33.5 123.5v58h-124v72h204v-364h-52z
M216 -68h80v-78l-37 -102h-36l26 92h-33v88z" />
    <glyph glyph-name="Kcedilla" horiz-adv-x="484" 
d="M60 0v688h84v-337l232 337h92l-209 -301l217 -387h-96l-173 312l-63 -90v-222h-84zM208 -68h80v-78l-37 -102h-36l26 92h-33v88z" />
    <glyph glyph-name="Lcedilla" horiz-adv-x="404" 
d="M60 0v688h84v-612h236v-76h-320zM180 -68h80v-78l-37 -102h-36l26 92h-33v88z" />
    <glyph glyph-name="Ncedilla" horiz-adv-x="540" 
d="M60 0v688h72l268 -496h4l-8 496h84v-688h-72l-268 496h-4l8 -496h-84zM230 -68h80v-78l-37 -102h-36l26 92h-33v88z" />
    <glyph glyph-name="Rcedilla" horiz-adv-x="484" 
d="M56 0v688h152q111 0 171.5 -54t60.5 -150q0 -74 -36 -125t-103 -71l159 -288h-96l-149 276h-75v-276h-84zM208 612h-68v-260h68q81 0 114.5 37.5t33.5 94.5t-35 92.5t-113 35.5v0zM196 -68h80v-78l-37 -102h-36l26 92h-33v88z" />
    <glyph glyph-name="ae.sc" horiz-adv-x="648" 
d="M4 0l276 520h328v-72h-212v-149h172v-66h-172v-161h220v-72h-300v117h-165l-59 -117h-88zM312 436l-126 -249h130v249h-4z" />
    <glyph glyph-name="aeacute.sc" horiz-adv-x="648" 
d="M4 0l276 520h328v-72h-212v-149h172v-66h-172v-161h220v-72h-300v117h-165l-59 -117h-88zM312 436l-126 -249h130v249h-4zM328 600l76 164h88l-108 -164h-56z" />
    <glyph glyph-name="agrave.sc" horiz-adv-x="400" 
d="M4 0l148 520h96l148 -520h-84l-33 128h-162l-33 -128h-80zM196 436l-61 -236h125l-60 236h-4zM170 600l-108 164h88l76 -164h-56z" />
    <glyph glyph-name="aacute.sc" horiz-adv-x="400" 
d="M4 0l148 520h96l148 -520h-84l-33 128h-162l-33 -128h-80zM196 436l-61 -236h125l-60 236h-4zM170 600l76 164h88l-108 -164h-56z" />
    <glyph glyph-name="adieresis.sc" horiz-adv-x="400" 
d="M4 0l148 520h96l148 -520h-84l-33 128h-162l-33 -128h-80zM196 436l-61 -236h125l-60 236h-4zM238 600v84h76v-84h-76zM82 600v84h76v-84h-76z" />
    <glyph glyph-name="acircumflex.sc" horiz-adv-x="400" 
d="M4 0l148 520h96l148 -520h-84l-33 128h-162l-33 -128h-80zM196 436l-61 -236h125l-60 236h-4zM70 600l96 164h64l96 -164h-68l-60 112l-60 -112h-68z" />
    <glyph glyph-name="amacron.sc" horiz-adv-x="400" 
d="M4 0l148 520h96l148 -520h-84l-33 128h-162l-33 -128h-80zM196 436l-61 -236h125l-60 236h-4zM94 608v56h208v-56h-208z" />
    <glyph glyph-name="atilde.sc" horiz-adv-x="400" 
d="M4 0l148 520h96l148 -520h-84l-33 128h-162l-33 -128h-80zM196 436l-61 -236h125l-60 236h-4zM70 600q1 41 20 70.5t56 29.5q32 0 60 -24t48 -24q15 0 21 14t7 34h44q-1 -41 -19.5 -70.5t-56.5 -29.5q-32 0 -60 24t-48 24q-14 0 -20.5 -14t-7.5 -34h-44z" />
    <glyph glyph-name="aring.sc" horiz-adv-x="400" 
d="M4 0l148 520h96l148 -520h-84l-33 128h-162l-33 -128h-80zM196 436l-61 -236h125l-60 236h-4zM198 596q-40 0 -70 26.5t-30 69.5t30 69.5t70 26.5t70 -26.5t30 -69.5t-30 -69.5t-70 -26.5v0zM198 636q25 0 40.5 16.5t15.5 39.5t-15.5 39.5t-40.5 16.5t-40.5 -16.5
t-15.5 -39.5t15.5 -39.5t40.5 -16.5v0z" />
    <glyph glyph-name="abreve.sc" horiz-adv-x="400" 
d="M4 0l148 520h96l148 -520h-84l-33 128h-162l-33 -128h-80zM196 436l-61 -236h125l-60 236h-4zM198 600q-46 0 -78 32t-34 104h48q4 -40 18 -62t46 -22t46 22t18 62h48q-2 -72 -34 -104t-78 -32v0z" />
    <glyph glyph-name="aogonek.sc" horiz-adv-x="400" 
d="M284 -132q0 33 19 65t49 67h-40l-33 128h-162l-33 -128h-80l148 520h96l148 -520q-23 -34 -39.5 -64t-16.5 -52q0 -21 11 -34.5t37 -13.5h20v-56h-36q-45 0 -66.5 26t-21.5 62v0zM196 436l-61 -236h125l-60 236h-4z" />
    <glyph glyph-name="cacute.sc" horiz-adv-x="412" 
d="M36 260q0 130 47.5 201.5t136.5 71.5q75 0 116 -44t48 -134h-80q-6 55 -26 82.5t-59 27.5q-51 0 -77 -52t-26 -153t25.5 -153t77.5 -52q41 0 60 28t25 82h80q-7 -90 -50 -134t-114 -44q-93 0 -138.5 71.5t-45.5 201.5v0zM192 600l76 164h88l-108 -164h-56z" />
    <glyph glyph-name="cdotaccent.sc" horiz-adv-x="412" 
d="M36 260q0 130 47.5 201.5t136.5 71.5q75 0 116 -44t48 -134h-80q-6 55 -26 82.5t-59 27.5q-51 0 -77 -52t-26 -153t25.5 -153t77.5 -52q41 0 60 28t25 82h80q-7 -90 -50 -134t-114 -44q-93 0 -138.5 71.5t-45.5 201.5v0zM180 600v84h80v-84h-80z" />
    <glyph glyph-name="ccircumflex.sc" horiz-adv-x="412" 
d="M36 260q0 130 47.5 201.5t136.5 71.5q75 0 116 -44t48 -134h-80q-6 55 -26 82.5t-59 27.5q-51 0 -77 -52t-26 -153t25.5 -153t77.5 -52q41 0 60 28t25 82h80q-7 -90 -50 -134t-114 -44q-93 0 -138.5 71.5t-45.5 201.5v0zM92 600l96 164h64l96 -164h-68l-60 112l-60 -112
h-68z" />
    <glyph glyph-name="ccaron.sc" horiz-adv-x="412" 
d="M36 260q0 130 47.5 201.5t136.5 71.5q75 0 116 -44t48 -134h-80q-6 55 -26 82.5t-59 27.5q-51 0 -77 -52t-26 -153t25.5 -153t77.5 -52q41 0 60 28t25 82h80q-7 -90 -50 -134t-114 -44q-93 0 -138.5 71.5t-45.5 201.5v0zM188 600l-96 164h68l60 -112l60 112h68l-96 -164
h-64z" />
    <glyph glyph-name="ccedilla.sc" horiz-adv-x="412" 
d="M188 -84l17 72q-85 6 -127 76.5t-42 195.5q0 130 47.5 201.5t136.5 71.5q75 0 116 -44t48 -134h-80q-6 55 -26 82.5t-59 27.5q-51 0 -77 -52t-26 -153t25.5 -153t77.5 -52q41 0 60 28t25 82h80q-7 -84 -46 -128.5t-102 -48.5v-24q35 -4 55.5 -28.5t20.5 -59.5
q0 -43 -23 -69.5t-69 -26.5h-48v52h36q19 0 31.5 9.5t12.5 34.5q0 22 -12.5 31t-31.5 9h-20z" />
    <glyph glyph-name="eth.sc" 
d="M4 228v60h56v232h124q113 0 168.5 -74.5t55.5 -185.5t-55.5 -185.5t-168.5 -74.5h-124v228h-56zM180 448h-40v-160h72v-60h-72v-156h40q82 0 113 57.5t31 130.5q0 75 -31 131.5t-113 56.5v0z" />
    <glyph glyph-name="dcroat.sc" 
d="M4 228v60h56v232h124q113 0 168.5 -74.5t55.5 -185.5t-55.5 -185.5t-168.5 -74.5h-124v228h-56zM180 448h-40v-160h72v-60h-72v-156h40q82 0 113 57.5t31 130.5q0 75 -31 131.5t-113 56.5v0z" />
    <glyph glyph-name="dcaron.sc" 
d="M60 0v520h124q113 0 168.5 -74.5t55.5 -185.5t-55.5 -185.5t-168.5 -74.5h-124zM184 448h-44v-376h44q82 0 113 57.5t31 130.5q0 75 -31 131.5t-113 56.5v0zM172 600l-96 164h68l60 -112l60 112h68l-96 -164h-64z" />
    <glyph glyph-name="egrave.sc" horiz-adv-x="392" 
d="M60 0v520h292v-72h-212v-149h172v-66h-172v-161h220v-72h-300zM176 600l-108 164h88l76 -164h-56z" />
    <glyph glyph-name="eacute.sc" horiz-adv-x="392" 
d="M60 0v520h292v-72h-212v-149h172v-66h-172v-161h220v-72h-300zM176 600l76 164h88l-108 -164h-56z" />
    <glyph glyph-name="edotaccent.sc" horiz-adv-x="392" 
d="M60 0v520h292v-72h-212v-149h172v-66h-172v-161h220v-72h-300zM164 600v84h80v-84h-80z" />
    <glyph glyph-name="edieresis.sc" horiz-adv-x="392" 
d="M60 0v520h292v-72h-212v-149h172v-66h-172v-161h220v-72h-300zM244 600v84h76v-84h-76zM88 600v84h76v-84h-76z" />
    <glyph glyph-name="ecircumflex.sc" horiz-adv-x="392" 
d="M60 0v520h292v-72h-212v-149h172v-66h-172v-161h220v-72h-300zM76 600l96 164h64l96 -164h-68l-60 112l-60 -112h-68z" />
    <glyph glyph-name="ecaron.sc" horiz-adv-x="392" 
d="M60 0v520h292v-72h-212v-149h172v-66h-172v-161h220v-72h-300zM172 600l-96 164h68l60 -112l60 112h68l-96 -164h-64z" />
    <glyph glyph-name="emacron.sc" horiz-adv-x="392" 
d="M60 0v520h292v-72h-212v-149h172v-66h-172v-161h220v-72h-300zM100 608v56h208v-56h-208z" />
    <glyph glyph-name="ebreve.sc" horiz-adv-x="392" 
d="M60 0v520h292v-72h-212v-149h172v-66h-172v-161h220v-72h-300zM204 600q-46 0 -78 32t-34 104h48q4 -40 18 -62t46 -22t46 22t18 62h48q-2 -72 -34 -104t-78 -32v0z" />
    <glyph glyph-name="eogonek.sc" horiz-adv-x="392" 
d="M60 0v520h292v-72h-212v-149h172v-66h-172v-161h220v-72h-4q-23 -34 -39.5 -64t-16.5 -52q0 -21 11 -34.5t37 -13.5h20v-56h-36q-45 0 -66.5 26t-21.5 62q0 33 19 65t49 67h-252z" />
    <glyph glyph-name="gdotaccent.sc" 
d="M228 216v64h168v-280h-52l-8 56h-2q-16 -31 -45.5 -49.5t-72.5 -18.5q-85 0 -132.5 71t-47.5 201t49.5 201t138.5 71q75 0 116 -44t52 -124h-76q-10 48 -31 74t-61 26q-53 0 -80.5 -53t-27.5 -151t28.5 -151t83.5 -53q42 0 67 38t25 90v32h-92zM184 600v84h80v-84h-80z
" />
    <glyph glyph-name="gcircumflex.sc" 
d="M228 216v64h168v-280h-52l-8 56h-2q-16 -31 -45.5 -49.5t-72.5 -18.5q-85 0 -132.5 71t-47.5 201t49.5 201t138.5 71q75 0 116 -44t52 -124h-76q-10 48 -31 74t-61 26q-53 0 -80.5 -53t-27.5 -151t28.5 -151t83.5 -53q42 0 67 38t25 90v32h-92zM96 600l96 164h64l96 -164
h-68l-60 112l-60 -112h-68z" />
    <glyph glyph-name="gbreve.sc" 
d="M228 216v64h168v-280h-52l-8 56h-2q-16 -31 -45.5 -49.5t-72.5 -18.5q-85 0 -132.5 71t-47.5 201t49.5 201t138.5 71q75 0 116 -44t52 -124h-76q-10 48 -31 74t-61 26q-53 0 -80.5 -53t-27.5 -151t28.5 -151t83.5 -53q42 0 67 38t25 90v32h-92zM224 600q-46 0 -78 32
t-34 104h48q4 -40 18 -62t46 -22t46 22t18 62h48q-2 -72 -34 -104t-78 -32v0z" />
    <glyph glyph-name="gcommaaccent.sc" 
d="M228 216v64h168v-280h-52l-8 56h-2q-16 -31 -45.5 -49.5t-72.5 -18.5q-85 0 -132.5 71t-47.5 201t49.5 201t138.5 71q75 0 116 -44t52 -124h-76q-10 48 -31 74t-61 26q-53 0 -80.5 -53t-27.5 -151t28.5 -151t83.5 -53q42 0 67 38t25 90v32h-92zM180 -68h80v-78l-37 -102
h-36l26 92h-33v88z" />
    <glyph glyph-name="hbar.sc" horiz-adv-x="460" 
d="M8 380v60h52v80h80v-80h180v80h80v-80h52v-60h-52v-380h-80v228h-180v-228h-80v380h-52zM140 380v-80h180v80h-180z" />
    <glyph glyph-name="hcircumflex.sc" horiz-adv-x="460" 
d="M60 0v520h80v-220h180v220h80v-520h-80v228h-180v-228h-80zM102 600l96 164h64l96 -164h-68l-60 112l-60 -112h-68z" />
    <glyph glyph-name="dotlessi.sc" horiz-adv-x="200" 
d="M60 0v520h80v-520h-80z" />
    <glyph glyph-name="igrave.sc" horiz-adv-x="200" 
d="M60 0v520h80v-520h-80zM72 600l-108 164h88l76 -164h-56z" />
    <glyph glyph-name="iacute.sc" horiz-adv-x="200" 
d="M60 0v520h80v-520h-80zM72 600l76 164h88l-108 -164h-56z" />
    <glyph glyph-name="idotaccent.sc" horiz-adv-x="200" 
d="M60 0v520h80v-520h-80zM60 600v84h80v-84h-80z" />
    <glyph glyph-name="idieresis.sc" horiz-adv-x="200" 
d="M60 0v520h80v-520h-80zM140 600v84h76v-84h-76zM-16 600v84h76v-84h-76z" />
    <glyph glyph-name="icircumflex.sc" horiz-adv-x="200" 
d="M60 0v520h80v-520h-80zM-28 600l96 164h64l96 -164h-68l-60 112l-60 -112h-68z" />
    <glyph glyph-name="imacron.sc" horiz-adv-x="200" 
d="M60 0v520h80v-520h-80zM-4 608v56h208v-56h-208z" />
    <glyph glyph-name="itilde.sc" horiz-adv-x="200" 
d="M60 0v520h80v-520h-80zM-28 600q1 41 20 70.5t56 29.5q32 0 60 -24t48 -24q15 0 21 14t7 34h44q-1 -41 -19.5 -70.5t-56.5 -29.5q-32 0 -60 24t-48 24q-14 0 -20.5 -14t-7.5 -34h-44z" />
    <glyph glyph-name="ibreve.sc" horiz-adv-x="200" 
d="M60 0v520h80v-520h-80zM100 600q-46 0 -78 32t-34 104h48q4 -40 18 -62t46 -22t46 22t18 62h48q-2 -72 -34 -104t-78 -32v0z" />
    <glyph glyph-name="iogonek.sc" horiz-adv-x="200" 
d="M60 0v520h80v-520q-23 -34 -39.5 -64t-16.5 -52q0 -21 11 -34.5t37 -13.5h20v-56h-36q-45 0 -66.5 26t-21.5 62q0 33 19 65t49 67h-36z" />
    <glyph glyph-name="ij.sc" horiz-adv-x="536" 
d="M60 0v520h80v-520h-80zM232 124v36h76v-40q0 -33 14.5 -46.5t37.5 -13.5q25 0 36.5 13.5t11.5 46.5v400h80v-392q0 -74 -34 -105t-94 -31q-55 0 -91.5 30.5t-36.5 101.5v0z" />
    <glyph glyph-name="jcircumflex.sc" horiz-adv-x="332" 
d="M28 124v36h76v-40q0 -33 13 -46.5t39 -13.5q22 0 35 13.5t13 46.5v400h80v-392q0 -74 -35.5 -105t-92.5 -31q-58 0 -93 30.5t-35 101.5v0zM120 600l96 164h64l96 -164h-68l-60 112l-60 -112h-68z" />
    <glyph glyph-name="kcommaaccent.sc" horiz-adv-x="412" 
d="M60 0v520h80v-243l176 243h88l-171 -228l167 -292h-88l-128 226l-44 -59v-167h-80zM172 -68h80v-78l-37 -102h-36l26 92h-33v88z" />
    <glyph glyph-name="lacute.sc" horiz-adv-x="352" 
d="M60 0v520h80v-448h188v-72h-268zM76 600l76 164h88l-108 -164h-56z" />
    <glyph glyph-name="lcommaaccent.sc" horiz-adv-x="352" 
d="M60 0v520h80v-448h188v-72h-268zM148 -68h80v-78l-37 -102h-36l26 92h-33v88z" />
    <glyph glyph-name="lslash.sc" horiz-adv-x="352" 
d="M4 88v72l56 53v307h80v-229l96 93v-72l-96 -96v-144h188v-72h-268v139z" />
    <glyph glyph-name="ldot.sc" horiz-adv-x="352" 
d="M60 0v520h80v-448h188v-72h-268zM200 220v84h80v-84h-80z" />
    <glyph glyph-name="lcaron.sc" horiz-adv-x="352" 
d="M60 0v520h80v-448h188v-72h-268zM219 340l26 92h-33v88h80v-78l-37 -102h-36z" />
    <glyph glyph-name="nacute.sc" horiz-adv-x="460" 
d="M60 0v520h68l192 -352h4l-4 352h80v-520h-68l-192 352h-4l4 -352h-80zM202 600l76 164h88l-108 -164h-56z" />
    <glyph glyph-name="ncaron.sc" horiz-adv-x="460" 
d="M60 0v520h68l192 -352h4l-4 352h80v-520h-68l-192 352h-4l4 -352h-80zM198 600l-96 164h68l60 -112l60 112h68l-96 -164h-64z" />
    <glyph glyph-name="ntilde.sc" horiz-adv-x="460" 
d="M60 0v520h68l192 -352h4l-4 352h80v-520h-68l-192 352h-4l4 -352h-80zM102 600q1 41 20 70.5t56 29.5q32 0 60 -24t48 -24q15 0 21 14t7 34h44q-1 -41 -19.5 -70.5t-56.5 -29.5q-32 0 -60 24t-48 24q-14 0 -20.5 -14t-7.5 -34h-44z" />
    <glyph glyph-name="ncommaaccent.sc" horiz-adv-x="460" 
d="M60 0v520h68l192 -352h4l-4 352h80v-520h-68l-192 352h-4l4 -352h-80zM190 -68h80v-78l-37 -102h-36l26 92h-33v88z" />
    <glyph glyph-name="eng.sc" horiz-adv-x="460" 
d="M60 0v520h68l192 -348h4l-4 348h80v-580q0 -103 -29.5 -131.5t-98.5 -28.5h-36v72h36q25 0 40.5 17t15.5 71v67l-188 341h-4l4 -348h-80z" />
    <glyph glyph-name="oe.sc" horiz-adv-x="632" 
d="M592 520v-72h-212v-149h172v-66h-172v-161h220v-72h-344q-113 0 -168.5 74.5t-55.5 185.5t55.5 185.5t168.5 74.5h336zM112 260q0 -75 31 -131.5t113 -56.5h44v376h-44q-82 0 -113 -57.5t-31 -130.5v0z" />
    <glyph glyph-name="ograve.sc" 
d="M32 260q0 130 49 201t139 71t139 -71t49 -201t-49 -201t-139 -71t-139 71t-49 201v0zM112 260q0 -98 28 -151t80 -53t80 53t28 151t-28 151t-80 53t-80 -53t-28 -151v0zM192 600l-108 164h88l76 -164h-56z" />
    <glyph glyph-name="oacute.sc" 
d="M32 260q0 130 49 201t139 71t139 -71t49 -201t-49 -201t-139 -71t-139 71t-49 201v0zM112 260q0 -98 28 -151t80 -53t80 53t28 151t-28 151t-80 53t-80 -53t-28 -151v0zM192 600l76 164h88l-108 -164h-56z" />
    <glyph glyph-name="ohungarumlaut.sc" 
d="M32 260q0 130 49 201t139 71t139 -71t49 -201t-49 -201t-139 -71t-139 71t-49 201v0zM112 260q0 -98 28 -151t80 -53t80 53t28 151t-28 151t-80 53t-80 -53t-28 -151v0zM260 600l76 164h88l-108 -164h-56zM120 600l76 164h88l-108 -164h-56z" />
    <glyph glyph-name="odieresis.sc" 
d="M32 260q0 130 49 201t139 71t139 -71t49 -201t-49 -201t-139 -71t-139 71t-49 201v0zM112 260q0 -98 28 -151t80 -53t80 53t28 151t-28 151t-80 53t-80 -53t-28 -151v0zM260 600v84h76v-84h-76zM104 600v84h76v-84h-76z" />
    <glyph glyph-name="ocircumflex.sc" 
d="M32 260q0 130 49 201t139 71t139 -71t49 -201t-49 -201t-139 -71t-139 71t-49 201v0zM112 260q0 -98 28 -151t80 -53t80 53t28 151t-28 151t-80 53t-80 -53t-28 -151v0zM92 600l96 164h64l96 -164h-68l-60 112l-60 -112h-68z" />
    <glyph glyph-name="omacron.sc" 
d="M32 260q0 130 49 201t139 71t139 -71t49 -201t-49 -201t-139 -71t-139 71t-49 201v0zM112 260q0 -98 28 -151t80 -53t80 53t28 151t-28 151t-80 53t-80 -53t-28 -151v0zM116 608v56h208v-56h-208z" />
    <glyph glyph-name="obreve.sc" 
d="M32 260q0 130 49 201t139 71t139 -71t49 -201t-49 -201t-139 -71t-139 71t-49 201v0zM112 260q0 -98 28 -151t80 -53t80 53t28 151t-28 151t-80 53t-80 -53t-28 -151v0zM220 600q-46 0 -78 32t-34 104h48q4 -40 18 -62t46 -22t46 22t18 62h48q-2 -72 -34 -104t-78 -32v0z
" />
    <glyph glyph-name="otilde.sc" 
d="M32 260q0 130 49 201t139 71t139 -71t49 -201t-49 -201t-139 -71t-139 71t-49 201v0zM112 260q0 -98 28 -151t80 -53t80 53t28 151t-28 151t-80 53t-80 -53t-28 -151v0zM92 600q1 41 20 70.5t56 29.5q32 0 60 -24t48 -24q15 0 21 14t7 34h44q-1 -41 -19.5 -70.5
t-56.5 -29.5q-32 0 -60 24t-48 24q-14 0 -20.5 -14t-7.5 -34h-44z" />
    <glyph glyph-name="oslash.sc" 
d="M28 -12l51 85q-19 34 -29 82t-10 105q0 124 46 198t134 74q34 0 61 -11.5t49 -32.5l26 44h56l-51 -85q19 -35 29 -82.5t10 -104.5q0 -124 -46 -198t-134 -74q-34 0 -61.5 11t-48.5 32l-26 -43h-56zM320 260q0 30 -2.5 56.5t-6.5 48.5l-162 -268q12 -20 30 -30.5t41 -10.5
q53 0 76.5 53t23.5 151v0zM120 260q0 -31 2 -57t6 -48l162 268q-12 20 -29.5 30.5t-40.5 10.5q-53 0 -76.5 -53t-23.5 -151v0z" />
    <glyph glyph-name="oslashacute.sc" 
d="M28 -12l51 85q-19 34 -29 82t-10 105q0 124 46 198t134 74q34 0 61 -11.5t49 -32.5l26 44h56l-51 -85q19 -35 29 -82.5t10 -104.5q0 -124 -46 -198t-134 -74q-34 0 -61.5 11t-48.5 32l-26 -43h-56zM320 260q0 30 -2.5 56.5t-6.5 48.5l-162 -268q12 -20 30 -30.5t41 -10.5
q53 0 76.5 53t23.5 151v0zM120 260q0 -31 2 -57t6 -48l162 268q-12 20 -29.5 30.5t-40.5 10.5q-53 0 -76.5 -53t-23.5 -151v0zM192 600l76 164h88l-108 -164h-56z" />
    <glyph glyph-name="racute.sc" horiz-adv-x="416" 
d="M60 0v520h140q81 0 130.5 -40t49.5 -116q0 -56 -28 -95.5t-77 -56.5l121 -212h-88l-112 200h-56v-200h-80zM196 448h-56v-176h56q56 0 80 25.5t24 66.5q0 40 -25 62t-79 22v0zM172 600l76 164h88l-108 -164h-56z" />
    <glyph glyph-name="rcaron.sc" horiz-adv-x="416" 
d="M60 0v520h140q81 0 130.5 -40t49.5 -116q0 -56 -28 -95.5t-77 -56.5l121 -212h-88l-112 200h-56v-200h-80zM196 448h-56v-176h56q56 0 80 25.5t24 66.5q0 40 -25 62t-79 22v0zM168 600l-96 164h68l60 -112l60 112h68l-96 -164h-64z" />
    <glyph glyph-name="rcommaaccent.sc" horiz-adv-x="416" 
d="M60 0v520h140q81 0 130.5 -40t49.5 -116q0 -56 -28 -95.5t-77 -56.5l121 -212h-88l-112 200h-56v-200h-80zM196 448h-56v-176h56q56 0 80 25.5t24 66.5q0 40 -25 62t-79 22v0zM172 -68h80v-78l-37 -102h-36l26 92h-33v88z" />
    <glyph glyph-name="sacute.sc" horiz-adv-x="388" 
d="M28 140h76q0 -42 24.5 -64t63.5 -22t63.5 21.5t24.5 60.5q0 95 -120 103t-120 145q0 63 42 105.5t114 42.5t112 -37.5t40 -106.5h-72q0 40 -23.5 59t-56.5 19t-56.5 -18.5t-23.5 -55.5q0 -96 120 -102t120 -146q0 -72 -43 -114t-121 -42t-121 41.5t-43 110.5v0zM172 600
l76 164h88l-108 -164h-56z" />
    <glyph glyph-name="scaron.sc" horiz-adv-x="388" 
d="M28 140h76q0 -42 24.5 -64t63.5 -22t63.5 21.5t24.5 60.5q0 95 -120 103t-120 145q0 63 42 105.5t114 42.5t112 -37.5t40 -106.5h-72q0 40 -23.5 59t-56.5 19t-56.5 -18.5t-23.5 -55.5q0 -96 120 -102t120 -146q0 -72 -43 -114t-121 -42t-121 41.5t-43 110.5v0zM168 600
l-96 164h68l60 -112l60 112h68l-96 -164h-64z" />
    <glyph glyph-name="scircumflex.sc" horiz-adv-x="388" 
d="M28 140h76q0 -42 24.5 -64t63.5 -22t63.5 21.5t24.5 60.5q0 95 -120 103t-120 145q0 63 42 105.5t114 42.5t112 -37.5t40 -106.5h-72q0 40 -23.5 59t-56.5 19t-56.5 -18.5t-23.5 -55.5q0 -96 120 -102t120 -146q0 -72 -43 -114t-121 -42t-121 41.5t-43 110.5v0zM72 600
l96 164h64l96 -164h-68l-60 112l-60 -112h-68z" />
    <glyph glyph-name="scommaaccent.sc" horiz-adv-x="388" 
d="M28 140h76q0 -42 24.5 -64t63.5 -22t63.5 21.5t24.5 60.5q0 95 -120 103t-120 145q0 63 42 105.5t114 42.5t112 -37.5t40 -106.5h-72q0 40 -23.5 59t-56.5 19t-56.5 -18.5t-23.5 -55.5q0 -96 120 -102t120 -146q0 -72 -43 -114t-121 -42t-121 41.5t-43 110.5v0zM152 -68
h80v-78l-37 -102h-36l26 92h-33v88z" />
    <glyph glyph-name="scedilla.sc" horiz-adv-x="388" 
d="M160 -84l17 73q-71 4 -110 44.5t-39 106.5h76q0 -42 24.5 -64t63.5 -22t63.5 21.5t24.5 60.5q0 95 -120 103t-120 145q0 63 42 105.5t114 42.5t112 -37.5t40 -106.5h-72q0 40 -23.5 59t-56.5 19t-56.5 -18.5t-23.5 -55.5q0 -96 120 -102t120 -146q0 -68 -39 -109.5
t-109 -45.5v-25q35 -4 55.5 -28.5t20.5 -59.5q0 -43 -23 -69.5t-69 -26.5h-48v52h36q19 0 31.5 9.5t12.5 34.5q0 22 -12.5 31t-31.5 9h-20z" />
    <glyph glyph-name="tcaron.sc" horiz-adv-x="376" 
d="M16 448v72h344v-72h-132v-448h-80v448h-132zM156 600l-96 164h68l60 -112l60 112h68l-96 -164h-64z" />
    <glyph glyph-name="uni021B.sc" horiz-adv-x="376" 
d="M16 448v72h344v-72h-132v-448h-80v448h-132zM148 -68h80v-78l-37 -102h-36l26 92h-33v88z" />
    <glyph glyph-name="tcommaaccent.sc" horiz-adv-x="376" 
d="M156 -84l20 84h-28v448h-132v72h344v-72h-132v-448h-24v-36q35 -4 55.5 -28.5t20.5 -59.5q0 -43 -23 -69.5t-69 -26.5h-48v52h36q19 0 31.5 9.5t12.5 34.5q0 22 -12.5 31t-31.5 9h-20z" />
    <glyph glyph-name="tbar.sc" horiz-adv-x="376" 
d="M16 444v76h344v-76h-132v-172h100v-60h-100v-212h-80v212h-100v60h100v172h-132z" />
    <glyph glyph-name="thorn.sc" horiz-adv-x="400" 
d="M60 0v520h80v-76h52q89 0 138.5 -48t49.5 -124q0 -77 -49.5 -126.5t-138.5 -49.5h-52v-96h-80zM192 372h-52v-204h52q51 0 79.5 26.5t28.5 77.5q0 49 -28.5 74.5t-79.5 25.5v0z" />
    <glyph glyph-name="ugrave.sc" horiz-adv-x="448" 
d="M52 176v344h80v-348q0 -60 22 -88t70 -28t70 28t22 88v348h80v-344q0 -109 -49.5 -148.5t-122.5 -39.5t-122.5 39.5t-49.5 148.5v0zM196 600l-108 164h88l76 -164h-56z" />
    <glyph glyph-name="uacute.sc" horiz-adv-x="448" 
d="M52 176v344h80v-348q0 -60 22 -88t70 -28t70 28t22 88v348h80v-344q0 -109 -49.5 -148.5t-122.5 -39.5t-122.5 39.5t-49.5 148.5v0zM196 600l76 164h88l-108 -164h-56z" />
    <glyph glyph-name="uhungarumlaut.sc" horiz-adv-x="448" 
d="M52 176v344h80v-348q0 -60 22 -88t70 -28t70 28t22 88v348h80v-344q0 -109 -49.5 -148.5t-122.5 -39.5t-122.5 39.5t-49.5 148.5v0zM264 600l76 164h88l-108 -164h-56zM124 600l76 164h88l-108 -164h-56z" />
    <glyph glyph-name="udieresis.sc" horiz-adv-x="448" 
d="M52 176v344h80v-348q0 -60 22 -88t70 -28t70 28t22 88v348h80v-344q0 -109 -49.5 -148.5t-122.5 -39.5t-122.5 39.5t-49.5 148.5v0zM264 600v84h76v-84h-76zM108 600v84h76v-84h-76z" />
    <glyph glyph-name="ucircumflex.sc" horiz-adv-x="448" 
d="M52 176v344h80v-348q0 -60 22 -88t70 -28t70 28t22 88v348h80v-344q0 -109 -49.5 -148.5t-122.5 -39.5t-122.5 39.5t-49.5 148.5v0zM96 600l96 164h64l96 -164h-68l-60 112l-60 -112h-68z" />
    <glyph glyph-name="umacron.sc" horiz-adv-x="448" 
d="M52 176v344h80v-348q0 -60 22 -88t70 -28t70 28t22 88v348h80v-344q0 -109 -49.5 -148.5t-122.5 -39.5t-122.5 39.5t-49.5 148.5v0zM120 608v56h208v-56h-208z" />
    <glyph glyph-name="utilde.sc" horiz-adv-x="448" 
d="M52 176v344h80v-348q0 -60 22 -88t70 -28t70 28t22 88v348h80v-344q0 -109 -49.5 -148.5t-122.5 -39.5t-122.5 39.5t-49.5 148.5v0zM96 600q1 41 20 70.5t56 29.5q32 0 60 -24t48 -24q15 0 21 14t7 34h44q-1 -41 -19.5 -70.5t-56.5 -29.5q-32 0 -60 24t-48 24
q-14 0 -20.5 -14t-7.5 -34h-44z" />
    <glyph glyph-name="ubreve.sc" horiz-adv-x="448" 
d="M52 176v344h80v-348q0 -60 22 -88t70 -28t70 28t22 88v348h80v-344q0 -109 -49.5 -148.5t-122.5 -39.5t-122.5 39.5t-49.5 148.5v0zM224 600q-46 0 -78 32t-34 104h48q4 -40 18 -62t46 -22t46 22t18 62h48q-2 -72 -34 -104t-78 -32v0z" />
    <glyph glyph-name="uring.sc" horiz-adv-x="448" 
d="M52 176v344h80v-348q0 -60 22 -88t70 -28t70 28t22 88v348h80v-344q0 -109 -49.5 -148.5t-122.5 -39.5t-122.5 39.5t-49.5 148.5v0zM224 596q-40 0 -70 26.5t-30 69.5t30 69.5t70 26.5t70 -26.5t30 -69.5t-30 -69.5t-70 -26.5v0zM224 636q25 0 40.5 16.5t15.5 39.5
t-15.5 39.5t-40.5 16.5t-40.5 -16.5t-15.5 -39.5t15.5 -39.5t40.5 -16.5v0z" />
    <glyph glyph-name="uogonek.sc" horiz-adv-x="448" 
d="M152 -132q0 35 25 66t58 54h-11q-76 0 -124 39.5t-48 148.5v344h80v-348q0 -60 22 -88t70 -28t70 28t22 88v348h80v-344q0 -66 -18.5 -105t-49.5 -59q-40 -26 -76 -65t-36 -67q0 -21 11 -32.5t37 -11.5h20v-56h-36q-45 0 -70.5 21.5t-25.5 66.5v0z" />
    <glyph glyph-name="wgrave.sc" horiz-adv-x="604" 
d="M112 0l-96 520h80l72 -420h4l84 420h92l84 -420h4l72 420h80l-96 -520h-108l-80 408h-4l-80 -408h-108zM274 600l-108 164h88l76 -164h-56z" />
    <glyph glyph-name="wacute.sc" horiz-adv-x="604" 
d="M112 0l-96 520h80l72 -420h4l84 420h92l84 -420h4l72 420h80l-96 -520h-108l-80 408h-4l-80 -408h-108zM274 600l76 164h88l-108 -164h-56z" />
    <glyph glyph-name="wdieresis.sc" horiz-adv-x="604" 
d="M112 0l-96 520h80l72 -420h4l84 420h92l84 -420h4l72 420h80l-96 -520h-108l-80 408h-4l-80 -408h-108zM342 600v84h76v-84h-76zM186 600v84h76v-84h-76z" />
    <glyph glyph-name="wcircumflex.sc" horiz-adv-x="604" 
d="M112 0l-96 520h80l72 -420h4l84 420h92l84 -420h4l72 420h80l-96 -520h-108l-80 408h-4l-80 -408h-108zM174 600l96 164h64l96 -164h-68l-60 112l-60 -112h-68z" />
    <glyph glyph-name="ygrave.sc" horiz-adv-x="384" 
d="M150 0v213l-146 307h88l100 -224h4l100 224h84l-150 -308v-212h-80zM164 600l-108 164h88l76 -164h-56z" />
    <glyph glyph-name="yacute.sc" horiz-adv-x="384" 
d="M150 0v213l-146 307h88l100 -224h4l100 224h84l-150 -308v-212h-80zM164 600l76 164h88l-108 -164h-56z" />
    <glyph glyph-name="ydieresis.sc" horiz-adv-x="384" 
d="M150 0v213l-146 307h88l100 -224h4l100 224h84l-150 -308v-212h-80zM232 600v84h76v-84h-76zM76 600v84h76v-84h-76z" />
    <glyph glyph-name="ycircumflex.sc" horiz-adv-x="384" 
d="M150 0v213l-146 307h88l100 -224h4l100 224h84l-150 -308v-212h-80zM64 600l96 164h64l96 -164h-68l-60 112l-60 -112h-68z" />
    <glyph glyph-name="zacute.sc" horiz-adv-x="360" 
d="M32 448v72h304v-52l-216 -396h212v-72h-308v48l218 400h-210zM156 600l76 164h88l-108 -164h-56z" />
    <glyph glyph-name="zdotaccent.sc" horiz-adv-x="360" 
d="M32 448v72h304v-52l-216 -396h212v-72h-308v48l218 400h-210zM144 600v84h80v-84h-80z" />
    <glyph glyph-name="zcaron.sc" horiz-adv-x="360" 
d="M32 448v72h304v-52l-216 -396h212v-72h-308v48l218 400h-210zM152 600l-96 164h68l60 -112l60 112h68l-96 -164h-64z" />
    <glyph glyph-name="gcedilla.sc" 
d="M228 216v64h168v-280h-52l-8 56h-2q-16 -31 -45.5 -49.5t-72.5 -18.5q-85 0 -132.5 71t-47.5 201t49.5 201t138.5 71q75 0 116 -44t52 -124h-76q-10 48 -31 74t-61 26q-53 0 -80.5 -53t-27.5 -151t28.5 -151t83.5 -53q42 0 67 38t25 90v32h-92zM180 -68h80v-78l-37 -102
h-36l26 92h-33v88z" />
    <glyph glyph-name="kcedilla.sc" horiz-adv-x="412" 
d="M60 0v520h80v-243l176 243h88l-171 -228l167 -292h-88l-128 226l-44 -59v-167h-80zM172 -68h80v-78l-37 -102h-36l26 92h-33v88z" />
    <glyph glyph-name="lcedilla.sc" horiz-adv-x="352" 
d="M60 0v520h80v-448h188v-72h-268zM148 -68h80v-78l-37 -102h-36l26 92h-33v88z" />
    <glyph glyph-name="ncedilla.sc" horiz-adv-x="460" 
d="M60 0v520h68l192 -352h4l-4 352h80v-520h-68l-192 352h-4l4 -352h-80zM190 -68h80v-78l-37 -102h-36l26 92h-33v88z" />
    <glyph glyph-name="rcedilla.sc" horiz-adv-x="416" 
d="M60 0v520h140q81 0 130.5 -40t49.5 -116q0 -56 -28 -95.5t-77 -56.5l121 -212h-88l-112 200h-56v-200h-80zM196 448h-56v-176h56q56 0 80 25.5t24 66.5q0 40 -25 62t-79 22v0zM172 -68h80v-78l-37 -102h-36l26 92h-33v88z" />
    <glyph glyph-name="ae" unicode="&#xe6;" horiz-adv-x="616" 
d="M40 336q4 79 43.5 121.5t108.5 42.5q43 0 72 -14t45 -40q19 25 46.5 39.5t64.5 14.5q90 0 125 -69t35 -159v-36h-248q1 -81 23.5 -130.5t68.5 -49.5q39 0 57 23.5t27 68.5h68q-10 -83 -50 -121.5t-106 -38.5q-48 0 -79.5 21t-49.5 58q-28 -51 -62.5 -65t-64.5 -14
q-69 0 -102.5 37.5t-33.5 94.5q0 62 34 100t102 52l48 10q28 6 38 16.5t10 45.5q0 45 -16.5 66.5t-51.5 21.5q-36 0 -55 -23.5t-21 -72.5h-76zM172 52q34 0 61 32t27 116v42q-6 -7 -15.5 -11.5t-20.5 -6.5l-48 -10q-37 -7 -52.5 -31t-15.5 -55q0 -35 18 -55.5t46 -20.5v0z
M420 432q-41 0 -61.5 -36.5t-24.5 -97.5h167q-2 54 -19.5 94t-61.5 40v0z" />
    <glyph glyph-name="aeacute" unicode="&#x1fd;" horiz-adv-x="616" 
d="M40 336q4 79 43.5 121.5t108.5 42.5q43 0 72 -14t45 -40q19 25 46.5 39.5t64.5 14.5q90 0 125 -69t35 -159v-36h-248q1 -81 23.5 -130.5t68.5 -49.5q39 0 57 23.5t27 68.5h68q-10 -83 -50 -121.5t-106 -38.5q-48 0 -79.5 21t-49.5 58q-28 -51 -62.5 -65t-64.5 -14
q-69 0 -102.5 37.5t-33.5 94.5q0 62 34 100t102 52l48 10q28 6 38 16.5t10 45.5q0 45 -16.5 66.5t-51.5 21.5q-36 0 -55 -23.5t-21 -72.5h-76zM172 52q34 0 61 32t27 116v42q-6 -7 -15.5 -11.5t-20.5 -6.5l-48 -10q-37 -7 -52.5 -31t-15.5 -55q0 -35 18 -55.5t46 -20.5v0z
M420 432q-41 0 -61.5 -36.5t-24.5 -97.5h167q-2 54 -19.5 94t-61.5 40v0zM276 568l76 164h88l-108 -164h-56z" />
    <glyph glyph-name="agrave" unicode="&#xe0;" horiz-adv-x="392" 
d="M28 120q0 60 34 99t102 53l48 10q25 5 36.5 15t11.5 47q0 42 -16.5 65t-51.5 23q-36 0 -55 -25t-21 -71h-76q4 79 45 121.5t107 42.5q75 0 111.5 -40.5t36.5 -115.5v-344h-76v48h-4q-16 -28 -42.5 -44t-65.5 -16q-60 0 -92 38.5t-32 93.5v0zM260 200v42
q-6 -7 -15.5 -11.5t-20.5 -6.5l-48 -10q-37 -7 -52.5 -31t-15.5 -55q0 -35 18 -53.5t46 -18.5q34 0 61 31.5t27 112.5v0zM172 568l-108 164h88l76 -164h-56z" />
    <glyph glyph-name="aacute" unicode="&#xe1;" horiz-adv-x="392" 
d="M28 120q0 60 34 99t102 53l48 10q25 5 36.5 15t11.5 47q0 42 -16.5 65t-51.5 23q-36 0 -55 -25t-21 -71h-76q4 79 45 121.5t107 42.5q75 0 111.5 -40.5t36.5 -115.5v-344h-76v48h-4q-16 -28 -42.5 -44t-65.5 -16q-60 0 -92 38.5t-32 93.5v0zM260 200v42
q-6 -7 -15.5 -11.5t-20.5 -6.5l-48 -10q-37 -7 -52.5 -31t-15.5 -55q0 -35 18 -53.5t46 -18.5q34 0 61 31.5t27 112.5v0zM156 568l76 164h88l-108 -164h-56z" />
    <glyph glyph-name="adieresis" unicode="&#xe4;" horiz-adv-x="392" 
d="M28 120q0 60 34 99t102 53l48 10q25 5 36.5 15t11.5 47q0 42 -16.5 65t-51.5 23q-36 0 -55 -25t-21 -71h-76q4 79 45 121.5t107 42.5q75 0 111.5 -40.5t36.5 -115.5v-344h-76v48h-4q-16 -28 -42.5 -44t-65.5 -16q-60 0 -92 38.5t-32 93.5v0zM260 200v42
q-6 -7 -15.5 -11.5t-20.5 -6.5l-48 -10q-37 -7 -52.5 -31t-15.5 -55q0 -35 18 -53.5t46 -18.5q34 0 61 31.5t27 112.5v0zM232 608v84h76v-84h-76zM76 608v84h76v-84h-76z" />
    <glyph glyph-name="acircumflex" unicode="&#xe2;" horiz-adv-x="392" 
d="M28 120q0 60 34 99t102 53l48 10q25 5 36.5 15t11.5 47q0 42 -16.5 65t-51.5 23q-36 0 -55 -25t-21 -71h-76q4 79 45 121.5t107 42.5q75 0 111.5 -40.5t36.5 -115.5v-344h-76v48h-4q-16 -28 -42.5 -44t-65.5 -16q-60 0 -92 38.5t-32 93.5v0zM260 200v42
q-6 -7 -15.5 -11.5t-20.5 -6.5l-48 -10q-37 -7 -52.5 -31t-15.5 -55q0 -35 18 -53.5t46 -18.5q34 0 61 31.5t27 112.5v0zM64 568l96 164h64l96 -164h-68l-60 112l-60 -112h-68z" />
    <glyph glyph-name="amacron" unicode="&#x101;" horiz-adv-x="392" 
d="M28 120q0 60 34 99t102 53l48 10q25 5 36.5 15t11.5 47q0 42 -16.5 65t-51.5 23q-36 0 -55 -25t-21 -71h-76q4 79 45 121.5t107 42.5q75 0 111.5 -40.5t36.5 -115.5v-344h-76v48h-4q-16 -28 -42.5 -44t-65.5 -16q-60 0 -92 38.5t-32 93.5v0zM260 200v42
q-6 -7 -15.5 -11.5t-20.5 -6.5l-48 -10q-37 -7 -52.5 -31t-15.5 -55q0 -35 18 -53.5t46 -18.5q34 0 61 31.5t27 112.5v0zM88 624v56h208v-56h-208z" />
    <glyph glyph-name="atilde" unicode="&#xe3;" horiz-adv-x="392" 
d="M28 120q0 60 34 99t102 53l48 10q25 5 36.5 15t11.5 47q0 42 -16.5 65t-51.5 23q-36 0 -55 -25t-21 -71h-76q4 79 45 121.5t107 42.5q75 0 111.5 -40.5t36.5 -115.5v-344h-76v48h-4q-16 -28 -42.5 -44t-65.5 -16q-60 0 -92 38.5t-32 93.5v0zM260 200v42
q-6 -7 -15.5 -11.5t-20.5 -6.5l-48 -10q-37 -7 -52.5 -31t-15.5 -55q0 -35 18 -53.5t46 -18.5q34 0 61 31.5t27 112.5v0zM64 600q1 41 20 70.5t56 29.5q32 0 60 -24t48 -24q15 0 21 14t7 34h44q-1 -41 -19.5 -70.5t-56.5 -29.5q-32 0 -60 24t-48 24q-14 0 -20.5 -14
t-7.5 -34h-44z" />
    <glyph glyph-name="aring" unicode="&#xe5;" horiz-adv-x="392" 
d="M28 120q0 60 34 99t102 53l48 10q25 5 36.5 15t11.5 47q0 42 -16.5 65t-51.5 23q-36 0 -55 -25t-21 -71h-76q4 79 45 121.5t107 42.5q75 0 111.5 -40.5t36.5 -115.5v-344h-76v48h-4q-16 -28 -42.5 -44t-65.5 -16q-60 0 -92 38.5t-32 93.5v0zM260 200v42
q-6 -7 -15.5 -11.5t-20.5 -6.5l-48 -10q-37 -7 -52.5 -31t-15.5 -55q0 -35 18 -53.5t46 -18.5q34 0 61 31.5t27 112.5v0zM192 564q-40 0 -70 26.5t-30 69.5t30 69.5t70 26.5t70 -26.5t30 -69.5t-30 -69.5t-70 -26.5v0zM192 604q25 0 40.5 16.5t15.5 39.5t-15.5 39.5
t-40.5 16.5t-40.5 -16.5t-15.5 -39.5t15.5 -39.5t40.5 -16.5v0z" />
    <glyph glyph-name="abreve" unicode="&#x103;" horiz-adv-x="392" 
d="M28 120q0 60 34 99t102 53l48 10q25 5 36.5 15t11.5 47q0 42 -16.5 65t-51.5 23q-36 0 -55 -25t-21 -71h-76q4 79 45 121.5t107 42.5q75 0 111.5 -40.5t36.5 -115.5v-344h-76v48h-4q-16 -28 -42.5 -44t-65.5 -16q-60 0 -92 38.5t-32 93.5v0zM260 200v42
q-6 -7 -15.5 -11.5t-20.5 -6.5l-48 -10q-37 -7 -52.5 -31t-15.5 -55q0 -35 18 -53.5t46 -18.5q34 0 61 31.5t27 112.5v0zM192 584q-46 0 -78 32t-34 104h48q4 -40 18 -62t46 -22t46 22t18 62h48q-2 -72 -34 -104t-78 -32v0z" />
    <glyph glyph-name="aogonek" unicode="&#x105;" horiz-adv-x="392" 
d="M228 -132q0 33 19 65t49 67h-32v48h-4q-16 -28 -42.5 -44t-65.5 -16q-60 0 -92 38.5t-32 93.5q0 60 34 99t102 53l48 10q25 5 36.5 15t11.5 47q0 42 -16.5 65t-51.5 23q-36 0 -55 -25t-21 -71h-76q4 79 45 121.5t107 42.5q75 0 111.5 -40.5t36.5 -115.5v-344
q-23 -34 -39.5 -64t-16.5 -52q0 -21 11 -34.5t37 -13.5h20v-56h-36q-45 0 -66.5 26t-21.5 62v0zM260 200v42q-6 -7 -15.5 -11.5t-20.5 -6.5l-48 -10q-37 -7 -52.5 -31t-15.5 -55q0 -35 18 -53.5t46 -18.5q34 0 61 31.5t27 112.5v0z" />
    <glyph glyph-name="cacute" unicode="&#x107;" horiz-adv-x="372" 
d="M32 244q0 113 38.5 184.5t125.5 71.5q66 0 105 -40t43 -128h-76q-3 54 -20.5 77t-51.5 23q-46 0 -65 -52t-19 -136t18.5 -136t65.5 -52q34 0 53.5 23t22.5 77h72q-4 -88 -46 -128t-102 -40q-90 0 -127 71.5t-37 184.5v0zM168 568l76 164h88l-108 -164h-56z" />
    <glyph glyph-name="cdotaccent" unicode="&#x10b;" horiz-adv-x="372" 
d="M32 244q0 113 38.5 184.5t125.5 71.5q66 0 105 -40t43 -128h-76q-3 54 -20.5 77t-51.5 23q-46 0 -65 -52t-19 -136t18.5 -136t65.5 -52q34 0 53.5 23t22.5 77h72q-4 -88 -46 -128t-102 -40q-90 0 -127 71.5t-37 184.5v0zM156 608v84h80v-84h-80z" />
    <glyph glyph-name="ccircumflex" unicode="&#x109;" horiz-adv-x="372" 
d="M32 244q0 113 38.5 184.5t125.5 71.5q66 0 105 -40t43 -128h-76q-3 54 -20.5 77t-51.5 23q-46 0 -65 -52t-19 -136t18.5 -136t65.5 -52q34 0 53.5 23t22.5 77h72q-4 -88 -46 -128t-102 -40q-90 0 -127 71.5t-37 184.5v0zM68 568l96 164h64l96 -164h-68l-60 112l-60 -112
h-68z" />
    <glyph glyph-name="ccaron" unicode="&#x10d;" horiz-adv-x="372" 
d="M32 244q0 113 38.5 184.5t125.5 71.5q66 0 105 -40t43 -128h-76q-3 54 -20.5 77t-51.5 23q-46 0 -65 -52t-19 -136t18.5 -136t65.5 -52q34 0 53.5 23t22.5 77h72q-4 -88 -46 -128t-102 -40q-90 0 -127 71.5t-37 184.5v0zM164 568l-96 164h68l60 -112l60 112h68l-96 -164
h-64z" />
    <glyph glyph-name="ccedilla" unicode="&#xe7;" horiz-adv-x="372" 
d="M164 -84l17 73q-81 6 -115 76t-34 179q0 113 38.5 184.5t125.5 71.5q66 0 105 -40t43 -128h-76q-3 54 -20.5 77t-51.5 23q-46 0 -65 -52t-19 -136t18.5 -136t65.5 -52q34 0 53.5 23t22.5 77h72q-4 -82 -41 -122t-91 -45v-25q35 -4 55.5 -28.5t20.5 -59.5q0 -43 -23 -69.5
t-69 -26.5h-48v52h36q19 0 31.5 9.5t12.5 34.5q0 22 -12.5 31t-31.5 9h-20z" />
    <glyph glyph-name="eth" unicode="&#xf0;" horiz-adv-x="415" 
d="M148 532l-32 40l69 63q-19 16 -42 29t-51 24l20 56q35 -13 65.5 -29t55.5 -36l71 65l32 -40l-65 -60q49 -54 75 -137t30 -203v-36q0 -160 -45.5 -220t-122.5 -60q-73 0 -120.5 53t-47.5 187t46.5 187t121.5 53q17 0 42 -9.5t39 -33.5q-11 57 -27 99.5t-41 73.5zM120 228
q0 -99 24 -135.5t64 -36.5q41 0 64.5 36.5t23.5 135.5q0 96 -22 134t-66 38q-43 0 -65.5 -38t-22.5 -134v0z" />
    <glyph glyph-name="dcroat" unicode="&#x111;" horiz-adv-x="420" 
d="M188 592v56h100v84h80v-84h52v-56h-52v-592h-76v52h-4q-18 -36 -43 -50t-61 -14q-78 0 -115 68.5t-37 187.5t38.5 187.5t117.5 68.5q36 0 60.5 -12.5t39.5 -51.5h4q-2 45 -3 86t-1 66v4h-100zM112 244q0 -84 19.5 -136t68.5 -52t68.5 52t19.5 136v16q-1 77 -21.5 124.5
t-66.5 47.5q-49 0 -68.5 -52t-19.5 -136v0z" />
    <glyph glyph-name="dcaron" unicode="&#x10f;" horiz-adv-x="420" 
d="M32 244q0 119 38.5 187.5t117.5 68.5q36 0 60.5 -14t39.5 -50h4q-2 45 -3 86t-1 66v144h80v-732h-76v52h-4q-18 -36 -43 -50t-61 -14q-78 0 -115 68.5t-37 187.5v0zM112 244q0 -84 19.5 -136t68.5 -52t68.5 52t19.5 136t-19.5 136t-68.5 52t-68.5 -52t-19.5 -136v0z
M427 552l26 92h-33v88h80v-78l-37 -102h-36z" />
    <glyph glyph-name="egrave" unicode="&#xe8;" horiz-adv-x="396" 
d="M32 244q0 113 42.5 184.5t129.5 71.5q90 0 123 -69t33 -159v-36h-248q1 -81 23.5 -130.5t68.5 -49.5q39 0 57 23.5t27 68.5h68q-10 -83 -50 -121.5t-106 -38.5q-93 0 -130.5 71.5t-37.5 184.5v0zM204 432q-41 0 -63 -37t-27 -97h167q-1 54 -17 94t-60 40v0zM172 568
l-108 164h88l76 -164h-56z" />
    <glyph glyph-name="eacute" unicode="&#xe9;" horiz-adv-x="396" 
d="M32 244q0 113 42.5 184.5t129.5 71.5q90 0 123 -69t33 -159v-36h-248q1 -81 23.5 -130.5t68.5 -49.5q39 0 57 23.5t27 68.5h68q-10 -83 -50 -121.5t-106 -38.5q-93 0 -130.5 71.5t-37.5 184.5v0zM204 432q-41 0 -63 -37t-27 -97h167q-1 54 -17 94t-60 40v0zM172 568
l76 164h88l-108 -164h-56z" />
    <glyph glyph-name="edotaccent" unicode="&#x117;" horiz-adv-x="396" 
d="M32 244q0 113 42.5 184.5t129.5 71.5q90 0 123 -69t33 -159v-36h-248q1 -81 23.5 -130.5t68.5 -49.5q39 0 57 23.5t27 68.5h68q-10 -83 -50 -121.5t-106 -38.5q-93 0 -130.5 71.5t-37.5 184.5v0zM204 432q-41 0 -63 -37t-27 -97h167q-1 54 -17 94t-60 40v0zM160 608v84
h80v-84h-80z" />
    <glyph glyph-name="edieresis" unicode="&#xeb;" horiz-adv-x="396" 
d="M32 244q0 113 42.5 184.5t129.5 71.5q90 0 123 -69t33 -159v-36h-248q1 -81 23.5 -130.5t68.5 -49.5q39 0 57 23.5t27 68.5h68q-10 -83 -50 -121.5t-106 -38.5q-93 0 -130.5 71.5t-37.5 184.5v0zM204 432q-41 0 -63 -37t-27 -97h167q-1 54 -17 94t-60 40v0zM240 608v84
h76v-84h-76zM84 608v84h76v-84h-76z" />
    <glyph glyph-name="ecircumflex" unicode="&#xea;" horiz-adv-x="396" 
d="M32 244q0 113 42.5 184.5t129.5 71.5q90 0 123 -69t33 -159v-36h-248q1 -81 23.5 -130.5t68.5 -49.5q39 0 57 23.5t27 68.5h68q-10 -83 -50 -121.5t-106 -38.5q-93 0 -130.5 71.5t-37.5 184.5v0zM204 432q-41 0 -63 -37t-27 -97h167q-1 54 -17 94t-60 40v0zM72 568
l96 164h64l96 -164h-68l-60 112l-60 -112h-68z" />
    <glyph glyph-name="ecaron" unicode="&#x11b;" horiz-adv-x="396" 
d="M32 244q0 113 42.5 184.5t129.5 71.5q90 0 123 -69t33 -159v-36h-248q1 -81 23.5 -130.5t68.5 -49.5q39 0 57 23.5t27 68.5h68q-10 -83 -50 -121.5t-106 -38.5q-93 0 -130.5 71.5t-37.5 184.5v0zM204 432q-41 0 -63 -37t-27 -97h167q-1 54 -17 94t-60 40v0zM168 568
l-96 164h68l60 -112l60 112h68l-96 -164h-64z" />
    <glyph glyph-name="emacron" unicode="&#x113;" horiz-adv-x="396" 
d="M32 244q0 113 42.5 184.5t129.5 71.5q90 0 123 -69t33 -159v-36h-248q1 -81 23.5 -130.5t68.5 -49.5q39 0 57 23.5t27 68.5h68q-10 -83 -50 -121.5t-106 -38.5q-93 0 -130.5 71.5t-37.5 184.5v0zM204 432q-41 0 -63 -37t-27 -97h167q-1 54 -17 94t-60 40v0zM96 624v56
h208v-56h-208z" />
    <glyph glyph-name="ebreve" unicode="&#x115;" horiz-adv-x="396" 
d="M32 244q0 113 42.5 184.5t129.5 71.5q90 0 123 -69t33 -159v-36h-248q1 -81 23.5 -130.5t68.5 -49.5q39 0 57 23.5t27 68.5h68q-10 -83 -50 -121.5t-106 -38.5q-93 0 -130.5 71.5t-37.5 184.5v0zM204 432q-41 0 -63 -37t-27 -97h167q-1 54 -17 94t-60 40v0zM200 584
q-46 0 -78 32t-34 104h48q4 -40 18 -62t46 -22t46 22t18 62h48q-2 -72 -34 -104t-78 -32v0z" />
    <glyph glyph-name="eogonek" unicode="&#x119;" horiz-adv-x="396" 
d="M132 -132q0 34 22.5 65t50.5 55h-5q-93 0 -130.5 71.5t-37.5 184.5t40.5 184.5t127.5 71.5q90 0 125 -69t35 -159v-36h-248q1 -81 23.5 -130.5t68.5 -49.5q39 0 57 23.5t27 68.5h68q-4 -39 -15.5 -68t-28.5 -48q-25 -28 -72.5 -72.5t-47.5 -75.5q0 -21 11 -34.5t37 -13.5
h20v-56h-36q-45 0 -68.5 23t-23.5 65v0zM200 432q-41 0 -61.5 -36.5t-24.5 -97.5h167q-2 54 -19.5 94t-61.5 40v0z" />
    <glyph glyph-name="gdotaccent" unicode="&#x121;" horiz-adv-x="420" 
d="M40 -68h72q1 -38 21 -65t67 -27q43 0 67.5 25.5t24.5 90.5v96h-4q-18 -36 -43 -50t-61 -14q-78 0 -115 68.5t-37 187.5t38.5 187.5t117.5 68.5q36 0 60.5 -14t39.5 -50h4v52h76v-532q0 -96 -44 -140t-124 -44q-76 0 -118 41t-42 119v0zM112 244q0 -84 19.5 -136t68.5 -52
t68.5 52t19.5 136t-19.5 136t-68.5 52t-68.5 -52t-19.5 -136v0zM160 608v84h80v-84h-80z" />
    <glyph glyph-name="gcircumflex" unicode="&#x11d;" horiz-adv-x="420" 
d="M40 -68h72q1 -38 21 -65t67 -27q43 0 67.5 25.5t24.5 90.5v96h-4q-18 -36 -43 -50t-61 -14q-78 0 -115 68.5t-37 187.5t38.5 187.5t117.5 68.5q36 0 60.5 -14t39.5 -50h4v52h76v-532q0 -96 -44 -140t-124 -44q-76 0 -118 41t-42 119v0zM112 244q0 -84 19.5 -136t68.5 -52
t68.5 52t19.5 136t-19.5 136t-68.5 52t-68.5 -52t-19.5 -136v0zM72 568l96 164h64l96 -164h-68l-60 112l-60 -112h-68z" />
    <glyph glyph-name="gbreve" unicode="&#x11f;" horiz-adv-x="420" 
d="M40 -68h72q1 -38 21 -65t67 -27q43 0 67.5 25.5t24.5 90.5v96h-4q-18 -36 -43 -50t-61 -14q-78 0 -115 68.5t-37 187.5t38.5 187.5t117.5 68.5q36 0 60.5 -14t39.5 -50h4v52h76v-532q0 -96 -44 -140t-124 -44q-76 0 -118 41t-42 119v0zM112 244q0 -84 19.5 -136t68.5 -52
t68.5 52t19.5 136t-19.5 136t-68.5 52t-68.5 -52t-19.5 -136v0zM200 584q-46 0 -78 32t-34 104h48q4 -40 18 -62t46 -22t46 22t18 62h48q-2 -72 -34 -104t-78 -32v0z" />
    <glyph glyph-name="gcommaaccent" unicode="&#x123;" horiz-adv-x="420" 
d="M40 -68h72q1 -38 21 -65t67 -27q43 0 67.5 25.5t24.5 90.5v96h-4q-18 -36 -43 -50t-61 -14q-78 0 -115 68.5t-37 187.5t38.5 187.5t117.5 68.5q36 0 60.5 -14t39.5 -50h4v52h76v-532q0 -96 -44 -140t-124 -44q-76 0 -118 41t-42 119v0zM112 244q0 -84 19.5 -136t68.5 -52
t68.5 52t19.5 136t-19.5 136t-68.5 52t-68.5 -52t-19.5 -136v0zM160 568v78l37 102h36l-26 -92h33v-88h-80z" />
    <glyph glyph-name="hbar" unicode="&#x127;" horiz-adv-x="424" 
d="M0 592v56h52v84h80v-84h100v-56h-100q0 -26 -1.5 -69.5t-2.5 -86.5h4q12 31 42 47.5t66 16.5q57 0 94.5 -34.5t37.5 -121.5v-344h-80v336q0 57 -21 76.5t-51 19.5q-34 0 -61 -27.5t-27 -87.5v-317h-80v592h-52z" />
    <glyph glyph-name="hcircumflex" unicode="&#x125;" horiz-adv-x="424" 
d="M52 0v732h80v-136q0 -24 -1 -69.5t-3 -90.5h4q12 31 42 47.5t66 16.5q57 0 94.5 -34.5t37.5 -121.5v-344h-80v336q0 57 -21 76.5t-51 19.5q-34 0 -61 -27t-27 -87v-318h-80zM-36 800l96 164h64l96 -164h-68l-60 112l-60 -112h-68z" />
    <glyph glyph-name="dotlessi" unicode="&#x131;" horiz-adv-x="184" 
d="M52 0v488h80v-488h-80z" />
    <glyph glyph-name="igrave" unicode="&#xec;" horiz-adv-x="184" 
d="M52 0v488h80v-488h-80zM64 568l-108 164h88l76 -164h-56z" />
    </font>
</defs>
</svg>
